<svg width="89" height="80" viewBox="0 0 89 80" fill="none" xmlns="http://www.w3.org/2000/svg">
<path d="M45.3636 38.292C50.2108 38.292 54.5981 36.3157 57.7746 33.1218C60.9475 29.9314 62.913 25.5199 62.913 20.646C62.913 15.7722 60.9475 11.3607 57.7746 8.17028C54.5981 4.97636 50.2108 3 45.3636 3C40.5165 3 36.1291 4.97636 32.9527 8.17028C29.7798 11.3607 27.8142 15.7722 27.8142 20.646C27.8142 25.5199 29.7798 29.9314 32.9527 33.1218C34.5806 34.7632 36.5151 36.065 38.645 36.9523C40.7749 37.8396 43.0582 38.2949 45.3636 38.292ZM73.4427 41.8212C74.5956 41.8236 75.7377 41.5969 76.8033 41.1544C77.869 40.7118 78.8372 40.062 79.6525 39.2422C80.4678 38.4225 81.114 37.4489 81.5542 36.3774C81.9943 35.3059 82.2197 34.1575 82.2174 32.9982C82.2174 30.5631 81.2381 28.3573 79.6481 26.7586C78.8341 25.9381 77.8668 25.2875 76.8018 24.8441C75.7369 24.4008 74.5953 24.1735 73.4427 24.1752C72.2897 24.1729 71.1477 24.3995 70.082 24.8421C69.0164 25.2847 68.0481 25.9345 67.2329 26.7542C66.4176 27.574 65.7713 28.5476 65.3312 29.6191C64.891 30.6906 64.6657 31.8389 64.668 32.9982C64.6661 34.1574 64.8918 35.3056 65.3321 36.3769C65.7725 37.4482 66.4187 38.4215 67.2339 39.2412C68.0491 40.0609 69.0171 40.7107 70.0826 41.1534C71.148 41.5962 72.2898 41.8231 73.4427 41.8212ZM73.4427 43.9035C68.771 43.9035 65.2576 45.3363 63.2044 47.3198C59.2908 44.0835 53.1029 41.8212 45.3636 41.8212C37.4102 41.8212 31.3417 44.1082 27.4913 47.3409C25.3994 45.3469 21.8474 43.9035 17.2846 43.9035C9.60496 43.9035 5 47.7503 5 51.6042C5 53.5276 9.60496 55.4581 17.2846 55.4581C19.4046 55.4581 21.3069 55.2781 22.9811 54.9887L22.8407 55.9416C22.8407 59.4708 31.2855 63 45.3636 63C58.5678 63 67.8865 59.4708 67.8865 55.9416L67.8163 55.0416C69.4414 55.2993 71.3087 55.4581 73.4427 55.4581C80.6414 55.4581 85.7273 53.5276 85.7273 51.6042C85.7273 47.7503 80.9082 43.9035 73.4427 43.9035ZM17.2846 41.8212C19.7064 41.8212 21.9001 40.8366 23.4901 39.2379C24.3061 38.4193 24.9531 37.4467 25.394 36.3759C25.8349 35.3051 26.061 34.1572 26.0593 32.9982C26.0616 31.8389 25.8362 30.6906 25.3961 29.6191C24.9559 28.5476 24.3097 27.574 23.4944 26.7542C22.6791 25.9345 21.7109 25.2847 20.6453 24.8421C19.5796 24.3995 18.4375 24.1729 17.2846 24.1752C16.1318 24.1734 14.9899 24.4003 13.9245 24.8431C12.859 25.2858 11.891 25.9356 11.0758 26.7553C10.2606 27.5749 9.61436 28.5483 9.17405 29.6196C8.73373 30.6909 8.50803 31.8391 8.50988 32.9982C8.50757 34.1575 8.73295 35.3059 9.1731 36.3774C9.61326 37.4489 10.2595 38.4225 11.0748 39.2422C11.89 40.062 12.8583 40.7118 13.9239 41.1544C14.9896 41.5969 16.1316 41.8236 17.2846 41.8212Z" fill="white"/>
</svg>
