<svg width="78" height="72" viewBox="0 0 78 72" fill="none" xmlns="http://www.w3.org/2000/svg">
<path d="M30.1959 45.4981C30.1959 50.3521 34.1459 54.3031 38.9999 54.3031C43.8539 54.3031 47.8029 50.3531 47.8029 45.4981C47.8029 40.6441 43.8539 36.6951 38.9999 36.6951C34.1459 36.6951 30.1959 40.6451 30.1959 45.4981Z" fill="white"/>
<path d="M38.9999 55.2291C30.3039 55.2291 23.2289 62.3041 23.2289 71.0001C23.2289 71.5531 23.6769 72.0001 24.2289 72.0001H53.7699C53.7779 72.0011 53.7859 72.0001 53.7899 72.0001C54.3429 72.0001 54.7899 71.5531 54.7899 71.0001C54.7899 70.9301 54.7829 70.8601 54.7689 70.7941C54.6569 62.1921 47.6259 55.2291 38.9999 55.2291Z" fill="white"/>
<path d="M50.3179 49.432C50.3179 53.622 53.7269 57.032 57.9189 57.032C62.1089 57.032 65.5189 53.623 65.5189 49.432C65.5189 45.241 62.1099 41.832 57.9189 41.832C53.7279 41.832 50.3179 45.241 50.3179 49.432Z" fill="white"/>
<path d="M57.9169 57.5081C56.0409 57.5081 54.2279 57.8851 52.5269 58.6291C52.2369 58.7561 52.0239 59.0121 51.9529 59.3191C51.8819 59.6281 51.9609 59.9511 52.1659 60.1921C54.5209 62.9641 55.8179 66.4951 55.8179 70.1341C55.8179 70.4061 55.8129 70.6771 55.7979 70.9451C55.7819 71.2191 55.8809 71.488 56.0689 71.687C56.2599 71.887 56.5219 72.0001 56.7969 72.0001H70.4129C70.9659 72.0001 71.4129 71.5531 71.4129 71.0001C71.4129 63.5611 65.3579 57.5081 57.9169 57.5081Z" fill="white"/>
<path d="M20.0819 57.0311C24.2729 57.0311 27.6819 53.6221 27.6819 49.4311C27.6819 45.2401 24.2729 41.8311 20.0819 41.8311C15.8909 41.8311 12.4819 45.2401 12.4819 49.4311C12.4819 53.6221 15.8909 57.0311 20.0819 57.0311Z" fill="white"/>
<path d="M25.8349 60.1921C26.0399 59.9511 26.1179 59.6281 26.0469 59.3191C25.9759 59.0111 25.7629 58.7551 25.4729 58.6291C23.7719 57.8851 21.9589 57.5081 20.0839 57.5081C12.6419 57.5081 6.58691 63.5611 6.58691 71.0001C6.58691 71.5531 7.03491 72.0001 7.58691 72.0001H21.2039C21.4789 72.0001 21.7429 71.887 21.9319 71.687C22.1209 71.4871 22.2189 71.2171 22.2029 70.9421C22.1869 70.6761 22.1819 70.4071 22.1819 70.1351C22.1819 66.4951 23.4789 62.9641 25.8349 60.1921Z" fill="white"/>
<path d="M42.1279 1.89505C48.0519 4.83805 51.7319 10.774 51.7319 17.388C51.7319 24.001 48.0519 29.937 42.1279 32.88C41.6809 33.102 41.4659 33.621 41.6259 34.095C41.7649 34.508 42.1499 34.776 42.5719 34.776C42.6349 34.776 42.6979 34.77 42.7609 34.758C45.8359 34.169 48.6919 32.765 51.0509 30.687L55.8169 31.966C56.1689 32.059 56.5449 31.957 56.7959 31.694C57.0489 31.432 57.1389 31.053 57.0309 30.705L55.3019 25.11C56.4619 22.729 57.0729 20.068 57.0729 17.388C57.0729 8.92405 51.0529 1.61805 42.7599 0.0180455C42.2739 -0.0759545 41.7839 0.205046 41.6229 0.680046C41.4659 1.15305 41.6809 1.67205 42.1279 1.89505Z" fill="white"/>
<path d="M24.8999 30.6551C24.8959 31.6141 24.9519 33.3981 25.0609 36.8381C25.0749 37.2671 25.3599 37.6401 25.7699 37.7641C25.8659 37.7931 25.9629 37.8071 26.0599 37.8071C26.3769 37.8071 26.6829 37.6561 26.8739 37.3881L30.0379 32.9581C30.5929 33.0951 31.1519 33.2011 31.7029 33.2721C32.4009 33.3761 33.1439 33.4281 33.9129 33.4281C42.7579 33.4281 49.9539 26.2321 49.9539 17.3871C49.9539 8.54207 42.7579 1.34607 33.9129 1.34607C33.1419 1.34607 32.3979 1.39807 31.7149 1.50007C23.8229 2.57307 17.8729 9.40207 17.8729 17.3861C17.8739 22.7411 20.4909 27.6641 24.8999 30.6551ZM24.7199 18.3551C24.7199 17.4531 25.4539 16.7191 26.3559 16.7191C27.2579 16.7191 27.9919 17.4531 27.9919 18.3551C27.9919 19.2571 27.2579 19.9921 26.3559 19.9921C25.4539 19.9921 24.7199 19.2581 24.7199 18.3551ZM39.8339 18.3551C39.8339 17.4531 40.5679 16.7191 41.4719 16.7191C42.3739 16.7191 43.1079 17.4531 43.1079 18.3551C43.1079 19.2571 42.3749 19.9921 41.4719 19.9921C40.5679 19.9921 39.8339 19.2581 39.8339 18.3551ZM33.9139 19.9921C33.0109 19.9921 32.2769 19.2581 32.2769 18.3551C32.2769 17.4521 33.0109 16.7191 33.9139 16.7191C34.8159 16.7191 35.5499 17.4531 35.5499 18.3551C35.5499 19.2571 34.8159 19.9921 33.9139 19.9921Z" fill="white"/>
</svg>
