<svg width="89" height="80" viewBox="0 0 89 80" fill="none" xmlns="http://www.w3.org/2000/svg">
<path fill-rule="evenodd" clip-rule="evenodd" d="M73.2222 5H18.7778C14.5 5 11 8.5 11 12.7778V67.2222C11 71.5 14.5 75 18.7778 75H73.2222C77.5 75 81 71.5 81 67.2222V12.7778C81 8.5 77.5 5 73.2222 5ZM34.3333 59.4444H26.5556V51.6667H34.3333V59.4444ZM34.3333 43.8889H26.5556V36.1111H34.3333V43.8889ZM34.3333 28.3333H26.5556V20.5556H34.3333V28.3333ZM65.4444 59.4444H38.2222V51.6667H65.4444V59.4444ZM65.4444 43.8889H38.2222V36.1111H65.4444V43.8889ZM65.4444 28.3333H38.2222V20.5556H65.4444V28.3333Z" fill="white"/>
</svg>
