<svg width="89" height="80" viewBox="0 0 89 80" fill="none" xmlns="http://www.w3.org/2000/svg">
<path d="M17.0203 28.317C16.8514 24.9676 17.7388 21.6592 19.5346 18.8852L20.0024 18.2031L20.0411 18.1658L20.3658 17.7853L20.706 17.3968L20.7447 17.3568C21.3942 16.6919 22.1133 16.1072 22.8891 15.6079L23.1082 15.4694L23.3273 15.3409L23.8428 15.0446C24.0515 14.9458 24.2783 14.8283 24.4871 14.7295C24.6392 14.6708 24.7912 14.5933 24.9433 14.5346C25.2294 14.4144 25.5335 14.297 25.8377 14.1982C25.9408 14.1474 26.049 14.1074 26.1598 14.0807L26.2829 14.0313L26.4176 13.9819C27.8042 13.5681 29.2295 13.2824 30.6703 13.1515L30.5211 13.169V10.1851C30.5211 8.98867 31.4877 8.0213 32.6832 8.0213C33.8786 8.0213 34.8479 8.98867 34.8479 10.1851V19.6163C34.8479 20.8127 33.8786 21.7828 32.6832 21.7828C31.4877 21.7828 30.5211 20.8127 30.5211 19.6163L30.5213 17.4359C29.102 17.5778 27.7084 17.9303 26.3867 18.4888C22.9758 20.0209 21.3491 22.9385 21.195 27.5621L21.1829 28.3063V29.4678H66.9036V28.277C66.9912 26.1356 66.5608 24.005 65.6484 22.08C64.7721 20.4326 63.37 19.1537 61.6766 18.4595C60.5982 17.996 59.4687 17.6726 58.3144 17.4961L57.5634 17.405L57.5635 19.6054C57.5635 20.7967 56.5954 21.7616 55.4001 21.7616C54.2048 21.7616 53.2367 20.7967 53.2367 19.6054L53.2366 17.243L34.8689 17.2446V12.954L53.2366 12.953L53.2367 10.1724C53.2259 8.98114 54.1886 8.00819 55.3839 8.00005C56.5791 7.99202 57.5554 8.9488 57.5635 10.1401L57.5652 13.1524C58.615 13.2558 59.6562 13.4387 60.6809 13.6999L61.6998 13.9873C61.7823 14.0033 61.8441 14.0246 61.9576 14.0647C62.071 14.1047 62.1663 14.1448 62.2797 14.1822C62.5813 14.2809 62.8622 14.3984 63.1535 14.5186C63.321 14.5773 63.4756 14.6547 63.6071 14.7135C63.8339 14.8123 64.0659 14.9298 64.2514 15.0285C64.4422 15.1273 64.6252 15.2368 64.785 15.3249C64.9448 15.413 65.0685 15.5118 65.2025 15.5919C65.7863 15.9684 66.3411 16.3929 66.8593 16.8599L67.365 17.3407L67.3882 17.3808L67.7416 17.7553L68.0738 18.1497L68.0918 18.1871C70.0356 20.8711 71.0811 24.1306 71.0845 27.4701L71.0636 28.3063V29.4678H71.0845V52.7305C71.0845 62.8748 65.4104 68 54.1654 68H33.8934C22.6741 68 17 62.8748 17 52.7305V29.4678H17.0203V28.317ZM56.4092 50.7388C55.0165 50.7388 53.9075 51.8807 53.9075 53.2882C53.9332 54.6956 55.0423 55.8375 56.4092 55.8375C57.7762 55.8375 58.8852 54.6956 58.8852 53.2882C58.8852 51.8807 57.7762 50.7388 56.4092 50.7388ZM44.0551 50.7123C42.6624 50.7388 41.5534 51.8807 41.5534 53.2882C41.5534 54.6956 42.6882 55.8375 44.0551 55.8375C45.4221 55.8375 46.5311 54.6956 46.5311 53.2616C46.5053 51.8807 45.4221 50.7388 44.0551 50.7123ZM31.6753 50.7123C30.2826 50.7123 29.1735 51.8807 29.1993 53.2882C29.1993 54.6956 30.3083 55.8375 31.6753 55.8375C33.0422 55.8375 34.1513 54.6691 34.1513 53.2616C34.1513 51.8542 33.0422 50.7123 31.6753 50.7123ZM56.4092 39.851C55.0165 39.851 53.9332 40.9929 53.9332 42.4004C53.9332 43.8078 55.0423 44.9497 56.4092 44.9497C57.7762 44.9497 58.8852 43.8078 58.8852 42.4004C58.8852 40.9929 57.7762 39.851 56.4092 39.851ZM44.0551 39.8245C42.6624 39.851 41.5534 40.9929 41.5534 42.4004C41.5534 43.8078 42.6882 44.9497 44.0551 44.9497C45.4221 44.9497 46.5311 43.8078 46.5311 42.3738C46.5311 40.9929 45.4221 39.851 44.0551 39.8245ZM31.7011 39.8245C30.3083 39.8245 29.1993 40.9929 29.1993 42.4004C29.1993 43.8078 30.3083 44.9497 31.6753 44.9497C33.068 44.9497 34.1771 43.7813 34.1513 42.3738C34.1513 40.9664 33.0422 39.8245 31.7011 39.8245Z" fill="white"/>
</svg>
