<svg width="78" height="70" viewBox="0 0 78 70" fill="none" xmlns="http://www.w3.org/2000/svg">
<path d="M7.53125 9.1875C7.53125 7.44702 8.22265 5.77782 9.45336 4.54711C10.6841 3.3164 12.3533 2.625 14.0937 2.625H27.2187C28.9592 2.625 30.6284 3.3164 31.8591 4.54711C33.0898 5.77782 33.7812 7.44702 33.7812 9.1875V22.3125C33.7812 24.053 33.0898 25.7222 31.8591 26.9529C30.6284 28.1836 28.9592 28.875 27.2187 28.875H14.0937C12.3533 28.875 10.6841 28.1836 9.45336 26.9529C8.22265 25.7222 7.53125 24.053 7.53125 22.3125V9.1875ZM42.5312 9.1875C42.5312 7.44702 43.2226 5.77782 44.4534 4.54711C45.6841 3.3164 47.3533 2.625 49.0937 2.625H62.2187C63.9592 2.625 65.6284 3.3164 66.8591 4.54711C68.0898 5.77782 68.7812 7.44702 68.7812 9.1875V22.3125C68.7812 24.053 68.0898 25.7222 66.8591 26.9529C65.6284 28.1836 63.9592 28.875 62.2187 28.875H49.0937C47.3533 28.875 45.6841 28.1836 44.4534 26.9529C43.2226 25.7222 42.5312 24.053 42.5312 22.3125V9.1875ZM7.53125 44.1875C7.53125 42.447 8.22265 40.7778 9.45336 39.5471C10.6841 38.3164 12.3533 37.625 14.0937 37.625H27.2187C28.9592 37.625 30.6284 38.3164 31.8591 39.5471C33.0898 40.7778 33.7812 42.447 33.7812 44.1875V57.3125C33.7812 59.053 33.0898 60.7222 31.8591 61.9529C30.6284 63.1836 28.9592 63.875 27.2187 63.875H14.0937C12.3533 63.875 10.6841 63.1836 9.45336 61.9529C8.22265 60.7222 7.53125 59.053 7.53125 57.3125V44.1875ZM42.5312 44.1875C42.5312 42.447 43.2226 40.7778 44.4534 39.5471C45.6841 38.3164 47.3533 37.625 49.0937 37.625H62.2187C63.9592 37.625 65.6284 38.3164 66.8591 39.5471C68.0898 40.7778 68.7812 42.447 68.7812 44.1875V57.3125C68.7812 59.053 68.0898 60.7222 66.8591 61.9529C65.6284 63.1836 63.9592 63.875 62.2187 63.875H49.0937C47.3533 63.875 45.6841 63.1836 44.4534 61.9529C43.2226 60.7222 42.5312 59.053 42.5312 57.3125V44.1875Z" fill="white"/>
</svg>
