<svg width="88" height="80" viewBox="0 0 88 80" fill="none" xmlns="http://www.w3.org/2000/svg">
<path d="M72.754 39.0007C70.9597 39.0007 69.2096 38.7039 67.5331 38.1843V58.0004H20.4564V38.1843C18.7799 38.7039 17.015 39.0007 15.2281 39.0007C14.4266 39.0007 13.6251 38.9414 12.6912 38.8375C12.2088 38.7632 11.65 38.5257 11.0588 38.3625L11.0602 69.8751C11.0602 73.8101 14.2207 77 17.9872 77H69.77C73.6687 77 76.6969 73.8101 76.6969 69.8751L76.7021 38.3625C76.0924 38.5231 75.5126 38.7646 74.8785 38.8495C74.357 38.9414 73.5629 39.0007 72.754 39.0007ZM82.1811 16.409L73.7511 2.94895C73.0003 1.7392 71.6613 1 70.2318 1H17.7651C16.336 1 14.9973 1.73906 14.2457 2.94895L5.81283 16.409C1.46107 23.3602 5.31132 33.0188 13.4457 34.1321C14.031 34.2063 14.6325 34.2508 15.2296 34.2508C19.074 34.2508 22.4786 32.5616 24.817 29.9507C27.1481 32.5587 30.5747 34.2508 34.3985 34.2508C38.2429 34.2508 41.6475 32.5616 43.9859 29.9507C46.3258 32.5587 49.7378 34.2508 53.5763 34.2508C57.425 34.2508 60.8253 32.5616 63.1636 29.9507C65.5035 32.5587 68.9155 34.2508 72.7393 34.2508C73.3483 34.2508 73.9324 34.2103 74.5173 34.1331C82.6811 33.0337 86.549 23.3706 82.1811 16.409Z" fill="white"/>
</svg>
