<svg width="88" height="80" viewBox="0 0 88 80" fill="none" xmlns="http://www.w3.org/2000/svg">
<path d="M17.0203 30.317C16.8514 26.9676 17.7388 23.6592 19.5346 20.8852L20.0024 20.2031L20.0411 20.1658L20.3658 19.7853L20.706 19.3968L20.7447 19.3568C21.3942 18.6919 22.1133 18.1072 22.8891 17.6079L23.1082 17.4694L23.3273 17.3409L23.8428 17.0446C24.0515 16.9458 24.2783 16.8283 24.4871 16.7295C24.6392 16.6708 24.7912 16.5933 24.9433 16.5346C25.2294 16.4144 25.5335 16.297 25.8377 16.1982C25.9408 16.1474 26.049 16.1074 26.1598 16.0807L26.2829 16.0313L26.4176 15.9819C27.8042 15.5681 29.2295 15.2824 30.6703 15.1515L30.5211 15.169V12.1851C30.5211 10.9887 31.4877 10.0213 32.6832 10.0213C33.8786 10.0213 34.8479 10.9887 34.8479 12.1851V21.6163C34.8479 22.8127 33.8786 23.7828 32.6832 23.7828C31.4877 23.7828 30.5211 22.8127 30.5211 21.6163L30.5213 19.4359C29.102 19.5778 27.7084 19.9303 26.3867 20.4888C22.9758 22.0209 21.3491 24.9384 21.195 29.5621L21.1829 30.3063V31.4678H66.9036V30.277C66.9912 28.1356 66.5608 26.005 65.6484 24.08C64.7721 22.4326 63.37 21.1537 61.6766 20.4595C60.5982 19.996 59.4687 19.6726 58.3144 19.4961L57.5634 19.405L57.5635 21.6054C57.5635 22.7967 56.5954 23.7616 55.4001 23.7616C54.2048 23.7616 53.2367 22.7967 53.2367 21.6054L53.2366 19.243L34.8689 19.2446V14.954L53.2366 14.953L53.2367 12.1724C53.2259 10.9811 54.1886 10.0082 55.3839 10.0001C56.5791 9.99202 57.5554 10.9488 57.5635 12.1401L57.5652 15.1524C58.615 15.2558 59.6562 15.4387 60.6809 15.6999L61.6998 15.9873C61.7823 16.0033 61.8441 16.0246 61.9576 16.0647C62.071 16.1047 62.1663 16.1448 62.2797 16.1822C62.5813 16.2809 62.8622 16.3984 63.1535 16.5186C63.321 16.5773 63.4756 16.6547 63.6071 16.7135C63.8339 16.8123 64.0659 16.9298 64.2514 17.0285C64.4422 17.1273 64.6252 17.2368 64.785 17.3249C64.9448 17.413 65.0685 17.5118 65.2025 17.5919C65.7863 17.9684 66.3411 18.3929 66.8593 18.8599L67.365 19.3407L67.3882 19.3808L67.7416 19.7553L68.0738 20.1497L68.0918 20.1871C70.0356 22.8711 71.0811 26.1306 71.0845 29.4701L71.0636 30.3063V31.4678H71.0845V54.7305C71.0845 64.8748 65.4104 70 54.1654 70H33.8934C22.6741 70 17 64.8748 17 54.7305V31.4678H17.0203V30.317ZM56.4092 52.7388C55.0165 52.7388 53.9075 53.8807 53.9075 55.2882C53.9332 56.6956 55.0423 57.8375 56.4092 57.8375C57.7762 57.8375 58.8852 56.6956 58.8852 55.2882C58.8852 53.8807 57.7762 52.7388 56.4092 52.7388ZM56.4092 41.851C55.0165 41.851 53.9332 42.9929 53.9332 44.4004C53.9332 45.8078 55.0423 46.9497 56.4092 46.9497C57.7762 46.9497 58.8852 45.8078 58.8852 44.4004C58.8852 42.9929 57.7762 41.851 56.4092 41.851Z" fill="white"/>
<path d="M47.5076 38.6333L47.5077 38.6331C47.7922 38.3486 48.1781 38.1888 48.5804 38.1888C48.9828 38.1888 49.3687 38.3486 49.6532 38.6331C49.9377 38.9176 50.0975 39.3035 50.0975 39.7059C50.0975 40.1082 49.9377 40.4941 49.6532 40.7786L34.1785 56.2954C34.4295 56.8469 34.5622 57.4451 34.5677 58.0516L34.5677 58.0525C34.5677 58.9096 34.3135 59.7475 33.8373 60.4602C33.3611 61.1729 32.6842 61.7284 31.8923 62.0564C31.1004 62.3844 30.229 62.4702 29.3883 62.303C28.5477 62.1358 27.7754 61.723 27.1694 61.1169C26.5633 60.5108 26.1505 59.7386 25.9833 58.898C25.8161 58.0573 25.9019 57.1859 26.2299 56.394C26.5579 55.6021 27.1134 54.9252 27.8261 54.449C28.5388 53.9728 29.3766 53.7186 30.2338 53.7186C30.2338 53.7186 30.2338 53.7186 30.2338 53.7186V53.8186C30.8742 53.8181 31.5063 53.9629 32.0826 54.242L47.5076 38.6333ZM47.5076 38.6333L38.7155 47.4673L34.1785 42.9165L47.5076 38.6333ZM36.5843 49.585L32.0616 54.1214L34.0584 42.9377C34.3285 42.3688 34.4683 41.7469 34.4677 41.1171H34.5677C34.5677 41.1171 34.5677 41.1171 34.5677 41.117C34.5676 40.2599 34.3135 39.4221 33.8373 38.7094C33.3611 37.9967 32.6842 37.4412 31.8923 37.1132C31.1004 36.7852 30.229 36.6994 29.3883 36.8666C28.5477 37.0338 27.7754 37.4466 27.1694 38.0527C26.5633 38.6588 26.1505 39.431 25.9833 40.2716C25.8161 41.1123 25.9019 41.9837 26.2299 42.7756C26.5579 43.5675 27.1134 44.2444 27.8261 44.7206C28.5388 45.1968 29.3767 45.451 30.2338 45.451L30.2344 45.451C30.8564 45.4473 31.47 45.3098 32.0336 45.0481L36.5843 49.585ZM30.2338 42.4284C29.9745 42.4284 29.721 42.3515 29.5053 42.2074C29.2897 42.0633 29.1216 41.8585 29.0224 41.6189C28.9231 41.3793 28.8972 41.1157 28.9478 40.8613C28.9983 40.607 29.1232 40.3733 29.3066 40.1899C29.49 40.0065 29.7237 39.8816 29.978 39.8311C30.2324 39.7805 30.496 39.8064 30.7356 39.9057C30.9752 40.0049 31.18 40.173 31.3241 40.3886C31.4682 40.6043 31.5451 40.8578 31.5451 41.1171C31.5451 41.4649 31.407 41.7984 31.161 42.0443C30.9151 42.2903 30.5816 42.4284 30.2338 42.4284ZM30.2338 59.3637C29.9745 59.3637 29.721 59.2868 29.5053 59.1427C29.2897 58.9987 29.1216 58.7939 29.0224 58.5543C28.9231 58.3147 28.8972 58.051 28.9478 57.7966C28.9983 57.5423 29.1232 57.3086 29.3066 57.1252C29.49 56.9419 29.7237 56.817 29.978 56.7664C30.2324 56.7158 30.496 56.7418 30.7356 56.841C30.9752 56.9402 31.18 57.1083 31.3241 57.324C31.4682 57.5396 31.5451 57.7931 31.5451 58.0525C31.5451 58.4002 31.407 58.7338 31.161 58.9797C30.9151 59.2256 30.5816 59.3637 30.2338 59.3637Z" fill="#427272" stroke="#427272" stroke-width="0.2"/>
<path d="M42.5969 51.3345C42.3124 51.05 41.9266 50.8902 41.5242 50.8902C41.1219 50.8902 40.736 51.05 40.4515 51.3345C40.167 51.619 40.0072 52.0049 40.0072 52.4072C40.0072 52.8096 40.167 53.1954 40.4515 53.4799L47.5076 60.536C47.5077 60.5361 47.5078 60.5362 47.5078 60.5363C47.6483 60.6778 47.8154 60.7902 47.9994 60.8668C48.1836 60.9436 48.3811 60.9831 48.5806 60.9831C48.7801 60.9831 48.9777 60.9436 49.1618 60.8668C49.3459 60.7902 49.5129 60.6778 49.6533 60.5363C49.7948 60.3959 49.9072 60.2289 49.9839 60.0448C50.0606 59.8607 50.1001 59.6631 50.1001 59.4636C50.1001 59.2641 50.0606 59.0666 49.9839 58.8824C49.9072 58.6983 49.7948 58.5313 49.6533 58.3908C49.6532 58.3908 49.6531 58.3907 49.653 58.3906L42.5969 51.3345Z" fill="#427272" stroke="#427272" stroke-width="0.2"/>
</svg>
