<svg width="89" height="80" viewBox="0 0 89 80" fill="none" xmlns="http://www.w3.org/2000/svg">
<path d="M58.8621 54.9628C60.0217 53.8111 61.8805 53.8111 63.0401 54.9628L70.7041 61.1492H70.8371C72.3876 62.7164 72.3876 65.2574 70.8371 66.8246C69.2866 68.3918 66.7727 68.3918 65.2222 66.8246L58.8621 59.5354L58.6208 59.2631C58.1712 58.694 57.9229 57.9845 57.9229 57.2491C57.9229 56.3911 58.2609 55.5685 58.8621 54.9628ZM37.7329 8C44.5577 8 51.103 10.7403 55.9288 15.6181C60.7547 20.4959 63.4658 27.1116 63.4658 34.0098C63.4658 48.3746 51.9448 60.0196 37.7329 60.0196C23.521 60.0196 12 48.3746 12 34.0098C12 19.645 23.521 8 37.7329 8Z" fill="white"/>
</svg>
