<svg width="61" height="56" viewBox="0 0 61 56" fill="none" xmlns="http://www.w3.org/2000/svg">
<path d="M56.5623 33.021L54.4738 31.796C52.2111 30.396 52.2111 27.071 54.4738 25.671L56.5623 24.446C58.3028 23.396 58.825 21.296 57.7807 19.721L56.0402 16.746C54.9959 14.996 52.9073 14.471 51.3409 15.521L49.2523 16.746C46.9897 18.146 44.0308 16.396 44.0308 13.771V11.321C44.0308 9.39601 42.4644 7.82101 40.5499 7.82101H37.0689C35.1544 7.82101 33.5879 9.39601 33.5879 11.321V13.596C33.5879 16.221 30.6291 17.971 28.3664 16.571L26.2779 15.521C24.5374 14.471 22.4488 15.171 21.5785 16.746L19.8381 19.721C18.9678 21.471 19.49 23.571 21.0564 24.621L23.145 25.846C25.4076 27.071 25.4076 30.571 23.145 31.796L21.0564 33.021C19.3159 34.071 18.7938 36.171 19.8381 37.746L21.5785 40.721C22.6228 42.471 24.7114 42.996 26.2779 41.946L28.3664 40.896C30.6291 39.496 33.5879 41.246 33.5879 43.871V46.321C33.5879 48.246 35.1544 49.821 37.0689 49.821H40.5499C42.4644 49.821 44.0308 48.246 44.0308 46.321V44.046C44.0308 41.421 46.9897 39.671 49.2523 41.071L51.3409 42.296C53.0814 43.346 55.17 42.646 56.0402 41.071L57.7807 38.096C58.6509 36.171 58.1288 34.071 56.5623 33.021ZM38.8094 35.821C34.9803 35.821 31.8474 32.671 31.8474 28.821C31.8474 24.971 34.9803 21.821 38.8094 21.821C42.6384 21.821 45.7713 24.971 45.7713 28.821C45.7713 32.671 42.6384 35.821 38.8094 35.821Z" fill="white"/>
</svg>
