<svg width="57" height="52" viewBox="0 0 57 52" fill="none" xmlns="http://www.w3.org/2000/svg">
<path fill-rule="evenodd" clip-rule="evenodd" d="M32.7286 13.3386C35.4204 13.3386 37.8985 14.2554 39.8683 15.7943C38.7926 17.0849 38.145 18.7458 38.145 20.558C38.145 22.212 38.6845 23.74 39.5965 24.9754H25.8608C26.7727 23.74 27.3122 22.2121 27.3122 20.558C27.3122 18.7458 26.6646 17.0849 25.5889 15.7943C27.5588 14.2554 30.0368 13.3386 32.7286 13.3386ZM19.885 28.0132C25.1037 28.0132 29.5188 31.4593 30.9855 36.2034C31.2433 37.0368 31.1032 37.8661 30.5862 38.5685C30.0693 39.2708 29.3198 39.65 28.4487 39.65H11.3212C10.4501 39.65 9.70059 39.2708 9.18367 38.5685C8.66674 37.8661 8.52669 37.0368 8.78438 36.2034C10.2512 31.4594 14.6664 28.0132 19.885 28.0132ZM45.5722 14.6746C42.3279 14.6746 39.6979 17.3088 39.6979 20.5581C39.6979 23.8075 42.3279 26.4417 45.5722 26.4417C48.8165 26.4417 51.4466 23.8075 51.4466 20.5581C51.4466 17.3088 48.8165 14.6746 45.5722 14.6746ZM19.885 14.6746C16.6407 14.6746 14.0107 17.3088 14.0107 20.5581C14.0107 23.8075 16.6407 26.4417 19.885 26.4417C23.1293 26.4417 25.7593 23.8075 25.7593 20.5581C25.7593 17.3088 23.1293 14.6746 19.885 14.6746ZM45.5721 28.0132C50.7908 28.0132 55.2059 31.4593 56.6726 36.2034C56.9304 37.0368 56.7903 37.8661 56.2734 38.5685C55.7564 39.2708 55.007 39.65 54.1358 39.65H37.0085C36.1373 39.65 35.3878 39.2708 34.8709 38.5685C34.354 37.8661 34.2139 37.0368 34.4716 36.2034C35.9384 31.4594 40.3536 28.0132 45.5721 28.0132ZM32.7287 0C35.973 0 38.603 2.63416 38.603 5.88355C38.603 9.13294 35.973 11.7671 32.7287 11.7671C29.4844 11.7671 26.8543 9.13294 26.8543 5.88355C26.8543 2.63416 29.4844 0 32.7287 0Z" fill="white"/>
</svg>
