<svg width="77" height="70" viewBox="0 0 77 70" fill="none" xmlns="http://www.w3.org/2000/svg">
<path d="M57.5685 32.58L59.1978 28.7717C59.9621 26.9858 61.7924 26.0142 63.5874 26.3851L63.971 26.4852L66.0114 27.1314C68.0343 27.7722 69.5836 29.4898 70.0841 31.6469C71.2731 36.773 69.8465 43.0141 65.8042 50.3704C61.7681 57.7159 57.3442 62.1322 52.5327 63.6201C50.6645 64.1976 48.6575 63.7779 47.148 62.5218L46.7492 62.1586L45.1995 60.6165C43.8567 59.2801 43.58 57.1663 44.4805 55.5122L44.7091 55.1394L47.0447 51.7383C47.9634 50.4003 49.5357 49.7669 51.0504 50.0868L51.4615 50.1978L55.7732 51.6231C57.4937 50.3326 58.9284 48.7081 60.0773 46.7498C61.0617 45.0711 61.7059 43.3699 62.0093 41.6459L62.1326 40.7822L58.5426 37.4048C57.36 36.292 56.9304 34.5597 57.4138 33.0003L57.5685 32.58ZM63.1847 6.125C67.2072 6.125 70.4684 9.35723 70.4684 13.3444L70.4703 26.1114C69.6526 25.3476 68.6976 24.7318 67.641 24.3067L66.9952 24.075L65.6113 23.6344L65.6126 13.3444C65.6126 12.0153 64.5255 10.9379 63.1847 10.9379H13.0232C11.6823 10.9379 10.5953 12.0153 10.5953 13.3444V50.2581C10.5953 51.5872 11.6823 52.6646 13.0232 52.6646L21.9222 52.6627L21.9254 43.8262C21.9254 40.88 24.2145 38.4639 27.1259 38.2297L27.5905 38.2111H48.6151C51.5875 38.2111 54.0251 40.4799 54.2614 43.3657L54.2802 43.8262L54.2779 47.7471L52.4842 47.1541L51.9481 46.9998C49.2577 46.3385 46.4445 47.3171 44.7013 49.4839L44.3672 49.9331L42.0316 53.3339L41.7147 53.8377C41.065 54.9668 40.7371 56.2229 40.7196 57.4769L13.0232 57.4775C9.00052 57.4775 5.7395 54.2452 5.7395 50.2581V13.3444C5.7395 9.35723 9.00052 6.125 13.0232 6.125H63.1847ZM38.1114 15.7523C43.4751 15.7523 47.8229 20.0619 47.8229 25.3783C47.8229 30.6943 43.4751 35.0041 38.1114 35.0041C32.7477 35.0041 28.3998 30.6943 28.3998 25.3783C28.3998 20.0619 32.7477 15.7523 38.1114 15.7523Z" fill="white"/>
</svg>
