<svg width="89" height="80" viewBox="0 0 89 80" fill="none" xmlns="http://www.w3.org/2000/svg">
<path d="M18.6005 15.819H66.6026C67.1634 15.8188 67.7235 15.8543 68.2797 15.9255C68.0912 14.6021 67.6366 13.3306 66.9434 12.1876C66.2502 11.0447 65.3327 10.0539 64.2462 9.27513C63.1597 8.49634 61.9268 7.94563 60.6217 7.65621C59.3167 7.3668 57.9665 7.34466 56.6527 7.59115L17.1754 14.331H17.1304C14.6524 14.8048 12.4488 16.2068 10.9696 18.2506C13.1981 16.6655 15.8657 15.8155 18.6005 15.819Z" fill="white"/>
<path d="M66.6026 19.4192H18.6004C16.0551 19.422 13.6148 20.4343 11.815 22.2342C10.0151 24.034 9.00278 26.4743 9 29.0196V57.8209C9.00278 60.3663 10.0151 62.8066 11.815 64.6064C13.6148 66.4062 16.0551 67.4186 18.6004 67.4214H66.6026C69.148 67.4186 71.5883 66.4062 73.3881 64.6064C75.1879 62.8066 76.2003 60.3663 76.2031 57.8209V29.0196C76.2003 26.4743 75.1879 24.034 73.3881 22.2342C71.5883 20.4343 69.148 19.422 66.6026 19.4192ZM59.4773 48.2205C58.5279 48.2205 57.5998 47.939 56.8104 47.4115C56.0211 46.8841 55.4058 46.1344 55.0425 45.2573C54.6792 44.3801 54.5841 43.415 54.7693 42.4838C54.9545 41.5527 55.4117 40.6973 56.083 40.026C56.7544 39.3547 57.6097 38.8975 58.5408 38.7123C59.472 38.5271 60.4371 38.6221 61.3143 38.9855C62.1914 39.3488 62.9411 39.964 63.4685 40.7534C63.996 41.5428 64.2775 42.4709 64.2775 43.4203C64.2775 44.6934 63.7718 45.9143 62.8716 46.8146C61.9714 47.7148 60.7504 48.2205 59.4773 48.2205Z" fill="white"/>
<path d="M9.07495 39.1451V24.2194C9.07495 20.9688 10.875 15.519 17.1228 14.3385C22.4256 13.3439 27.6758 13.3439 27.6758 13.3439C27.6758 13.3439 31.126 15.744 28.2758 15.744C25.4257 15.744 25.5007 19.4192 28.2758 19.4192C31.051 19.4192 28.2758 22.9444 28.2758 22.9444L17.1003 35.62L9.07495 39.1451Z" fill="white"/>
</svg>
