<svg width="31" height="31" viewBox="0 0 31 31" fill="none" xmlns="http://www.w3.org/2000/svg">
<path d="M31 15.5C31 24.0604 24.0604 31 15.5 31C6.93959 31 0 24.0604 0 15.5C0 6.93959 6.93959 0 15.5 0C24.0604 0 31 6.93959 31 15.5Z" fill="#2B3674"/>
<path fill-rule="evenodd" clip-rule="evenodd" d="M15.5 30C23.5081 30 30 23.5081 30 15.5C30 7.49187 23.5081 1 15.5 1C7.49187 1 1 7.49187 1 15.5C1 23.5081 7.49187 30 15.5 30ZM15.5 31C24.0604 31 31 24.0604 31 15.5C31 6.93959 24.0604 0 15.5 0C6.93959 0 0 6.93959 0 15.5C0 24.0604 6.93959 31 15.5 31Z" fill="#2B3674"/>
<path fill-rule="evenodd" clip-rule="evenodd" d="M15.4999 8.69971C15.8313 8.69971 16.0999 8.96834 16.0999 9.29971L16.0999 21.6997C16.0999 22.0311 15.8313 22.2997 15.4999 22.2997C15.1685 22.2997 14.8999 22.0311 14.8999 21.6997L14.8999 9.29971C14.8999 8.96834 15.1685 8.69971 15.4999 8.69971Z" fill="white"/>
<path fill-rule="evenodd" clip-rule="evenodd" d="M22.3003 15.4999C22.3003 15.8313 22.0317 16.0999 21.7003 16.0999L9.30029 16.0999C8.96892 16.0999 8.70029 15.8313 8.70029 15.4999C8.70029 15.1685 8.96892 14.8999 9.30029 14.8999L21.7003 14.8999C22.0317 14.8999 22.3003 15.1685 22.3003 15.4999Z" fill="white"/>
</svg>
