<svg width="19" height="20" viewBox="0 0 19 20" fill="none" xmlns="http://www.w3.org/2000/svg">
<path d="M17.1667 19H7.16675" stroke="#A3AED0" stroke-width="2" stroke-linecap="round"/>
<path fill-rule="evenodd" clip-rule="evenodd" d="M3.66675 14H13.1667C15.0524 14 15.9952 14 16.581 13.4142C17.1667 12.8284 17.1667 11.8856 17.1667 10V5C17.1667 3.11438 17.1667 2.17157 16.581 1.58579C15.9952 1 15.0524 1 13.1667 1H5.16675C3.28113 1 2.33832 1 1.75253 1.58579C1.16675 2.17157 1.16675 3.11438 1.16675 5V16.5C1.16675 15.1193 2.28604 14 3.66675 14ZM13.581 7.41421C14.362 6.63317 14.362 5.36684 13.581 4.58579C12.7999 3.80474 11.5336 3.80474 10.7525 4.58579L8.16675 7.17157L7.58096 6.58579C6.79991 5.80474 5.53358 5.80474 4.75253 6.58579C3.97149 7.36683 3.97149 8.63316 4.75253 9.41421L6.04543 10.7071C7.217 11.8787 9.1165 11.8787 10.2881 10.7071L13.581 7.41421Z" fill="#A3AED0"/>
<path d="M16.581 13.4142L15.8739 12.7071L15.8739 12.7071L16.581 13.4142ZM16.581 1.58579L15.8739 2.29289L15.8739 2.29289L16.581 1.58579ZM13.581 4.58579L14.2881 3.87868L14.2881 3.87868L13.581 4.58579ZM13.581 7.41421L12.8739 6.70711L13.581 7.41421ZM10.7525 4.58579L10.0454 3.87868L10.7525 4.58579ZM8.16675 7.17157L7.45964 7.87868L8.16675 8.58579L8.87385 7.87868L8.16675 7.17157ZM7.58096 6.58579L6.87385 7.29289H6.87386L7.58096 6.58579ZM4.75253 6.58579L5.45964 7.29289L5.45964 7.29289L4.75253 6.58579ZM4.75253 9.41421L5.45964 8.70711V8.70711L4.75253 9.41421ZM6.04543 10.7071L5.33832 11.4142L6.04543 10.7071ZM10.2881 10.7071L9.58096 10L10.2881 10.7071ZM13.1667 13H3.66675V15H13.1667V13ZM15.8739 12.7071C15.7977 12.7832 15.6618 12.8774 15.228 12.9357C14.7655 12.9979 14.1378 13 13.1667 13V15C14.0813 15 14.8678 15.0021 15.4945 14.9179C16.1501 14.8297 16.7784 14.631 17.2881 14.1213L15.8739 12.7071ZM16.1667 10C16.1667 10.9711 16.1646 11.5988 16.1024 12.0613C16.0441 12.495 15.95 12.631 15.8739 12.7071L17.2881 14.1213C17.7977 13.6117 17.9965 12.9833 18.0846 12.3278C18.1689 11.701 18.1667 10.9145 18.1667 10H16.1667ZM16.1667 5V10H18.1667V5H16.1667ZM15.8739 2.29289C15.95 2.36902 16.0441 2.50496 16.1024 2.9387C16.1646 3.40121 16.1667 4.02892 16.1667 5H18.1667C18.1667 4.08546 18.1689 3.29896 18.0846 2.67221C17.9965 2.01669 17.7977 1.38834 17.2881 0.878679L15.8739 2.29289ZM13.1667 2C14.1378 2 14.7655 2.00212 15.228 2.06431C15.6618 2.12262 15.7977 2.21677 15.8739 2.29289L17.2881 0.87868C16.7784 0.369017 16.1501 0.170272 15.4945 0.0821405C14.8678 -0.00212371 14.0813 0 13.1667 0V2ZM5.16675 2H13.1667V0H5.16675V2ZM2.45964 2.29289C2.53577 2.21677 2.67171 2.12262 3.10545 2.06431C3.56796 2.00212 4.19567 2 5.16675 2V0C4.25221 0 3.46571 -0.00212371 2.83896 0.0821405C2.18344 0.170272 1.55509 0.369017 1.04543 0.87868L2.45964 2.29289ZM2.16675 5C2.16675 4.02892 2.16887 3.40121 2.23105 2.9387C2.28937 2.50496 2.38352 2.36902 2.45964 2.29289L1.04543 0.87868C0.535766 1.38834 0.33702 2.01669 0.248889 2.67221C0.164624 3.29896 0.166748 4.08546 0.166748 5H2.16675ZM2.16675 16.5V5H0.166748V16.5H2.16675ZM3.66675 13C1.73375 13 0.166748 14.567 0.166748 16.5H2.16675C2.16675 15.6716 2.83832 15 3.66675 15V13ZM12.8739 5.29289C13.2644 5.68342 13.2644 6.31658 12.8739 6.70711L14.2881 8.12132C15.4596 6.94975 15.4596 5.05025 14.2881 3.87868L12.8739 5.29289ZM11.4596 5.29289C11.8502 4.90237 12.4833 4.90237 12.8739 5.29289L14.2881 3.87868C13.1165 2.70711 11.217 2.70711 10.0454 3.87868L11.4596 5.29289ZM8.87385 7.87868L11.4596 5.29289L10.0454 3.87868L7.45964 6.46447L8.87385 7.87868ZM6.87386 7.29289L7.45964 7.87868L8.87385 6.46447L8.28807 5.87868L6.87386 7.29289ZM5.45964 7.29289C5.85017 6.90237 6.48333 6.90237 6.87385 7.29289L8.28807 5.87868C7.1165 4.70711 5.217 4.70711 4.04543 5.87868L5.45964 7.29289ZM5.45964 8.70711C5.06912 8.31658 5.06912 7.68342 5.45964 7.29289L4.04543 5.87868C2.87385 7.05025 2.87385 8.94975 4.04543 10.1213L5.45964 8.70711ZM6.75253 10L5.45964 8.70711L4.04543 10.1213L5.33832 11.4142L6.75253 10ZM9.58096 10C8.79991 10.781 7.53358 10.781 6.75253 10L5.33832 11.4142C6.90042 12.9763 9.43308 12.9763 10.9952 11.4142L9.58096 10ZM12.8739 6.70711L9.58096 10L10.9952 11.4142L14.2881 8.12132L12.8739 6.70711ZM8.16675 18H3.66675V20H8.16675V18ZM0.166748 16.5C0.166748 18.433 1.73375 20 3.66675 20V18C2.83832 18 2.16675 17.3284 2.16675 16.5H0.166748Z" fill="#A3AED0"/>
</svg>
