<svg width="18" height="14" viewBox="0 0 18 14" fill="none" xmlns="http://www.w3.org/2000/svg">
<path d="M17.1113 10.8889V13.2222C17.1113 13.6518 16.7631 14 16.3336 14H5.44466C5.01509 14 4.66688 13.6518 4.66688 13.2222V10.8889C4.66688 9.1707 6.0598 7.77778 7.77799 7.77778H14.0002C15.7184 7.77778 17.1113 9.1707 17.1113 10.8889ZM3.12385 13.4647C3.15138 13.7317 2.96262 14 2.6942 14H0.777994C0.348505 14 0.00021553 13.6518 0.00021553 13.2222V10.8889C0.00021553 9.1707 1.39314 7.77778 3.11133 7.77778H3.86468C4.03276 7.77778 4.125 7.97977 4.02498 8.11487C3.45083 8.89031 3.11133 9.84993 3.11133 10.8889V13.2222C3.11133 13.3041 3.1156 13.385 3.12385 13.4647ZM7.77799 3.11111C7.77799 4.82933 9.17092 6.22222 10.8891 6.22222C12.6073 6.22222 14.0002 4.82933 14.0002 3.11111C14.0002 1.39289 12.6073 0 10.8891 0C9.17092 0 7.77799 1.39289 7.77799 3.11111ZM6.72729 6.18147C6.99236 6.13822 7.08266 5.82501 6.93939 5.5979C6.48517 4.87799 6.22236 4.02524 6.22236 3.11111C6.22236 2.19698 6.48517 1.34423 6.93939 0.62433C7.08266 0.397234 6.99236 0.084031 6.72729 0.040771C6.56295 0.0139455 6.39425 0 6.22236 0C4.50409 0 3.11125 1.39289 3.11125 3.11111C3.11125 4.82933 4.50409 6.22222 6.22236 6.22222C6.39425 6.22222 6.56295 6.2083 6.72729 6.18147Z" fill="#5948C8"/>
</svg>
