<svg width="16" height="12" viewBox="0 0 16 12" fill="none" xmlns="http://www.w3.org/2000/svg">
<path d="M7.70111 5.41695L14.7304 0.9013C14.4478 0.689331 14.1046 0.573655 13.7513 0.571289H1.65091C1.29765 0.573655 0.954479 0.689331 0.671875 0.9013L7.70111 5.41695Z" fill="#5948C8"/>
<path d="M7.99727 6.53361L7.90377 6.57762H7.85977C7.80912 6.60024 7.75535 6.61508 7.70026 6.62162C7.65461 6.62737 7.60841 6.62737 7.56276 6.62162H7.51876L7.42525 6.57762L0.0550018 1.81445C0.0197886 1.9473 0.00131163 2.08403 0 2.22147V9.92173C0 10.3594 0.173845 10.779 0.48329 11.0885C0.792736 11.3979 1.21243 11.5718 1.65006 11.5718H13.7505C14.1881 11.5718 14.6078 11.3979 14.9172 11.0885C15.2267 10.779 15.4005 10.3594 15.4005 9.92173V2.22147C15.3992 2.08403 15.3807 1.9473 15.3455 1.81445L7.99727 6.53361Z" fill="#5948C8"/>
</svg>
