<svg width="29" height="28" viewBox="0 0 29 28" fill="none" xmlns="http://www.w3.org/2000/svg">
<path d="M22.8125 26.25H10.5625C9.51821 26.25 8.51669 25.8352 7.77827 25.0967C7.03984 24.3583 6.625 23.3568 6.625 22.3125V10.0625C6.625 9.01821 7.03984 8.01669 7.77827 7.27827C8.51669 6.53984 9.51821 6.125 10.5625 6.125H22.8125C23.8568 6.125 24.8583 6.53984 25.5967 7.27827C26.3352 8.01669 26.75 9.01821 26.75 10.0625V22.3125C26.75 23.3568 26.3352 24.3583 25.5967 25.0967C24.8583 25.8352 23.8568 26.25 22.8125 26.25Z" fill="#979797"/>
<path d="M9.25 4.375H22.1497C21.8774 3.60787 21.3745 2.94376 20.7099 2.47378C20.0453 2.0038 19.2515 1.75098 18.4375 1.75H6.1875C5.14321 1.75 4.14169 2.16484 3.40327 2.90327C2.66484 3.64169 2.25 4.64321 2.25 5.6875V17.9375C2.25098 18.7515 2.5038 19.5453 2.97378 20.2099C3.44376 20.8745 4.10787 21.3774 4.875 21.6497V8.75C4.875 7.58968 5.33594 6.47688 6.15641 5.65641C6.97688 4.83594 8.08968 4.375 9.25 4.375Z" fill="#979797"/>
</svg>
