<svg width="29" height="30" viewBox="0 0 29 30" fill="none" xmlns="http://www.w3.org/2000/svg">
<path fill-rule="evenodd" clip-rule="evenodd" d="M28.375 6.25H0.625V10.875C1.63519 10.875 2.14029 10.875 2.53375 11.0533C2.97571 11.2535 3.32981 11.6076 3.53006 12.0496C3.70833 12.443 3.70833 12.9481 3.70833 13.9583V23.375C3.70833 26.2034 3.70833 27.6176 4.58701 28.4963C5.46569 29.375 6.87991 29.375 9.70834 29.375H19.2917C22.1201 29.375 23.5343 29.375 24.413 28.4963C25.2917 27.6176 25.2917 26.2034 25.2917 23.375V13.9583C25.2917 12.9481 25.2917 12.443 25.4699 12.0496C25.6702 11.6076 26.0243 11.2535 26.4663 11.0533C26.8597 10.875 27.3648 10.875 28.375 10.875V6.25ZM11.6458 13.9583C11.6458 13.406 11.1981 12.9583 10.6458 12.9583C10.0935 12.9583 9.64583 13.406 9.64583 13.9583V21.6667C9.64583 22.219 10.0935 22.6667 10.6458 22.6667C11.1981 22.6667 11.6458 22.219 11.6458 21.6667V13.9583ZM19.3542 13.9583C19.3542 13.406 18.9065 12.9583 18.3542 12.9583C17.8019 12.9583 17.3542 13.406 17.3542 13.9583V21.6667C17.3542 22.219 17.8019 22.6667 18.3542 22.6667C18.9065 22.6667 19.3542 22.219 19.3542 21.6667V13.9583Z" fill="#2B3674"/>
<path fill-rule="evenodd" clip-rule="evenodd" d="M16.5657 0.802197C15.9525 0.684573 15.228 0.625 14.5002 0.625C13.7725 0.625 13.048 0.684573 12.4348 0.802197C12.1283 0.861003 11.8395 0.936196 11.5861 1.03099C11.35 1.11934 11.0677 1.25252 10.8398 1.46516C10.436 1.84192 10.414 2.47471 10.7908 2.87852C11.1591 3.27325 11.772 3.30308 12.1766 2.95233C12.1947 2.94246 12.23 2.92549 12.287 2.90417C12.4057 2.85975 12.5797 2.81088 12.8116 2.76638C13.2754 2.67741 13.8705 2.625 14.5002 2.625C15.13 2.625 15.725 2.67741 16.1889 2.76638C16.4208 2.81088 16.5948 2.85975 16.7135 2.90417C16.7705 2.92549 16.8058 2.94246 16.8239 2.95233C17.2285 3.30308 17.8414 3.27325 18.2097 2.87852C18.5864 2.4747 18.5645 1.84192 18.1607 1.46515C17.9328 1.25252 17.6505 1.11934 17.4144 1.03099C17.161 0.936196 16.8722 0.861002 16.5657 0.802197Z" fill="#2B3674"/>
</svg>
