<svg width="18" height="18" viewBox="0 0 18 18" fill="none" xmlns="http://www.w3.org/2000/svg">
<path d="M2.46659 5.73333H2.69992C3.59825 5.73333 4.33325 6.46833 4.33325 7.36667V15.5333C4.33325 16.4317 3.59825 17.1667 2.69992 17.1667H2.46659C1.56825 17.1667 0.833252 16.4317 0.833252 15.5333V7.36667C0.833252 6.46833 1.56825 5.73333 2.46659 5.73333V5.73333ZM8.99992 0.833334C9.89825 0.833334 10.6333 1.56833 10.6333 2.46667V15.5333C10.6333 16.4317 9.89825 17.1667 8.99992 17.1667C8.10159 17.1667 7.36659 16.4317 7.36659 15.5333V2.46667C7.36659 1.56833 8.10159 0.833334 8.99992 0.833334ZM15.5333 10.1667C16.4316 10.1667 17.1666 10.9017 17.1666 11.8V15.5333C17.1666 16.4317 16.4316 17.1667 15.5333 17.1667C14.6349 17.1667 13.8999 16.4317 13.8999 15.5333V11.8C13.8999 10.9017 14.6349 10.1667 15.5333 10.1667V10.1667Z" fill="#A3AED0"/>
</svg>
