<svg width="18" height="20" viewBox="0 0 18 20" fill="none" xmlns="http://www.w3.org/2000/svg">
<path fill-rule="evenodd" clip-rule="evenodd" d="M3.5 14H13C14.8856 14 15.8284 14 16.4142 13.4142C17 12.8284 17 11.8856 17 10V5C17 3.11438 17 2.17157 16.4142 1.58579C15.8284 1 14.8856 1 13 1H5C3.11438 1 2.17157 1 1.58579 1.58579C1 2.17157 1 3.11438 1 5V16.5C1 15.1193 2.11929 14 3.5 14ZM13.4142 7.41421C14.1953 6.63317 14.1953 5.36684 13.4142 4.58579C12.6332 3.80474 11.3668 3.80474 10.5858 4.58579L8 7.17157L7.41421 6.58579C6.63317 5.80474 5.36684 5.80474 4.58579 6.58579C3.80474 7.36683 3.80474 8.63316 4.58579 9.41421L5.87868 10.7071C7.05025 11.8787 8.94975 11.8787 10.1213 10.7071L13.4142 7.41421Z" fill="#A3AED0"/>
<path d="M16.4142 13.4142L15.7071 12.7071L15.7071 12.7071L16.4142 13.4142ZM16.4142 1.58579L15.7071 2.29289L15.7071 2.29289L16.4142 1.58579ZM13.4142 4.58579L14.1213 3.87868L14.1213 3.87868L13.4142 4.58579ZM13.4142 7.41421L12.7071 6.70711L13.4142 7.41421ZM10.5858 4.58579L9.87868 3.87868L10.5858 4.58579ZM8 7.17157L7.29289 7.87868L8 8.58579L8.70711 7.87868L8 7.17157ZM7.41421 6.58579L6.70711 7.29289H6.70711L7.41421 6.58579ZM4.58579 6.58579L5.29289 7.29289L5.29289 7.29289L4.58579 6.58579ZM4.58579 9.41421L5.29289 8.70711V8.70711L4.58579 9.41421ZM5.87868 10.7071L5.17157 11.4142L5.87868 10.7071ZM10.1213 10.7071L9.41421 10L10.1213 10.7071ZM13 13H3.5V15H13V13ZM15.7071 12.7071C15.631 12.7832 15.495 12.8774 15.0613 12.9357C14.5988 12.9979 13.9711 13 13 13V15C13.9145 15 14.701 15.0021 15.3278 14.9179C15.9833 14.8297 16.6117 14.631 17.1213 14.1213L15.7071 12.7071ZM16 10C16 10.9711 15.9979 11.5988 15.9357 12.0613C15.8774 12.495 15.7832 12.631 15.7071 12.7071L17.1213 14.1213C17.631 13.6117 17.8297 12.9833 17.9179 12.3278C18.0021 11.701 18 10.9145 18 10H16ZM16 5V10H18V5H16ZM15.7071 2.29289C15.7832 2.36902 15.8774 2.50496 15.9357 2.9387C15.9979 3.40121 16 4.02892 16 5H18C18 4.08546 18.0021 3.29896 17.9179 2.67221C17.8297 2.01669 17.631 1.38834 17.1213 0.878679L15.7071 2.29289ZM13 2C13.9711 2 14.5988 2.00212 15.0613 2.06431C15.495 2.12262 15.631 2.21677 15.7071 2.29289L17.1213 0.87868C16.6117 0.369017 15.9833 0.170272 15.3278 0.0821405C14.701 -0.00212371 13.9145 0 13 0V2ZM5 2H13V0H5V2ZM2.29289 2.29289C2.36902 2.21677 2.50496 2.12262 2.9387 2.06431C3.40121 2.00212 4.02892 2 5 2V0C4.08546 0 3.29896 -0.00212371 2.67221 0.0821405C2.01669 0.170272 1.38834 0.369017 0.87868 0.87868L2.29289 2.29289ZM2 5C2 4.02892 2.00212 3.40121 2.06431 2.9387C2.12262 2.50496 2.21677 2.36902 2.29289 2.29289L0.87868 0.87868C0.369017 1.38834 0.170272 2.01669 0.0821405 2.67221C-0.00212371 3.29896 0 4.08546 0 5H2ZM2 16.5V5H0V16.5H2ZM3.5 13C1.567 13 0 14.567 0 16.5H2C2 15.6716 2.67157 15 3.5 15V13ZM12.7071 5.29289C13.0976 5.68342 13.0976 6.31658 12.7071 6.70711L14.1213 8.12132C15.2929 6.94975 15.2929 5.05025 14.1213 3.87868L12.7071 5.29289ZM11.2929 5.29289C11.6834 4.90237 12.3166 4.90237 12.7071 5.29289L14.1213 3.87868C12.9497 2.70711 11.0503 2.70711 9.87868 3.87868L11.2929 5.29289ZM8.70711 7.87868L11.2929 5.29289L9.87868 3.87868L7.29289 6.46447L8.70711 7.87868ZM6.70711 7.29289L7.29289 7.87868L8.70711 6.46447L8.12132 5.87868L6.70711 7.29289ZM5.29289 7.29289C5.68342 6.90237 6.31658 6.90237 6.70711 7.29289L8.12132 5.87868C6.94975 4.70711 5.05025 4.70711 3.87868 5.87868L5.29289 7.29289ZM5.29289 8.70711C4.90237 8.31658 4.90237 7.68342 5.29289 7.29289L3.87868 5.87868C2.70711 7.05025 2.70711 8.94975 3.87868 10.1213L5.29289 8.70711ZM6.58579 10L5.29289 8.70711L3.87868 10.1213L5.17157 11.4142L6.58579 10ZM9.41421 10C8.63316 10.781 7.36684 10.781 6.58579 10L5.17157 11.4142C6.73367 12.9763 9.26633 12.9763 10.8284 11.4142L9.41421 10ZM12.7071 6.70711L9.41421 10L10.8284 11.4142L14.1213 8.12132L12.7071 6.70711ZM8 18H3.5V20H8V18ZM0 16.5C0 18.433 1.567 20 3.5 20V18C2.67157 18 2 17.3284 2 16.5H0Z" fill="#A3AED0"/>
</svg>
