<svg width="17" height="14" viewBox="0 0 17 14" fill="none" xmlns="http://www.w3.org/2000/svg">
<path d="M5.04462 7C4.12587 7.02604 3.37442 7.35938 2.79027 8H1.65035C1.1853 8 0.793981 7.89453 0.476392 7.6836C0.158797 7.47266 0 7.16407 0 6.75782C0 4.91927 0.351619 4 1.05486 4C1.08889 4 1.21224 4.05469 1.42491 4.16406C1.63758 4.27344 1.91406 4.38412 2.25434 4.4961C2.59462 4.60807 2.93206 4.66406 3.26667 4.66406C3.64664 4.66406 4.02378 4.60417 4.39809 4.48438C4.36974 4.67709 4.35556 4.84896 4.35556 5C4.35556 5.72396 4.58525 6.39062 5.04462 7ZM14.1556 11.9766C14.1556 12.6016 13.9486 13.095 13.5345 13.457C13.1205 13.819 12.5704 14 11.8842 14H4.44913C3.7629 14 3.21279 13.819 2.79879 13.457C2.38478 13.095 2.17777 12.6016 2.17777 11.9766C2.17777 11.7005 2.1877 11.431 2.20755 11.168C2.2274 10.9049 2.2671 10.6211 2.32665 10.3164C2.3862 10.0117 2.46134 9.72916 2.55208 9.46875C2.64282 9.20833 2.76475 8.95443 2.91788 8.70703C3.071 8.45963 3.24682 8.2487 3.44531 8.07422C3.64381 7.89974 3.88626 7.76042 4.17266 7.65625C4.45905 7.55208 4.77523 7.5 5.12118 7.5C5.1779 7.5 5.29983 7.55599 5.48698 7.66797C5.67413 7.77995 5.88113 7.90495 6.10798 8.04297C6.33484 8.18099 6.63825 8.30599 7.01823 8.41797C7.3982 8.52995 7.78102 8.58594 8.16667 8.58594C8.55232 8.58594 8.93513 8.52995 9.3151 8.41797C9.69508 8.30599 9.99849 8.18099 10.2254 8.04297C10.4522 7.90495 10.6592 7.77995 10.8464 7.66797C11.0335 7.55599 11.1554 7.5 11.2122 7.5C11.5581 7.5 11.8743 7.55208 12.1607 7.65625C12.4471 7.76042 12.6895 7.89974 12.888 8.07422C13.0865 8.2487 13.2623 8.45963 13.4155 8.70703C13.5686 8.95443 13.6905 9.20833 13.7813 9.46875C13.872 9.72916 13.9471 10.0117 14.0067 10.3164C14.0662 10.6211 14.1059 10.9049 14.1258 11.168C14.1456 11.431 14.1556 11.7005 14.1556 11.9766ZM5.44444 2C5.44444 2.55209 5.23177 3.02344 4.80642 3.41406C4.38107 3.80469 3.86782 4 3.26667 4C2.66551 4 2.15226 3.80469 1.72691 3.41406C1.30157 3.02344 1.08889 2.55209 1.08889 2C1.08889 1.44792 1.30157 0.976562 1.72691 0.585937C2.15226 0.195312 2.66551 0 3.26667 0C3.86782 0 4.38107 0.195312 4.80642 0.585937C5.23177 0.976562 5.44444 1.44792 5.44444 2ZM11.4333 5C11.4333 5.82813 11.1143 6.53516 10.4763 7.1211C9.83828 7.70703 9.0684 8 8.16667 8C7.26493 8 6.49505 7.70703 5.85703 7.1211C5.21901 6.53516 4.9 5.82813 4.9 5C4.9 4.17188 5.21901 3.46485 5.85703 2.87891C6.49505 2.29297 7.26493 2 8.16667 2C9.0684 2 9.83828 2.29297 10.4763 2.87891C11.1143 3.46485 11.4333 4.17188 11.4333 5ZM16.3333 6.75782C16.3333 7.16407 16.1745 7.47266 15.8569 7.6836C15.5394 7.89453 15.148 8 14.683 8H13.5431C12.9589 7.35938 12.2075 7.02604 11.2887 7C11.7481 6.39062 11.9778 5.72396 11.9778 5C11.9778 4.84896 11.9636 4.67709 11.9352 4.48438C12.3096 4.60417 12.6867 4.66406 13.0667 4.66406C13.4013 4.66406 13.7387 4.60807 14.079 4.4961C14.4193 4.38412 14.6958 4.27344 14.9084 4.16406C15.1211 4.05469 15.2444 4 15.2785 4C15.9817 4 16.3333 4.91927 16.3333 6.75782ZM15.2444 2C15.2444 2.55209 15.0318 3.02344 14.6064 3.41406C14.1811 3.80469 13.6678 4 13.0667 4C12.4655 4 11.9523 3.80469 11.5269 3.41406C11.1016 3.02344 10.8889 2.55209 10.8889 2C10.8889 1.44792 11.1016 0.976562 11.5269 0.585937C11.9523 0.195312 12.4655 0 13.0667 0C13.6678 0 14.1811 0.195312 14.6064 0.585937C15.0318 0.976562 15.2444 1.44792 15.2444 2Z" fill="#5948C8"/>
</svg>
