<svg width="18" height="14" viewBox="0 0 18 14" fill="none" xmlns="http://www.w3.org/2000/svg">
<path d="M0 10.8889V13.2222C0 13.6518 0.348227 14 0.777778 14H11.6667C12.0962 14 12.4444 13.6518 12.4444 13.2222V10.8889C12.4444 9.1707 11.0515 7.77778 9.33333 7.77778H3.11111C1.39289 7.77778 0 9.1707 0 10.8889ZM13.9875 13.4647C13.9599 13.7317 14.1487 14 14.4171 14H16.3333C16.7628 14 17.1111 13.6518 17.1111 13.2222V10.8889C17.1111 9.1707 15.7182 7.77778 14 7.77778H13.2466C13.0786 7.77778 12.9863 7.97977 13.0863 8.11487C13.6605 8.89031 14 9.84993 14 10.8889V13.2222C14 13.3041 13.9957 13.385 13.9875 13.4647ZM9.33333 3.11111C9.33333 4.82933 7.94041 6.22222 6.22222 6.22222C4.504 6.22222 3.11111 4.82933 3.11111 3.11111C3.11111 1.39289 4.504 0 6.22222 0C7.94041 0 9.33333 1.39289 9.33333 3.11111ZM10.384 6.18147C10.119 6.13822 10.0287 5.82501 10.1719 5.5979C10.6262 4.87799 10.889 4.02524 10.889 3.11111C10.889 2.19698 10.6262 1.34423 10.1719 0.62433C10.0287 0.397234 10.119 0.084031 10.384 0.040771C10.5484 0.0139455 10.7171 0 10.889 0C12.6072 0 14.0001 1.39289 14.0001 3.11111C14.0001 4.82933 12.6072 6.22222 10.889 6.22222C10.7171 6.22222 10.5484 6.2083 10.384 6.18147Z" fill="#5948C8"/>
</svg>
