<svg width="12" height="14" viewBox="0 0 12 14" fill="none" xmlns="http://www.w3.org/2000/svg">
<path d="M6.7647 11.9595C7.11284 11.9698 7.45464 12.0547 7.76669 12.2084H7.78548C8.04619 12.4211 8.09049 12.8008 7.88568 13.0671C7.51275 13.6008 6.91605 13.9373 6.2637 13.9818C5.59348 14.0617 4.91854 13.8762 4.38497 13.4654C4.11056 13.2772 3.93224 12.9796 3.8965 12.6502C3.8965 12.3018 4.22215 12.14 4.52275 12.0715C4.87483 11.9974 5.23372 11.9598 5.59362 11.9595H6.7647ZM5.97563 0C8.14244 0 10.3781 1.56805 10.6098 3.83924C10.6474 4.30593 10.6098 4.79128 10.6474 5.26418C10.7704 5.87403 11.0534 6.44075 11.4678 6.9069C11.7254 7.29 11.8747 7.73487 11.9 8.19495V8.33806C11.9038 8.95887 11.6813 9.56008 11.2737 10.0306C10.757 10.583 10.056 10.9302 9.30099 11.0075C7.07038 11.2937 4.81199 11.2937 2.58139 11.0075C1.81751 10.936 1.10663 10.5884 0.583671 10.0306C0.188809 9.55557 -0.0182512 8.95384 0.00126373 8.33806V8.19495C0.0257026 7.73659 0.170349 7.29256 0.420847 6.9069C0.837096 6.44032 1.12412 5.87423 1.25375 5.26418C1.29133 4.79128 1.25375 4.31215 1.29133 3.83924C1.5293 1.56805 3.72115 0 5.91301 0H5.97563Z" fill="#5948C8"/>
</svg>
