<svg width="14" height="14" viewBox="0 0 14 14" fill="none" xmlns="http://www.w3.org/2000/svg">
<path d="M7 0C3.13438 0 0 3.13438 0 7C0 10.8656 3.13438 14 7 14C10.8656 14 14 10.8656 14 7C14 3.13438 10.8656 0 7 0ZM7.63125 10.2094C7.61563 10.7656 7.20312 11.1094 6.66875 11.0938C6.15625 11.0781 5.75313 10.7125 5.76875 10.1531C5.78438 9.59688 6.20938 9.24375 6.72188 9.25937C7.25938 9.275 7.65 9.65313 7.63125 10.2094ZM9.15312 6.23125C9.02187 6.41562 8.72812 6.65313 8.35938 6.94063L7.95 7.22188C7.75 7.375 7.625 7.55625 7.55937 7.7625C7.525 7.87187 7.5 8.15625 7.49375 8.34688C7.49062 8.38438 7.46875 8.46875 7.35312 8.46875H6.13125C6.00312 8.46875 5.9875 8.39375 5.99062 8.35625C6.00938 7.8375 6.08438 7.40938 6.3 7.06563C6.59063 6.60313 7.40938 6.11562 7.40938 6.11562C7.53438 6.02187 7.63125 5.92188 7.70625 5.8125C7.84375 5.625 7.95625 5.41563 7.95625 5.19063C7.95625 4.93125 7.89375 4.68438 7.72812 4.47813C7.53437 4.2375 7.325 4.12187 6.92188 4.12187C6.525 4.12187 6.29375 4.32188 6.12813 4.58437C5.9625 4.84687 5.99062 5.15625 5.99062 5.4375H4.46875C4.46875 4.375 4.74687 3.69688 5.33437 3.29688C5.73125 3.025 6.2375 2.90625 6.82812 2.90625C7.60313 2.90625 8.21875 3.05 8.7625 3.4625C9.26562 3.84375 9.53125 4.38125 9.53125 5.10625C9.53125 5.55312 9.375 5.92812 9.15312 6.23125Z" fill="#5948C8"/>
</svg>
