<svg width="14" height="14" viewBox="0 0 14 14" fill="none" xmlns="http://www.w3.org/2000/svg">
<path d="M3.82112 8.85284C4.76173 8.77703 5.70667 8.77703 6.64729 8.85284C7.1595 8.8827 7.66929 8.94677 8.17342 9.04466C9.26432 9.26554 9.97652 9.62594 10.2817 10.2072C10.511 10.6609 10.511 11.2009 10.2817 11.6546C9.97652 12.2359 9.29258 12.6195 8.16212 12.8171C7.65838 12.9187 7.14848 12.9848 6.63598 13.0148C6.16119 13.0671 5.68639 13.0671 5.20594 13.0671H4.34114C4.16026 13.0438 3.98504 13.0322 3.81547 13.0322C3.30295 13.0059 2.79294 12.9417 2.28934 12.8404C1.19844 12.6311 0.486241 12.2591 0.181015 11.6778C0.0631867 11.4527 0.00106763 11.2011 6.80912e-05 10.9454C-0.00231569 10.6882 0.0579248 10.4344 0.175363 10.2072C0.474937 9.62594 1.18713 9.24811 2.28934 9.04466C2.79516 8.94537 3.30691 8.88129 3.82112 8.85284ZM5.22855 0C7.12342 0 8.65952 1.5797 8.65952 3.52835C8.65952 5.477 7.12342 7.05669 5.22855 7.05669C3.33368 7.05669 1.79758 5.477 1.79758 3.52835C1.79758 1.5797 3.33368 0 5.22855 0Z" fill="#5948C8"/>
<path d="M9.89086 6.71289C8.1348 6.71289 6.71387 8.13382 6.71387 9.88988C6.71387 11.6459 8.1348 13.0669 9.89086 13.0669C11.6469 13.0669 13.0679 11.6459 13.0679 9.88988C13.0679 8.13382 11.6469 6.71289 9.89086 6.71289ZM11.419 9.84296C11.1576 10.1446 10.7555 10.2518 10.3734 10.1714L8.9324 11.8202L8.3962 11.8403C8.31577 11.847 8.20853 11.7532 8.20183 11.6728L8.1348 11.0092L8.1415 11.0025L8.53695 10.9891L8.49674 10.6071L8.87878 10.5936L8.84527 10.2116L9.25412 10.158L9.22731 9.74243L9.51552 9.414C9.37477 9.04537 9.42839 8.62311 9.68978 8.31479C10.0852 7.85902 10.7421 7.78529 11.218 8.20755C11.6871 8.62981 11.8145 9.3939 11.419 9.84296Z" fill="#5948C8"/>
<path fill-rule="evenodd" clip-rule="evenodd" d="M10.7142 9.23056C10.7177 9.22215 10.7251 9.19556 10.7178 9.14155C10.7054 9.0512 10.6577 8.96022 10.5958 8.9033C10.5688 8.87992 10.5481 8.87051 10.536 8.86641C10.523 8.86205 10.5116 8.86094 10.5005 8.86186C10.481 8.86347 10.442 8.87391 10.3989 8.9213C10.3775 8.94894 10.3583 9.00494 10.3873 9.08084L10.4452 9.23248L10.5655 9.25782C10.6115 9.2675 10.6486 9.26357 10.6723 9.25644C10.6934 9.25008 10.7048 9.2414 10.7135 9.23145L10.7142 9.23056ZM9.22708 9.7422L9.51529 9.41377C9.37454 9.04514 9.42816 8.62288 9.68955 8.31456C10.085 7.85879 10.7418 7.78506 11.2177 8.20732C11.6869 8.62958 11.8142 9.39367 11.4188 9.84273C11.1574 10.1443 10.7553 10.2516 10.3732 10.1712L9.13148 11.5919L8.93217 11.82L8.39597 11.8401C8.31554 11.8468 8.2083 11.753 8.2016 11.6725L8.13457 11.009L8.14127 11.0023L8.53672 10.9889L8.49651 10.6068L8.87855 10.5934L8.84504 10.2114L9.25389 10.1578L9.22708 9.7422ZM8.54411 12.7685C8.95284 12.9598 9.40914 13.0666 9.89063 13.0666C11.6467 13.0666 13.0676 11.6457 13.0676 9.88965C13.0676 8.13359 11.6467 6.71266 9.89063 6.71266C8.13457 6.71266 6.71364 8.13359 6.71364 9.88965C6.71364 10.5535 6.91668 11.1694 7.26411 11.6788C7.2797 11.7016 7.29557 11.7243 7.31173 11.7467C7.31526 11.7516 7.31881 11.7565 7.32236 11.7613C7.61147 12.1576 7.9901 12.4842 8.42865 12.7116C8.4425 12.7188 8.4564 12.7259 8.47037 12.7329C8.49477 12.7451 8.51936 12.757 8.54411 12.7685ZM5.78027 9.88965C5.78027 7.61811 7.61909 5.7793 9.89063 5.7793C12.1622 5.7793 14.001 7.61811 14.001 9.88965C14.001 12.1612 12.1622 14 9.89063 14C7.61909 14 5.78027 12.1612 5.78027 9.88965Z" fill="white"/>
</svg>
