<svg width="12" height="14" viewBox="0 0 12 14" fill="none" xmlns="http://www.w3.org/2000/svg">
<path d="M4.09392 9.48487C5.10169 9.40366 6.1141 9.40366 7.12186 9.48487C7.67065 9.51687 8.21683 9.58552 8.75695 9.69039C9.92574 9.92705 10.6888 10.3132 11.0158 10.9359C11.2614 11.422 11.2614 12.0006 11.0158 12.4867C10.6888 13.1094 9.95602 13.5205 8.74484 13.7322C8.20514 13.841 7.65884 13.9118 7.10975 13.944C6.60106 14 6.09236 14 5.57761 14H4.65107C4.45728 13.9751 4.26955 13.9626 4.08787 13.9626C3.53876 13.9344 2.99234 13.8657 2.45278 13.7571C1.284 13.5329 0.520956 13.1343 0.193938 12.5116C0.0676978 12.2703 0.00114386 12.0008 7.29525e-05 11.7269C-0.00248102 11.4512 0.0620602 11.1793 0.187883 10.9359C0.508844 10.3132 1.27188 9.90836 2.45278 9.69039C2.99471 9.58402 3.54301 9.51536 4.09392 9.48487ZM5.60184 0C7.63199 0 9.27776 1.69248 9.27776 3.78025C9.27776 5.86802 7.63199 7.5605 5.60184 7.5605C3.57168 7.5605 1.92592 5.86802 1.92592 3.78025C1.92592 1.69248 3.57168 0 5.60184 0Z" fill="#5948C8"/>
</svg>
