<svg width="53" height="44" viewBox="0 0 53 44" fill="none" xmlns="http://www.w3.org/2000/svg">
<ellipse cx="27.4749" cy="9.53455" rx="7.35938" ry="7.35938" stroke="#427272" stroke-width="4" stroke-linecap="round"/>
<path d="M42.1937 34.0658C42.1937 40.8399 34.249 41.4252 27.4749 41.4252C20.7008 41.4252 12.7562 40.8399 12.7562 34.0658C12.7562 27.2917 20.7008 21.8002 27.4749 21.8002C34.249 21.8002 42.1937 27.2917 42.1937 34.0658Z" stroke="#427272" stroke-width="4" stroke-linecap="round"/>
<path d="M40.7238 17.7808C44.3557 17.7808 47.2999 14.8365 47.2999 11.2046C47.2999 7.57274 44.3557 4.62851 40.7238 4.62851" stroke="#427272" stroke-width="4" stroke-linecap="round"/>
<path d="M50.588 31.6105C50.588 25.8059 46.2358 20.7038 40.7238 17.7784" stroke="#427272" stroke-width="4" stroke-linecap="round"/>
<path d="M12.8141 17.7808C9.18216 17.7808 6.23793 14.8365 6.23793 11.2046C6.23793 7.57274 9.18216 4.62851 12.8141 4.62851" stroke="#427272" stroke-width="4" stroke-linecap="round"/>
<path d="M2.94987 31.6105C2.94987 25.8059 7.30202 20.7038 12.8141 17.7784" stroke="#427272" stroke-width="4" stroke-linecap="round"/>
</svg>
