<svg width="46" height="44" viewBox="0 0 46 44" fill="none" xmlns="http://www.w3.org/2000/svg">
<mask id="path-1-outside-1_2348_301" maskUnits="userSpaceOnUse" x="0" y="0" width="46" height="44" fill="black">
<rect fill="white" width="46" height="44"/>
<path d="M14.4106 32.2953C15.9273 31.2952 16.9312 29.5748 16.9312 27.6228C16.9312 24.5408 14.43 22.0333 11.3556 22.0333C8.28114 22.0333 5.77993 24.5408 5.77993 27.6228C5.77993 29.5747 6.78385 31.2952 8.30048 32.2953C4.07699 33.6052 1 37.5568 1 42.2155C1 42.3983 1.07243 42.5736 1.20136 42.7029C1.3303 42.8321 1.50516 42.9048 1.6875 42.9048H21.0234C21.2058 42.9048 21.3806 42.8321 21.5096 42.7029C21.6385 42.5736 21.7109 42.3983 21.7109 42.2155C21.7109 37.5569 18.634 33.6053 14.4106 32.2953ZM7.15493 27.6228C7.15493 25.3008 9.03928 23.4117 11.3556 23.4117C13.6718 23.4117 15.5562 25.3008 15.5562 27.6228C15.5562 29.9445 13.6724 31.8334 11.3567 31.834H11.3545C9.03868 31.8334 7.15493 29.9446 7.15493 27.6228ZM2.40104 41.5263C2.75321 36.8831 6.63423 33.2131 11.3544 33.2125H11.3566C16.0767 33.2131 19.9576 36.8831 20.3098 41.5263H2.40104ZM37.6996 32.2953C39.2162 31.2952 40.2202 29.5748 40.2202 27.6228C40.2202 24.5408 37.7189 22.0333 34.6446 22.0333C31.5702 22.0333 29.069 24.5408 29.069 27.6228C29.069 29.5747 30.0729 31.2952 31.5895 32.2953C27.3661 33.6052 24.2891 37.5568 24.2891 42.2155C24.2891 42.3983 24.3615 42.5736 24.4904 42.7029C24.6194 42.8321 24.7942 42.9048 24.9766 42.9048H44.3125C44.4948 42.9048 44.6697 42.8321 44.7986 42.7029C44.9276 42.5736 45 42.3983 45 42.2155C45 37.5569 41.9231 33.6053 37.6996 32.2953ZM30.444 27.6228C30.444 25.3008 32.3283 23.4117 34.6446 23.4117C36.9608 23.4117 38.8452 25.3008 38.8452 27.6228C38.8452 29.9445 36.9614 31.8334 34.6456 31.834H34.6435C32.3277 31.8334 30.444 29.9446 30.444 27.6228ZM25.6901 41.5263C26.0423 36.8831 29.9233 33.2131 34.6434 33.2125H34.6456C39.3658 33.2131 43.2467 36.8831 43.5989 41.5263H25.6901ZM6.0912 13.519H7.82172L10.1474 18.793C10.2013 18.9151 10.2894 19.0188 10.401 19.0917C10.5127 19.1645 10.643 19.2033 10.7762 19.2033C10.9094 19.2033 11.0397 19.1645 11.1513 19.0917C11.2629 19.0188 11.3511 18.9151 11.405 18.793L13.7306 13.519H32.2695L34.5952 18.793C34.6491 18.9151 34.7372 19.0188 34.8489 19.0917C34.9605 19.1645 35.0908 19.2033 35.224 19.2033C35.3572 19.2033 35.4875 19.1645 35.5991 19.0917C35.7108 19.0188 35.7989 18.9151 35.8528 18.793L38.1785 13.519H39.909C41.2358 13.519 42.3152 12.4368 42.3152 11.1067V3.4123C42.3152 2.08218 41.2358 1 39.909 1H6.0912C4.76441 1 3.68495 2.08218 3.68495 3.4123V11.1068C3.68495 12.4368 4.76441 13.519 6.0912 13.519ZM5.05995 3.4123C5.05995 2.84222 5.52255 2.37846 6.0912 2.37846H39.9089C40.4775 2.37846 40.9401 2.84222 40.9401 3.4123V11.1068C40.9401 11.6768 40.4775 12.1406 39.9089 12.1406H37.7307C37.5975 12.1406 37.4672 12.1794 37.3555 12.2523C37.2439 12.3252 37.1558 12.429 37.1019 12.5511L35.2239 16.8098L33.346 12.5512C33.2922 12.4291 33.2041 12.3252 33.0924 12.2523C32.9808 12.1794 32.8504 12.1406 32.7172 12.1406H13.2829C13.1497 12.1406 13.0193 12.1794 12.9077 12.2523C12.796 12.3252 12.7079 12.4291 12.6541 12.5512L10.7762 16.8098L8.89826 12.5512C8.84439 12.4291 8.75629 12.3252 8.64466 12.2523C8.53303 12.1794 8.40268 12.1406 8.26945 12.1406H6.0912C5.52255 12.1406 5.05995 11.6768 5.05995 11.1068V3.4123ZM9.33594 7.25949C9.33594 7.07669 9.40837 6.90139 9.5373 6.77213C9.66623 6.64288 9.8411 6.57026 10.0234 6.57026H18.1486C18.3309 6.57026 18.5058 6.64288 18.6347 6.77213C18.7636 6.90139 18.8361 7.07669 18.8361 7.25949C18.8361 7.44228 18.7636 7.61759 18.6347 7.74685C18.5058 7.8761 18.3309 7.94872 18.1486 7.94872H10.0234C9.8411 7.94872 9.66623 7.8761 9.5373 7.74685C9.40837 7.61759 9.33594 7.44228 9.33594 7.25949ZM30.8994 7.25949C30.8994 7.07669 30.9718 6.90139 31.1007 6.77213C31.2297 6.64288 31.4045 6.57026 31.5869 6.57026H35.9766C36.1589 6.57026 36.3338 6.64288 36.4627 6.77213C36.5916 6.90139 36.6641 7.07669 36.6641 7.25949C36.6641 7.44228 36.5916 7.61759 36.4627 7.74685C36.3338 7.8761 36.1589 7.94872 35.9766 7.94872H31.5869C31.4045 7.94872 31.2297 7.8761 31.1007 7.74685C30.9718 7.61759 30.8994 7.44228 30.8994 7.25949ZM21.459 7.25949C21.459 7.07669 21.5314 6.90139 21.6603 6.77213C21.7893 6.64288 21.9641 6.57026 22.1465 6.57026H28.0075C28.1898 6.57026 28.3647 6.64288 28.4936 6.77213C28.6226 6.90139 28.695 7.07669 28.695 7.25949C28.695 7.44228 28.6226 7.61759 28.4936 7.74685C28.3647 7.8761 28.1898 7.94872 28.0075 7.94872H22.1465C21.9641 7.94872 21.7893 7.8761 21.6603 7.74685C21.5314 7.61759 21.459 7.44228 21.459 7.25949Z"/>
</mask>
<path d="M14.4106 32.2953C15.9273 31.2952 16.9312 29.5748 16.9312 27.6228C16.9312 24.5408 14.43 22.0333 11.3556 22.0333C8.28114 22.0333 5.77993 24.5408 5.77993 27.6228C5.77993 29.5747 6.78385 31.2952 8.30048 32.2953C4.07699 33.6052 1 37.5568 1 42.2155C1 42.3983 1.07243 42.5736 1.20136 42.7029C1.3303 42.8321 1.50516 42.9048 1.6875 42.9048H21.0234C21.2058 42.9048 21.3806 42.8321 21.5096 42.7029C21.6385 42.5736 21.7109 42.3983 21.7109 42.2155C21.7109 37.5569 18.634 33.6053 14.4106 32.2953ZM7.15493 27.6228C7.15493 25.3008 9.03928 23.4117 11.3556 23.4117C13.6718 23.4117 15.5562 25.3008 15.5562 27.6228C15.5562 29.9445 13.6724 31.8334 11.3567 31.834H11.3545C9.03868 31.8334 7.15493 29.9446 7.15493 27.6228ZM2.40104 41.5263C2.75321 36.8831 6.63423 33.2131 11.3544 33.2125H11.3566C16.0767 33.2131 19.9576 36.8831 20.3098 41.5263H2.40104ZM37.6996 32.2953C39.2162 31.2952 40.2202 29.5748 40.2202 27.6228C40.2202 24.5408 37.7189 22.0333 34.6446 22.0333C31.5702 22.0333 29.069 24.5408 29.069 27.6228C29.069 29.5747 30.0729 31.2952 31.5895 32.2953C27.3661 33.6052 24.2891 37.5568 24.2891 42.2155C24.2891 42.3983 24.3615 42.5736 24.4904 42.7029C24.6194 42.8321 24.7942 42.9048 24.9766 42.9048H44.3125C44.4948 42.9048 44.6697 42.8321 44.7986 42.7029C44.9276 42.5736 45 42.3983 45 42.2155C45 37.5569 41.9231 33.6053 37.6996 32.2953ZM30.444 27.6228C30.444 25.3008 32.3283 23.4117 34.6446 23.4117C36.9608 23.4117 38.8452 25.3008 38.8452 27.6228C38.8452 29.9445 36.9614 31.8334 34.6456 31.834H34.6435C32.3277 31.8334 30.444 29.9446 30.444 27.6228ZM25.6901 41.5263C26.0423 36.8831 29.9233 33.2131 34.6434 33.2125H34.6456C39.3658 33.2131 43.2467 36.8831 43.5989 41.5263H25.6901ZM6.0912 13.519H7.82172L10.1474 18.793C10.2013 18.9151 10.2894 19.0188 10.401 19.0917C10.5127 19.1645 10.643 19.2033 10.7762 19.2033C10.9094 19.2033 11.0397 19.1645 11.1513 19.0917C11.2629 19.0188 11.3511 18.9151 11.405 18.793L13.7306 13.519H32.2695L34.5952 18.793C34.6491 18.9151 34.7372 19.0188 34.8489 19.0917C34.9605 19.1645 35.0908 19.2033 35.224 19.2033C35.3572 19.2033 35.4875 19.1645 35.5991 19.0917C35.7108 19.0188 35.7989 18.9151 35.8528 18.793L38.1785 13.519H39.909C41.2358 13.519 42.3152 12.4368 42.3152 11.1067V3.4123C42.3152 2.08218 41.2358 1 39.909 1H6.0912C4.76441 1 3.68495 2.08218 3.68495 3.4123V11.1068C3.68495 12.4368 4.76441 13.519 6.0912 13.519ZM5.05995 3.4123C5.05995 2.84222 5.52255 2.37846 6.0912 2.37846H39.9089C40.4775 2.37846 40.9401 2.84222 40.9401 3.4123V11.1068C40.9401 11.6768 40.4775 12.1406 39.9089 12.1406H37.7307C37.5975 12.1406 37.4672 12.1794 37.3555 12.2523C37.2439 12.3252 37.1558 12.429 37.1019 12.5511L35.2239 16.8098L33.346 12.5512C33.2922 12.4291 33.2041 12.3252 33.0924 12.2523C32.9808 12.1794 32.8504 12.1406 32.7172 12.1406H13.2829C13.1497 12.1406 13.0193 12.1794 12.9077 12.2523C12.796 12.3252 12.7079 12.4291 12.6541 12.5512L10.7762 16.8098L8.89826 12.5512C8.84439 12.4291 8.75629 12.3252 8.64466 12.2523C8.53303 12.1794 8.40268 12.1406 8.26945 12.1406H6.0912C5.52255 12.1406 5.05995 11.6768 5.05995 11.1068V3.4123ZM9.33594 7.25949C9.33594 7.07669 9.40837 6.90139 9.5373 6.77213C9.66623 6.64288 9.8411 6.57026 10.0234 6.57026H18.1486C18.3309 6.57026 18.5058 6.64288 18.6347 6.77213C18.7636 6.90139 18.8361 7.07669 18.8361 7.25949C18.8361 7.44228 18.7636 7.61759 18.6347 7.74685C18.5058 7.8761 18.3309 7.94872 18.1486 7.94872H10.0234C9.8411 7.94872 9.66623 7.8761 9.5373 7.74685C9.40837 7.61759 9.33594 7.44228 9.33594 7.25949ZM30.8994 7.25949C30.8994 7.07669 30.9718 6.90139 31.1007 6.77213C31.2297 6.64288 31.4045 6.57026 31.5869 6.57026H35.9766C36.1589 6.57026 36.3338 6.64288 36.4627 6.77213C36.5916 6.90139 36.6641 7.07669 36.6641 7.25949C36.6641 7.44228 36.5916 7.61759 36.4627 7.74685C36.3338 7.8761 36.1589 7.94872 35.9766 7.94872H31.5869C31.4045 7.94872 31.2297 7.8761 31.1007 7.74685C30.9718 7.61759 30.8994 7.44228 30.8994 7.25949ZM21.459 7.25949C21.459 7.07669 21.5314 6.90139 21.6603 6.77213C21.7893 6.64288 21.9641 6.57026 22.1465 6.57026H28.0075C28.1898 6.57026 28.3647 6.64288 28.4936 6.77213C28.6226 6.90139 28.695 7.07669 28.695 7.25949C28.695 7.44228 28.6226 7.61759 28.4936 7.74685C28.3647 7.8761 28.1898 7.94872 28.0075 7.94872H22.1465C21.9641 7.94872 21.7893 7.8761 21.6603 7.74685C21.5314 7.61759 21.459 7.44228 21.459 7.25949Z" fill="#427272"/>
<path d="M14.4106 32.2953C15.9273 31.2952 16.9312 29.5748 16.9312 27.6228C16.9312 24.5408 14.43 22.0333 11.3556 22.0333C8.28114 22.0333 5.77993 24.5408 5.77993 27.6228C5.77993 29.5747 6.78385 31.2952 8.30048 32.2953C4.07699 33.6052 1 37.5568 1 42.2155C1 42.3983 1.07243 42.5736 1.20136 42.7029C1.3303 42.8321 1.50516 42.9048 1.6875 42.9048H21.0234C21.2058 42.9048 21.3806 42.8321 21.5096 42.7029C21.6385 42.5736 21.7109 42.3983 21.7109 42.2155C21.7109 37.5569 18.634 33.6053 14.4106 32.2953ZM7.15493 27.6228C7.15493 25.3008 9.03928 23.4117 11.3556 23.4117C13.6718 23.4117 15.5562 25.3008 15.5562 27.6228C15.5562 29.9445 13.6724 31.8334 11.3567 31.834H11.3545C9.03868 31.8334 7.15493 29.9446 7.15493 27.6228ZM2.40104 41.5263C2.75321 36.8831 6.63423 33.2131 11.3544 33.2125H11.3566C16.0767 33.2131 19.9576 36.8831 20.3098 41.5263H2.40104ZM37.6996 32.2953C39.2162 31.2952 40.2202 29.5748 40.2202 27.6228C40.2202 24.5408 37.7189 22.0333 34.6446 22.0333C31.5702 22.0333 29.069 24.5408 29.069 27.6228C29.069 29.5747 30.0729 31.2952 31.5895 32.2953C27.3661 33.6052 24.2891 37.5568 24.2891 42.2155C24.2891 42.3983 24.3615 42.5736 24.4904 42.7029C24.6194 42.8321 24.7942 42.9048 24.9766 42.9048H44.3125C44.4948 42.9048 44.6697 42.8321 44.7986 42.7029C44.9276 42.5736 45 42.3983 45 42.2155C45 37.5569 41.9231 33.6053 37.6996 32.2953ZM30.444 27.6228C30.444 25.3008 32.3283 23.4117 34.6446 23.4117C36.9608 23.4117 38.8452 25.3008 38.8452 27.6228C38.8452 29.9445 36.9614 31.8334 34.6456 31.834H34.6435C32.3277 31.8334 30.444 29.9446 30.444 27.6228ZM25.6901 41.5263C26.0423 36.8831 29.9233 33.2131 34.6434 33.2125H34.6456C39.3658 33.2131 43.2467 36.8831 43.5989 41.5263H25.6901ZM6.0912 13.519H7.82172L10.1474 18.793C10.2013 18.9151 10.2894 19.0188 10.401 19.0917C10.5127 19.1645 10.643 19.2033 10.7762 19.2033C10.9094 19.2033 11.0397 19.1645 11.1513 19.0917C11.2629 19.0188 11.3511 18.9151 11.405 18.793L13.7306 13.519H32.2695L34.5952 18.793C34.6491 18.9151 34.7372 19.0188 34.8489 19.0917C34.9605 19.1645 35.0908 19.2033 35.224 19.2033C35.3572 19.2033 35.4875 19.1645 35.5991 19.0917C35.7108 19.0188 35.7989 18.9151 35.8528 18.793L38.1785 13.519H39.909C41.2358 13.519 42.3152 12.4368 42.3152 11.1067V3.4123C42.3152 2.08218 41.2358 1 39.909 1H6.0912C4.76441 1 3.68495 2.08218 3.68495 3.4123V11.1068C3.68495 12.4368 4.76441 13.519 6.0912 13.519ZM5.05995 3.4123C5.05995 2.84222 5.52255 2.37846 6.0912 2.37846H39.9089C40.4775 2.37846 40.9401 2.84222 40.9401 3.4123V11.1068C40.9401 11.6768 40.4775 12.1406 39.9089 12.1406H37.7307C37.5975 12.1406 37.4672 12.1794 37.3555 12.2523C37.2439 12.3252 37.1558 12.429 37.1019 12.5511L35.2239 16.8098L33.346 12.5512C33.2922 12.4291 33.2041 12.3252 33.0924 12.2523C32.9808 12.1794 32.8504 12.1406 32.7172 12.1406H13.2829C13.1497 12.1406 13.0193 12.1794 12.9077 12.2523C12.796 12.3252 12.7079 12.4291 12.6541 12.5512L10.7762 16.8098L8.89826 12.5512C8.84439 12.4291 8.75629 12.3252 8.64466 12.2523C8.53303 12.1794 8.40268 12.1406 8.26945 12.1406H6.0912C5.52255 12.1406 5.05995 11.6768 5.05995 11.1068V3.4123ZM9.33594 7.25949C9.33594 7.07669 9.40837 6.90139 9.5373 6.77213C9.66623 6.64288 9.8411 6.57026 10.0234 6.57026H18.1486C18.3309 6.57026 18.5058 6.64288 18.6347 6.77213C18.7636 6.90139 18.8361 7.07669 18.8361 7.25949C18.8361 7.44228 18.7636 7.61759 18.6347 7.74685C18.5058 7.8761 18.3309 7.94872 18.1486 7.94872H10.0234C9.8411 7.94872 9.66623 7.8761 9.5373 7.74685C9.40837 7.61759 9.33594 7.44228 9.33594 7.25949ZM30.8994 7.25949C30.8994 7.07669 30.9718 6.90139 31.1007 6.77213C31.2297 6.64288 31.4045 6.57026 31.5869 6.57026H35.9766C36.1589 6.57026 36.3338 6.64288 36.4627 6.77213C36.5916 6.90139 36.6641 7.07669 36.6641 7.25949C36.6641 7.44228 36.5916 7.61759 36.4627 7.74685C36.3338 7.8761 36.1589 7.94872 35.9766 7.94872H31.5869C31.4045 7.94872 31.2297 7.8761 31.1007 7.74685C30.9718 7.61759 30.8994 7.44228 30.8994 7.25949ZM21.459 7.25949C21.459 7.07669 21.5314 6.90139 21.6603 6.77213C21.7893 6.64288 21.9641 6.57026 22.1465 6.57026H28.0075C28.1898 6.57026 28.3647 6.64288 28.4936 6.77213C28.6226 6.90139 28.695 7.07669 28.695 7.25949C28.695 7.44228 28.6226 7.61759 28.4936 7.74685C28.3647 7.8761 28.1898 7.94872 28.0075 7.94872H22.1465C21.9641 7.94872 21.7893 7.8761 21.6603 7.74685C21.5314 7.61759 21.459 7.44228 21.459 7.25949Z" stroke="#427272" stroke-width="1.6" mask="url(#path-1-outside-1_2348_301)"/>
</svg>
