<svg width="46" height="46" viewBox="0 0 46 46" fill="none" xmlns="http://www.w3.org/2000/svg">
<path d="M16 19.5H5.5C3.56625 19.5 2 17.9338 2 16V5.5C2 3.56625 3.56625 2 5.5 2H16C17.9338 2 19.5 3.56625 19.5 5.5V16C19.5 17.9338 17.9338 19.5 16 19.5ZM40.5 19.5H30C28.0662 19.5 26.5 17.9338 26.5 16V5.5C26.5 3.56625 28.0662 2 30 2H40.5C42.4338 2 44 3.56625 44 5.5V16C44 17.9338 42.4338 19.5 40.5 19.5ZM16 44H5.5C3.56625 44 2 42.4338 2 40.5V30C2 28.0662 3.56625 26.5 5.5 26.5H16C17.9338 26.5 19.5 28.0662 19.5 30V40.5C19.5 42.4338 17.9338 44 16 44ZM40.5 44H30C28.0662 44 26.5 42.4338 26.5 40.5V30C26.5 28.0662 28.0662 26.5 30 26.5H40.5C42.4338 26.5 44 28.0662 44 30V40.5C44 42.4338 42.4338 44 40.5 44Z" stroke="#427272" stroke-width="3" stroke-miterlimit="10" stroke-linecap="round" stroke-linejoin="round"/>
</svg>
