<svg width="43" height="43" viewBox="0 0 43 43" fill="none" xmlns="http://www.w3.org/2000/svg">
<path d="M35.9615 38.6685C35.6497 40.0326 34.4362 41 33.0369 41H9.96308C8.56377 41 7.35031 40.0326 7.03851 38.6685L2.20265 17.5116C2.07052 16.9335 2.11266 16.3293 2.32376 15.7751L6.83542 3.93201C7.27857 2.76874 8.39407 2 9.63888 2H33.3611C34.6059 2 35.7214 2.76875 36.1646 3.93201L40.6762 15.7751C40.8873 16.3293 40.9295 16.9335 40.7974 17.5116L35.9615 38.6685Z" stroke="#427272" stroke-width="3.5"/>
<path d="M2 15.4062L6.16789 19.5741C6.55842 19.9647 7.19158 19.9647 7.58211 19.5741L11.0429 16.1134C11.4334 15.7228 12.0666 15.7228 12.4571 16.1134L15.9179 19.5741C16.3084 19.9647 16.9416 19.9647 17.3321 19.5741L20.7929 16.1134C21.1834 15.7228 21.8166 15.7228 22.2071 16.1134L25.6679 19.5741C26.0584 19.9647 26.6916 19.9647 27.0821 19.5741L30.5429 16.1134C30.9334 15.7228 31.5666 15.7228 31.9571 16.1134L35.4179 19.5741C35.8084 19.9647 36.4416 19.9647 36.8321 19.5741L41 15.4062" stroke="#427272" stroke-width="3.5"/>
<path d="M17.3563 31.8125C17.3563 30.1556 18.6994 28.8125 20.3563 28.8125H24.1063C25.7631 28.8125 27.1063 30.1556 27.1063 31.8125V41H17.3563V31.8125Z" stroke="#427272" stroke-width="3.5"/>
</svg>
