<svg width="43" height="47" viewBox="0 0 43 47" fill="none" xmlns="http://www.w3.org/2000/svg">
<path d="M2.19989 17.9186H40.5215" stroke="#427272" stroke-width="3" stroke-linecap="round" stroke-linejoin="round"/>
<path d="M30.9004 26.3164H30.9157" stroke="#427272" stroke-width="3" stroke-linecap="round" stroke-linejoin="round"/>
<path d="M30.9004 34.6713H30.9157" stroke="#427272" stroke-width="3" stroke-linecap="round" stroke-linejoin="round"/>
<path d="M30.0446 2V9.07564" stroke="#427272" stroke-width="3" stroke-linecap="round" stroke-linejoin="round"/>
<path d="M12.6768 2V9.07564" stroke="#427272" stroke-width="3" stroke-linecap="round" stroke-linejoin="round"/>
<path fill-rule="evenodd" clip-rule="evenodd" d="M30.4622 5.39523H12.2576C5.94368 5.39523 2 8.91249 2 15.3777V34.8344C2 41.4013 5.94368 44.9999 12.2576 44.9999H30.4423C36.7761 44.9999 40.7 41.4623 40.7 34.9971V15.3777C40.7198 8.91249 36.796 5.39523 30.4622 5.39523Z" stroke="#427272" stroke-width="3" stroke-linecap="round" stroke-linejoin="round"/>
<path d="M22.345 23.4335L22.3452 23.4333C22.5389 23.2396 22.8016 23.1308 23.0755 23.1308C23.3494 23.1308 23.6121 23.2396 23.8058 23.4333C23.9995 23.627 24.1083 23.8897 24.1083 24.1636C24.1083 24.4375 23.9995 24.7002 23.8058 24.8939L13.6359 35.0916C13.7968 35.4529 13.8818 35.8438 13.8854 36.2398L13.8854 36.2407C13.8854 36.8117 13.7161 37.3699 13.3988 37.8447C13.0816 38.3195 12.6307 38.6895 12.1032 38.908C11.5756 39.1265 10.9951 39.1837 10.4351 39.0723C9.87508 38.9609 9.36066 38.6859 8.9569 38.2822C8.55314 37.8784 8.27818 37.364 8.16678 36.804C8.05538 36.2439 8.11255 35.6635 8.33107 35.1359C8.54958 34.6084 8.91962 34.1575 9.39439 33.8403C9.86914 33.523 10.4273 33.3537 10.9983 33.3537C10.9983 33.3537 10.9983 33.3537 10.9983 33.3537V33.4537C11.4199 33.4534 11.836 33.5487 12.2153 33.7324L22.345 23.4335ZM22.345 23.4335L16.5816 29.2244L13.6359 26.2697L22.345 23.4335ZM15.1304 30.6669L12.1942 33.612L13.516 26.291C13.6938 25.9166 13.7858 25.5071 13.7854 25.0926H13.8854C13.8854 25.0926 13.8854 25.0925 13.8854 25.0925C13.8854 24.5215 13.716 23.9634 13.3988 23.4887C13.0816 23.0139 12.6307 22.6438 12.1032 22.4253C11.5756 22.2068 10.9951 22.1497 10.4351 22.261C9.87508 22.3724 9.36066 22.6474 8.9569 23.0512C8.55314 23.4549 8.27818 23.9693 8.16678 24.5294C8.05538 25.0894 8.11255 25.6699 8.33107 26.1974C8.54958 26.725 8.91962 27.1759 9.39439 27.4931C9.86916 27.8103 10.4273 27.9796 10.9983 27.9796L10.9989 27.9796C11.4053 27.9772 11.8063 27.8891 12.1758 27.7212L15.1304 30.6669ZM10.9983 25.9216C10.8344 25.9216 10.6741 25.873 10.5378 25.7819C10.4014 25.6908 10.2952 25.5613 10.2324 25.4099C10.1697 25.2584 10.1533 25.0917 10.1853 24.9309C10.2172 24.7701 10.2962 24.6223 10.4121 24.5064C10.5281 24.3905 10.6758 24.3115 10.8366 24.2795C10.9974 24.2475 11.1641 24.264 11.3156 24.3267C11.4671 24.3894 11.5965 24.4957 11.6876 24.632C11.7787 24.7684 11.8274 24.9286 11.8274 25.0926C11.8274 25.3125 11.74 25.5233 11.5845 25.6788C11.4291 25.8343 11.2182 25.9216 10.9983 25.9216ZM10.9983 37.0698C10.8344 37.0698 10.6741 37.0211 10.5378 36.93C10.4014 36.8389 10.2952 36.7095 10.2324 36.558C10.1697 36.4065 10.1533 36.2398 10.1853 36.079C10.2172 35.9182 10.2962 35.7705 10.4121 35.6545C10.5281 35.5386 10.6758 35.4596 10.8366 35.4277C10.9974 35.3957 11.1641 35.4121 11.3156 35.4748C11.4671 35.5376 11.5965 35.6438 11.6876 35.7802C11.7787 35.9165 11.8274 36.0768 11.8274 36.2407C11.8274 36.4606 11.74 36.6715 11.5845 36.8269C11.4291 36.9824 11.2182 37.0698 10.9983 37.0698Z" fill="#427272" stroke="#427272" stroke-width="0.2"/>
<path d="M19.1607 31.7943C18.967 31.6006 18.7043 31.4918 18.4304 31.4918C18.1565 31.4918 17.8938 31.6006 17.7001 31.7943C17.5064 31.988 17.3976 32.2507 17.3976 32.5246C17.3976 32.7985 17.5064 33.0612 17.7001 33.2549L22.3448 37.8997C22.3449 37.8997 22.3449 37.8998 22.3449 37.8998C22.4406 37.9962 22.5543 38.0727 22.6797 38.1249C22.8051 38.1772 22.9396 38.2041 23.0754 38.2041C23.2113 38.2041 23.3458 38.1772 23.4712 38.1249C23.5964 38.0727 23.7101 37.9963 23.8057 37.9C23.902 37.8044 23.9785 37.6907 24.0307 37.5654C24.0829 37.44 24.1098 37.3055 24.1098 37.1697C24.1098 37.0338 24.0829 36.8993 24.0307 36.7739C23.9785 36.6486 23.902 36.5348 23.8056 36.4392C23.8055 36.4391 23.8055 36.4391 23.8054 36.4391L19.1607 31.7943Z" fill="#427272" stroke="#427272" stroke-width="0.2"/>
</svg>
