<svg width="42" height="45" viewBox="0 0 42 45" fill="none" xmlns="http://www.w3.org/2000/svg">
<mask id="mask0_2348_267" style="mask-type:luminance" maskUnits="userSpaceOnUse" x="0" y="0" width="42" height="45">
<path fill-rule="evenodd" clip-rule="evenodd" d="M0 0H41.8618V44.9793H0V0Z" fill="white"/>
</mask>
<g mask="url(#mask0_2348_267)">
<path fill-rule="evenodd" clip-rule="evenodd" d="M11.2925 33.5158C11.7896 33.5158 12.2867 33.5787 12.773 33.709C14.2404 34.104 15.5146 35.0852 16.27 36.4028C16.7606 37.2299 17.0319 38.1958 17.0406 39.1813C17.0406 40.5923 18.1737 41.7232 19.5673 41.7232H22.2872C23.6743 41.7232 24.8074 40.5988 24.8139 39.2117C24.8052 37.6792 25.4043 36.2226 26.5005 35.1264C27.5816 34.0454 29.0924 33.3964 30.6032 33.4398C31.593 33.4637 32.546 33.7307 33.386 34.2082C34.5951 34.9007 36.1385 34.4882 36.8375 33.2944L38.2788 30.8914C38.6001 30.3378 38.6934 29.6432 38.5219 29.0029C38.3526 28.3625 37.9272 27.8068 37.3541 27.479C36.0126 26.7062 35.0553 25.4603 34.6581 23.9668C34.2652 22.5016 34.4801 20.9018 35.2463 19.5841C35.7456 18.7159 36.4771 17.9843 37.3541 17.4807C38.5306 16.7926 38.9431 15.2536 38.2593 14.0553C38.2311 14.0076 38.205 13.9577 38.1833 13.9056L36.9113 11.7001C36.2188 10.4954 34.6776 10.0808 33.4685 10.7689C32.1618 11.5417 30.6075 11.7631 29.1141 11.3702C27.6228 10.9838 26.3725 10.0395 25.5932 8.70671C25.0939 7.87315 24.8226 6.90285 24.8139 5.91517C24.8334 5.17279 24.573 4.50638 24.0997 4.01797C23.6287 3.53173 22.9666 3.25605 22.2872 3.25605H19.5673C18.8944 3.25605 18.2649 3.51871 17.7895 3.99192C17.3163 4.46731 17.058 5.09899 17.0623 5.77191C17.0167 8.94549 14.4227 11.5004 11.2817 11.5004C10.2745 11.4896 9.30417 11.2182 8.46194 10.7146C7.2789 10.0417 5.73335 10.4563 5.0409 11.661L3.57133 14.077C2.8984 15.2449 3.31084 16.7883 4.50907 17.4851C6.28688 18.514 7.39612 20.4329 7.39612 22.4907C7.39612 24.5486 6.28688 26.4653 4.50473 27.4964C3.31301 28.1867 2.90058 29.7214 3.59086 30.9153L4.96058 33.277C5.29921 33.887 5.85274 34.3276 6.4931 34.5078C7.13129 34.6858 7.8346 34.6098 8.42069 34.2842C9.28247 33.7784 10.2853 33.5158 11.2925 33.5158ZM22.2873 44.9793H19.5674C16.3786 44.9793 13.7846 42.3875 13.7846 39.1987C13.7802 38.8058 13.6674 38.3977 13.4568 38.0439C13.116 37.4491 12.5646 37.0236 11.9286 36.8543C11.297 36.685 10.6045 36.7784 10.0358 37.1083C8.67256 37.868 7.06841 38.0526 5.60101 37.6401C4.13578 37.2255 2.87025 36.2183 2.12787 34.8833L0.771174 32.5455C-0.815615 29.793 0.128644 26.2656 2.87676 24.6766C3.65605 24.2273 4.14012 23.3894 4.14012 22.4907C4.14012 21.5921 3.65605 20.752 2.87676 20.3027C0.126473 18.705 -0.815615 15.1689 0.769004 12.4165L2.24075 10.0005C3.80583 7.27839 7.34409 6.31894 10.1031 7.90356C10.4786 8.12714 10.8867 8.24002 11.3013 8.24436C12.6536 8.24436 13.7846 7.12861 13.8063 5.75672C13.7976 4.24374 14.3946 2.79153 15.4821 1.69533C16.5739 0.601287 18.024 0 19.5674 0H22.2873C23.8415 0 25.3523 0.638189 26.4355 1.74742C27.5165 2.86317 28.1134 4.39352 28.0679 5.94558C28.0722 6.29506 28.1873 6.69881 28.3956 7.05264C28.7408 7.63873 29.2856 8.05117 29.9325 8.22048C30.5794 8.38111 31.2566 8.29429 31.8319 7.95348C34.6104 6.36669 38.1465 7.31747 39.7333 10.0743L41.0856 12.4165C41.1203 12.4794 41.1507 12.5402 41.1768 12.6031C42.6138 15.3187 41.6543 18.7376 38.9844 20.2983C38.5958 20.5219 38.2811 20.8345 38.064 21.2122C37.7275 21.7961 37.6342 22.4907 37.8035 23.1289C37.9772 23.7801 38.3918 24.3206 38.9757 24.6549C40.2933 25.4125 41.2766 26.6889 41.6695 28.1628C42.0624 29.6345 41.8475 31.2322 41.0813 32.5498L39.6399 34.9506C38.0531 37.677 34.517 38.6213 31.7668 37.0323C31.3999 36.8218 30.9766 36.7067 30.5555 36.6959H30.5425C29.9151 36.6959 29.2704 36.9629 28.8016 37.4296C28.3262 37.905 28.0657 38.5388 28.07 39.2117C28.0548 42.4005 25.4608 44.9793 22.2873 44.9793Z" fill="#427272"/>
</g>
<path fill-rule="evenodd" clip-rule="evenodd" d="M20.9368 18.3948C18.6793 18.3948 16.8428 20.2334 16.8428 22.4909C16.8428 24.7485 18.6793 26.5827 20.9368 26.5827C23.1943 26.5827 25.0308 24.7485 25.0308 22.4909C25.0308 20.2334 23.1943 18.3948 20.9368 18.3948ZM20.9368 29.8388C16.8841 29.8388 13.5868 26.5436 13.5868 22.4909C13.5868 18.4382 16.8841 15.1387 20.9368 15.1387C24.9895 15.1387 28.2868 18.4382 28.2868 22.4909C28.2868 26.5436 24.9895 29.8388 20.9368 29.8388Z" fill="#427272"/>
</svg>
