<svg width="210" height="46" viewBox="0 0 210 46" fill="none" xmlns="http://www.w3.org/2000/svg">
<path d="M23.2 16.3999C23.2 17.7999 22.9 19.0999 22.2 20.1999C21.6 21.2999 20.6 22.2999 19.3 22.9999C18 23.6999 16.3 24.0999 14.4 24.0999H10.8V32.6999H5V8.6999H14.4C16.3 8.6999 17.9 8.9999 19.2 9.6999C20.5 10.3999 21.5 11.2999 22.2 12.3999C22.9 13.4999 23.2 14.8999 23.2 16.3999ZM14 19.3999C15.1 19.3999 15.9 19.0999 16.5 18.5999C17 18.0999 17.3 17.2999 17.3 16.3999C17.3 15.3999 17 14.6999 16.5 14.1999C16 13.6999 15.1 13.3999 14 13.3999H10.8V19.3999H14ZM25.1 23.0999C25.1 21.0999 25.5 19.3999 26.2 17.9999C26.9 16.4999 28 15.3999 29.2 14.5999C30.5 13.7999 31.9 13.3999 33.5 13.3999C34.8 13.3999 36 13.6999 37 14.1999C38 14.6999 38.8 15.4999 39.4 16.2999V13.5999H45.2V32.5999H39.4V29.8999C38.8 30.7999 38 31.4999 37 31.9999C36 32.4999 34.8 32.7999 33.5 32.7999C32 32.7999 30.5 32.3999 29.3 31.5999C28 30.7999 27 29.5999 26.3 28.1999C25.5 26.6999 25.1 24.9999 25.1 23.0999ZM39.4 23.0999C39.4 21.5999 39 20.4999 38.2 19.6999C37.4 18.8999 36.4 18.3999 35.3 18.3999C34.1 18.3999 33.2 18.7999 32.3 19.6999C31.5 20.4999 31.1 21.6999 31.1 23.0999C31.1 24.5999 31.5 25.6999 32.3 26.5999C33.1 27.3999 34.1 27.8999 35.3 27.8999C36.5 27.8999 37.4 27.4999 38.2 26.5999C38.9 25.6999 39.4 24.4999 39.4 23.0999ZM68.8 13.5999L56.9 41.5999H50.6L55 31.8999L47.3 13.4999H53.8L58.2 25.3999L62.6 13.4999H68.8V13.5999ZM98 8.6999V32.5999H92.2V18.1999L86.8 32.4999H82.1L76.7 18.0999V32.4999H70.9V8.6999H77.8L84.5 25.2999L91.1 8.6999H98ZM121.6 13.5999L109.7 41.5999H103.4L107.8 31.8999L100.1 13.4999H106.6L111 25.3999L115.4 13.4999H121.6V13.5999ZM150.8 8.6999V32.5999H145V18.1999L139.6 32.4999H135L129.6 18.0999V32.4999H123.8V8.6999H130.7L137.4 25.2999L144 8.6999H150.8ZM173 22.7999C173 23.2999 173 23.8999 172.9 24.4999H159.7C159.8 25.6999 160.2 26.5999 160.8 27.1999C161.5 27.7999 162.3 28.0999 163.3 28.0999C164.8 28.0999 165.8 27.4999 166.3 26.2999H172.5C172.2 27.4999 171.6 28.6999 170.8 29.6999C170 30.6999 168.9 31.4999 167.7 32.0999C166.5 32.6999 165.1 32.9999 163.5 32.9999C161.6 32.9999 160 32.5999 158.5 31.7999C157 30.9999 155.9 29.8999 155.1 28.3999C154.3 26.8999 153.9 25.1999 153.9 23.1999C153.9 21.1999 154.3 19.4999 155.1 17.9999C155.9 16.4999 157.1 15.3999 158.5 14.5999C160 13.7999 161.6 13.3999 163.5 13.3999C165.3 13.3999 167 13.7999 168.4 14.5999C169.8 15.3999 170.9 16.4999 171.7 17.8999C172.6 19.1999 173 20.8999 173 22.7999ZM167 21.1999C167 20.1999 166.7 19.3999 166 18.7999C165.3 18.1999 164.5 17.8999 163.4 17.8999C162.4 17.8999 161.6 18.1999 160.9 18.7999C160.2 19.3999 159.8 20.1999 159.7 21.1999H167ZM174.9 23.0999C174.9 21.0999 175.3 19.3999 176 17.9999C176.7 16.4999 177.8 15.3999 179 14.5999C180.3 13.7999 181.7 13.3999 183.3 13.3999C184.6 13.3999 185.8 13.6999 186.8 14.1999C187.8 14.6999 188.6 15.4999 189.2 16.2999V13.5999H195V32.5999H189.2V29.8999C188.6 30.7999 187.8 31.4999 186.8 31.9999C185.8 32.4999 184.6 32.7999 183.3 32.7999C181.8 32.7999 180.3 32.3999 179.1 31.5999C177.8 30.7999 176.8 29.5999 176.1 28.1999C175.2 26.6999 174.9 24.9999 174.9 23.0999ZM189.1 23.0999C189.1 21.5999 188.7 20.4999 187.9 19.6999C187.1 18.8999 186.1 18.3999 185 18.3999C183.8 18.3999 182.9 18.7999 182 19.6999C181.2 20.4999 180.8 21.6999 180.8 23.0999C180.8 24.5999 181.2 25.6999 182 26.5999C182.8 27.3999 183.8 27.8999 185 27.8999C186.2 27.8999 187.1 27.4999 187.9 26.5999C188.7 25.6999 189.1 24.4999 189.1 23.0999ZM205 7.3999V32.5999H199.2V7.3999H205Z" fill="#2B3674"/>
</svg>
