<svg width="230" height="26" viewBox="0 0 230 26" fill="none" xmlns="http://www.w3.org/2000/svg">
<g filter="url(#filter0_d_29_6318)">
<path d="M9.55242 17.14C8.52576 17.14 7.60576 16.9733 6.79242 16.64C5.97909 16.3067 5.32576 15.8133 4.83242 15.16C4.35242 14.5067 4.09909 13.72 4.07242 12.8H7.71242C7.76576 13.32 7.94576 13.72 8.25242 14C8.55909 14.2667 8.95909 14.4 9.45242 14.4C9.95909 14.4 10.3591 14.2867 10.6524 14.06C10.9458 13.82 11.0924 13.4933 11.0924 13.08C11.0924 12.7333 10.9724 12.4467 10.7324 12.22C10.5058 11.9933 10.2191 11.8067 9.87242 11.66C9.53909 11.5133 9.05909 11.3467 8.43242 11.16C7.52576 10.88 6.78576 10.6 6.21242 10.32C5.63909 10.04 5.14576 9.62667 4.73242 9.08C4.31909 8.53333 4.11242 7.82 4.11242 6.94C4.11242 5.63333 4.58576 4.61333 5.53242 3.88C6.47909 3.13333 7.71242 2.76 9.23242 2.76C10.7791 2.76 12.0258 3.13333 12.9724 3.88C13.9191 4.61333 14.4258 5.64 14.4924 6.96H10.7924C10.7658 6.50667 10.5991 6.15333 10.2924 5.9C9.98576 5.63333 9.59242 5.5 9.11242 5.5C8.69909 5.5 8.36576 5.61333 8.11242 5.84C7.85909 6.05333 7.73242 6.36667 7.73242 6.78C7.73242 7.23333 7.94576 7.58667 8.37242 7.84C8.79909 8.09333 9.46576 8.36667 10.3724 8.66C11.2791 8.96667 12.0124 9.26 12.5724 9.54C13.1458 9.82 13.6391 10.2267 14.0524 10.76C14.4658 11.2933 14.6724 11.98 14.6724 12.82C14.6724 13.62 14.4658 14.3467 14.0524 15C13.6524 15.6533 13.0658 16.1733 12.2924 16.56C11.5191 16.9467 10.6058 17.14 9.55242 17.14ZM31.0171 5.72C32.4038 5.72 33.5038 6.14 34.3171 6.98C35.1438 7.82 35.5571 8.98667 35.5571 10.48V17H32.1571V10.94C32.1571 10.22 31.9638 9.66667 31.5771 9.28C31.2038 8.88 30.6838 8.68 30.0171 8.68C29.3504 8.68 28.8238 8.88 28.4371 9.28C28.0638 9.66667 27.8771 10.22 27.8771 10.94V17H24.4771V10.94C24.4771 10.22 24.2838 9.66667 23.8971 9.28C23.5238 8.88 23.0038 8.68 22.3371 8.68C21.6704 8.68 21.1438 8.88 20.7571 9.28C20.3838 9.66667 20.1971 10.22 20.1971 10.94V17H16.7771V5.84H20.1971V7.24C20.5438 6.77333 20.9971 6.40667 21.5571 6.14C22.1171 5.86 22.7504 5.72 23.4571 5.72C24.2971 5.72 25.0438 5.9 25.6971 6.26C26.3638 6.62 26.8838 7.13333 27.2571 7.8C27.6438 7.18667 28.1704 6.68667 28.8371 6.3C29.5038 5.91333 30.2304 5.72 31.0171 5.72ZM37.269 11.4C37.269 10.2533 37.4823 9.24667 37.909 8.38C38.349 7.51333 38.9423 6.84667 39.689 6.38C40.4357 5.91333 41.269 5.68 42.189 5.68C42.9757 5.68 43.6623 5.84 44.249 6.16C44.849 6.48 45.309 6.9 45.629 7.42V5.84H49.049V17H45.629V15.42C45.2957 15.94 44.829 16.36 44.229 16.68C43.6423 17 42.9557 17.16 42.169 17.16C41.2623 17.16 40.4357 16.9267 39.689 16.46C38.9423 15.98 38.349 15.3067 37.909 14.44C37.4823 13.56 37.269 12.5467 37.269 11.4ZM45.629 11.42C45.629 10.5667 45.389 9.89333 44.909 9.4C44.4423 8.90667 43.869 8.66 43.189 8.66C42.509 8.66 41.929 8.90667 41.449 9.4C40.9823 9.88 40.749 10.5467 40.749 11.4C40.749 12.2533 40.9823 12.9333 41.449 13.44C41.929 13.9333 42.509 14.18 43.189 14.18C43.869 14.18 44.4423 13.9333 44.909 13.44C45.389 12.9467 45.629 12.2733 45.629 11.42ZM54.9432 7.7C55.3432 7.08667 55.8432 6.60667 56.4432 6.26C57.0432 5.9 57.7099 5.72 58.4432 5.72V9.34H57.5032C56.6499 9.34 56.0099 9.52667 55.5832 9.9C55.1565 10.26 54.9432 10.9 54.9432 11.82V17H51.5232V5.84H54.9432V7.7ZM66.2979 14.1V17H64.5579C63.3179 17 62.3512 16.7 61.6579 16.1C60.9646 15.4867 60.6179 14.4933 60.6179 13.12V8.68H59.2579V5.84H60.6179V3.12H64.0379V5.84H66.2779V8.68H64.0379V13.16C64.0379 13.4933 64.1179 13.7333 64.2779 13.88C64.4379 14.0267 64.7046 14.1 65.0779 14.1H66.2979ZM71.8612 9.96C71.8612 8.57333 72.1612 7.34 72.7612 6.26C73.3612 5.16667 74.1945 4.32 75.2612 3.72C76.3412 3.10667 77.5612 2.8 78.9212 2.8C80.5878 2.8 82.0145 3.24 83.2012 4.12C84.3878 5 85.1812 6.2 85.5812 7.72H81.8212C81.5412 7.13333 81.1412 6.68667 80.6212 6.38C80.1145 6.07333 79.5345 5.92 78.8812 5.92C77.8278 5.92 76.9745 6.28667 76.3212 7.02C75.6678 7.75333 75.3412 8.73333 75.3412 9.96C75.3412 11.1867 75.6678 12.1667 76.3212 12.9C76.9745 13.6333 77.8278 14 78.8812 14C79.5345 14 80.1145 13.8467 80.6212 13.54C81.1412 13.2333 81.5412 12.7867 81.8212 12.2H85.5812C85.1812 13.72 84.3878 14.92 83.2012 15.8C82.0145 16.6667 80.5878 17.1 78.9212 17.1C77.5612 17.1 76.3412 16.8 75.2612 16.2C74.1945 15.5867 73.3612 14.74 72.7612 13.66C72.1612 12.58 71.8612 11.3467 71.8612 9.96ZM94.5355 5.72C95.8155 5.72 96.8422 6.14667 97.6155 7C98.3889 7.84 98.7755 9 98.7755 10.48V17H95.3755V10.94C95.3755 10.1933 95.1822 9.61333 94.7955 9.2C94.4089 8.78667 93.8889 8.58 93.2355 8.58C92.5822 8.58 92.0622 8.78667 91.6755 9.2C91.2889 9.61333 91.0955 10.1933 91.0955 10.94V17H87.6755V2.2H91.0955V7.34C91.4422 6.84667 91.9155 6.45333 92.5155 6.16C93.1155 5.86667 93.7889 5.72 94.5355 5.72ZM106.232 17.16C105.139 17.16 104.152 16.9267 103.272 16.46C102.405 15.9933 101.719 15.3267 101.212 14.46C100.719 13.5933 100.472 12.58 100.472 11.42C100.472 10.2733 100.725 9.26667 101.232 8.4C101.739 7.52 102.432 6.84667 103.312 6.38C104.192 5.91333 105.179 5.68 106.272 5.68C107.365 5.68 108.352 5.91333 109.232 6.38C110.112 6.84667 110.805 7.52 111.312 8.4C111.819 9.26667 112.072 10.2733 112.072 11.42C112.072 12.5667 111.812 13.58 111.292 14.46C110.785 15.3267 110.085 15.9933 109.192 16.46C108.312 16.9267 107.325 17.16 106.232 17.16ZM106.232 14.2C106.885 14.2 107.439 13.96 107.892 13.48C108.359 13 108.592 12.3133 108.592 11.42C108.592 10.5267 108.365 9.84 107.912 9.36C107.472 8.88 106.925 8.64 106.272 8.64C105.605 8.64 105.052 8.88 104.612 9.36C104.172 9.82667 103.952 10.5133 103.952 11.42C103.952 12.3133 104.165 13 104.592 13.48C105.032 13.96 105.579 14.2 106.232 14.2ZM115.606 4.68C115.006 4.68 114.513 4.50667 114.126 4.16C113.753 3.8 113.566 3.36 113.566 2.84C113.566 2.30667 113.753 1.86667 114.126 1.52C114.513 1.16 115.006 0.979999 115.606 0.979999C116.193 0.979999 116.673 1.16 117.046 1.52C117.433 1.86667 117.626 2.30667 117.626 2.84C117.626 3.36 117.433 3.8 117.046 4.16C116.673 4.50667 116.193 4.68 115.606 4.68ZM117.306 5.84V17H113.886V5.84H117.306ZM119.105 11.42C119.105 10.26 119.338 9.24667 119.805 8.38C120.285 7.51333 120.945 6.84667 121.785 6.38C122.638 5.91333 123.612 5.68 124.705 5.68C126.105 5.68 127.272 6.04667 128.205 6.78C129.152 7.51333 129.772 8.54667 130.065 9.88H126.425C126.118 9.02667 125.525 8.6 124.645 8.6C124.018 8.6 123.518 8.84667 123.145 9.34C122.772 9.82 122.585 10.5133 122.585 11.42C122.585 12.3267 122.772 13.0267 123.145 13.52C123.518 14 124.018 14.24 124.645 14.24C125.525 14.24 126.118 13.8133 126.425 12.96H130.065C129.772 14.2667 129.152 15.2933 128.205 16.04C127.258 16.7867 126.092 17.16 124.705 17.16C123.612 17.16 122.638 16.9267 121.785 16.46C120.945 15.9933 120.285 15.3267 119.805 14.46C119.338 13.5933 119.105 12.58 119.105 11.42ZM142.414 11.24C142.414 11.56 142.394 11.8933 142.354 12.24H134.614C134.668 12.9333 134.888 13.4667 135.274 13.84C135.674 14.2 136.161 14.38 136.734 14.38C137.588 14.38 138.181 14.02 138.514 13.3H142.154C141.968 14.0333 141.628 14.6933 141.134 15.28C140.654 15.8667 140.048 16.3267 139.314 16.66C138.581 16.9933 137.761 17.16 136.854 17.16C135.761 17.16 134.788 16.9267 133.934 16.46C133.081 15.9933 132.414 15.3267 131.934 14.46C131.454 13.5933 131.214 12.58 131.214 11.42C131.214 10.26 131.448 9.24667 131.914 8.38C132.394 7.51333 133.061 6.84667 133.914 6.38C134.768 5.91333 135.748 5.68 136.854 5.68C137.934 5.68 138.894 5.90667 139.734 6.36C140.574 6.81333 141.228 7.46 141.694 8.3C142.174 9.14 142.414 10.12 142.414 11.24ZM138.914 10.34C138.914 9.75333 138.714 9.28667 138.314 8.94C137.914 8.59333 137.414 8.42 136.814 8.42C136.241 8.42 135.754 8.58667 135.354 8.92C134.968 9.25333 134.728 9.72667 134.634 10.34H138.914ZM158.557 2.96V5.7H154.837V17H151.417V5.7H147.697V2.96H158.557ZM163.693 7.7C164.093 7.08667 164.593 6.60667 165.193 6.26C165.793 5.9 166.46 5.72 167.193 5.72V9.34H166.253C165.4 9.34 164.76 9.52667 164.333 9.9C163.907 10.26 163.693 10.9 163.693 11.82V17H160.273V5.84H163.693V7.7ZM168.148 11.4C168.148 10.2533 168.361 9.24667 168.788 8.38C169.228 7.51333 169.821 6.84667 170.568 6.38C171.315 5.91333 172.148 5.68 173.068 5.68C173.855 5.68 174.541 5.84 175.128 6.16C175.728 6.48 176.188 6.9 176.508 7.42V5.84H179.928V17H176.508V15.42C176.175 15.94 175.708 16.36 175.108 16.68C174.521 17 173.835 17.16 173.048 17.16C172.141 17.16 171.315 16.9267 170.568 16.46C169.821 15.98 169.228 15.3067 168.788 14.44C168.361 13.56 168.148 12.5467 168.148 11.4ZM176.508 11.42C176.508 10.5667 176.268 9.89333 175.788 9.4C175.321 8.90667 174.748 8.66 174.068 8.66C173.388 8.66 172.808 8.90667 172.328 9.4C171.861 9.88 171.628 10.5467 171.628 11.4C171.628 12.2533 171.861 12.9333 172.328 13.44C172.808 13.9333 173.388 14.18 174.068 14.18C174.748 14.18 175.321 13.9333 175.788 13.44C176.268 12.9467 176.508 12.2733 176.508 11.42ZM181.722 11.4C181.722 10.2533 181.935 9.24667 182.362 8.38C182.802 7.51333 183.395 6.84667 184.142 6.38C184.889 5.91333 185.722 5.68 186.642 5.68C187.375 5.68 188.042 5.83333 188.642 6.14C189.255 6.44667 189.735 6.86 190.082 7.38V2.2H193.502V17H190.082V15.4C189.762 15.9333 189.302 16.36 188.702 16.68C188.115 17 187.429 17.16 186.642 17.16C185.722 17.16 184.889 16.9267 184.142 16.46C183.395 15.98 182.802 15.3067 182.362 14.44C181.935 13.56 181.722 12.5467 181.722 11.4ZM190.082 11.42C190.082 10.5667 189.842 9.89333 189.362 9.4C188.895 8.90667 188.322 8.66 187.642 8.66C186.962 8.66 186.382 8.90667 185.902 9.4C185.435 9.88 185.202 10.5467 185.202 11.4C185.202 12.2533 185.435 12.9333 185.902 13.44C186.382 13.9333 186.962 14.18 187.642 14.18C188.322 14.18 188.895 13.9333 189.362 13.44C189.842 12.9467 190.082 12.2733 190.082 11.42ZM206.496 11.24C206.496 11.56 206.476 11.8933 206.436 12.24H198.696C198.75 12.9333 198.97 13.4667 199.356 13.84C199.756 14.2 200.243 14.38 200.816 14.38C201.67 14.38 202.263 14.02 202.596 13.3H206.236C206.05 14.0333 205.71 14.6933 205.216 15.28C204.736 15.8667 204.13 16.3267 203.396 16.66C202.663 16.9933 201.843 17.16 200.936 17.16C199.843 17.16 198.87 16.9267 198.016 16.46C197.163 15.9933 196.496 15.3267 196.016 14.46C195.536 13.5933 195.296 12.58 195.296 11.42C195.296 10.26 195.53 9.24667 195.996 8.38C196.476 7.51333 197.143 6.84667 197.996 6.38C198.85 5.91333 199.83 5.68 200.936 5.68C202.016 5.68 202.976 5.90667 203.816 6.36C204.656 6.81333 205.31 7.46 205.776 8.3C206.256 9.14 206.496 10.12 206.496 11.24ZM202.996 10.34C202.996 9.75333 202.796 9.28667 202.396 8.94C201.996 8.59333 201.496 8.42 200.896 8.42C200.323 8.42 199.836 8.58667 199.436 8.92C199.05 9.25333 198.81 9.72667 198.716 10.34H202.996ZM211.721 7.7C212.121 7.08667 212.621 6.60667 213.221 6.26C213.821 5.9 214.487 5.72 215.221 5.72V9.34H214.281C213.427 9.34 212.787 9.52667 212.361 9.9C211.934 10.26 211.721 10.9 211.721 11.82V17H208.301V5.84H211.721V7.7ZM221.395 17.16C220.422 17.16 219.555 16.9933 218.795 16.66C218.035 16.3267 217.435 15.8733 216.995 15.3C216.555 14.7133 216.309 14.06 216.255 13.34H219.635C219.675 13.7267 219.855 14.04 220.175 14.28C220.495 14.52 220.889 14.64 221.355 14.64C221.782 14.64 222.109 14.56 222.335 14.4C222.575 14.2267 222.695 14.0067 222.695 13.74C222.695 13.42 222.529 13.1867 222.195 13.04C221.862 12.88 221.322 12.7067 220.575 12.52C219.775 12.3333 219.109 12.14 218.575 11.94C218.042 11.7267 217.582 11.4 217.195 10.96C216.809 10.5067 216.615 9.9 216.615 9.14C216.615 8.5 216.789 7.92 217.135 7.4C217.495 6.86667 218.015 6.44667 218.695 6.14C219.389 5.83333 220.209 5.68 221.155 5.68C222.555 5.68 223.655 6.02667 224.455 6.72C225.269 7.41333 225.735 8.33333 225.855 9.48H222.695C222.642 9.09333 222.469 8.78667 222.175 8.56C221.895 8.33333 221.522 8.22 221.055 8.22C220.655 8.22 220.349 8.3 220.135 8.46C219.922 8.60667 219.815 8.81333 219.815 9.08C219.815 9.4 219.982 9.64 220.315 9.8C220.662 9.96 221.195 10.12 221.915 10.28C222.742 10.4933 223.415 10.7067 223.935 10.92C224.455 11.12 224.909 11.4533 225.295 11.92C225.695 12.3733 225.902 12.9867 225.915 13.76C225.915 14.4133 225.729 15 225.355 15.52C224.995 16.0267 224.469 16.4267 223.775 16.72C223.095 17.0133 222.302 17.16 221.395 17.16Z" fill="#2B3674"/>
</g>
<defs>
<filter id="filter0_d_29_6318" x="0.0724487" y="0.97998" width="229.843" height="24.18" filterUnits="userSpaceOnUse" color-interpolation-filters="sRGB">
<feFlood flood-opacity="0" result="BackgroundImageFix"/>
<feColorMatrix in="SourceAlpha" type="matrix" values="0 0 0 0 0 0 0 0 0 0 0 0 0 0 0 0 0 0 127 0" result="hardAlpha"/>
<feOffset dy="4"/>
<feGaussianBlur stdDeviation="2"/>
<feComposite in2="hardAlpha" operator="out"/>
<feColorMatrix type="matrix" values="0 0 0 0 0 0 0 0 0 0 0 0 0 0 0 0 0 0 0.25 0"/>
<feBlend mode="normal" in2="BackgroundImageFix" result="effect1_dropShadow_29_6318"/>
<feBlend mode="normal" in="SourceGraphic" in2="effect1_dropShadow_29_6318" result="shape"/>
</filter>
</defs>
</svg>
