<svg width="37" height="37" viewBox="0 0 37 37" fill="none" xmlns="http://www.w3.org/2000/svg">
<rect width="37" height="37" rx="10" fill="#F4F7FE"/>
<mask id="path-2-outside-1_27_1010" maskUnits="userSpaceOnUse" x="10" y="10" width="17" height="17" fill="black">
<rect fill="white" x="10" y="10" width="17" height="17"/>
<path d="M20.5858 13.4142L13.3917 20.6083C13.1971 20.8029 13.0997 20.9003 13.0328 21.0186C12.9658 21.1368 12.9324 21.2704 12.8656 21.5374L12.2021 24.1915C12.1119 24.5526 12.0667 24.7331 12.1668 24.8332C12.2669 24.9333 12.4474 24.8881 12.8084 24.7979L12.8085 24.7979L15.4626 24.1344C15.7296 24.0676 15.8632 24.0342 15.9814 23.9672C16.0997 23.9003 16.1971 23.8029 16.3917 23.6083L23.5858 16.4142L23.5858 16.4142C24.2525 15.7475 24.5858 15.4142 24.5858 15C24.5858 14.5858 24.2525 14.2525 23.5858 13.5858L23.4142 13.4142C22.7475 12.7475 22.4142 12.4142 22 12.4142C21.5858 12.4142 21.2525 12.7475 20.5858 13.4142Z"/>
</mask>
<path d="M13.3917 20.6083L14.8059 22.0225L14.8059 22.0225L13.3917 20.6083ZM20.5858 13.4142L19.1716 12L19.1716 12L20.5858 13.4142ZM23.4142 13.4142L22 14.8284L22 14.8284L23.4142 13.4142ZM23.5858 13.5858L25 12.1716L25 12.1716L23.5858 13.5858ZM23.5858 16.4142L25 17.8284L23.5858 16.4142ZM16.3917 23.6083L14.9775 22.1941L14.9775 22.1941L16.3917 23.6083ZM12.8656 21.5374L14.8059 22.0225L14.8059 22.0225L12.8656 21.5374ZM12.2021 24.1915L10.2618 23.7065H10.2618L12.2021 24.1915ZM12.8085 24.7979L12.3234 22.8576L12.2362 22.8794L12.1514 22.9089L12.8085 24.7979ZM15.4626 24.1344L14.9775 22.1941L14.9775 22.1941L15.4626 24.1344ZM12.1668 24.8332L13.581 23.419L13.581 23.419L12.1668 24.8332ZM12.8084 24.7979L13.2935 26.7382L13.3806 26.7164L13.4655 26.6869L12.8084 24.7979ZM15.9814 23.9672L14.9961 22.2268L14.996 22.2268L15.9814 23.9672ZM23.5858 16.4142L25 17.8284L25 17.8284L23.5858 16.4142ZM13.0328 21.0186L11.2924 20.0332L11.2924 20.0332L13.0328 21.0186ZM14.8059 22.0225L22 14.8284L19.1716 12L11.9775 19.1941L14.8059 22.0225ZM22 14.8284L22.1716 15L25 12.1716L24.8284 12L22 14.8284ZM22.1716 15L14.9775 22.1941L17.8059 25.0225L25 17.8284L22.1716 15ZM10.9254 21.0524L10.2618 23.7065L14.1424 24.6766L14.8059 22.0225L10.9254 21.0524ZM13.2935 26.7382L15.9476 26.0746L14.9775 22.1941L12.3234 22.8576L13.2935 26.7382ZM10.2618 23.7065C10.233 23.8218 10.1506 24.1296 10.1226 24.4155C10.0922 24.7261 10.0651 25.5599 10.7526 26.2474L13.581 23.419C13.8467 23.6847 13.9991 24.0005 14.0664 24.2928C14.1251 24.5478 14.1097 24.7429 14.1036 24.8049C14.097 24.8724 14.0879 24.904 14.097 24.8631C14.1054 24.8253 14.1179 24.7747 14.1424 24.6766L10.2618 23.7065ZM12.1514 22.9089L12.1514 22.9089L13.4655 26.6869L13.4655 26.6869L12.1514 22.9089ZM12.3234 22.8576C12.2253 22.8821 12.1747 22.8946 12.1369 22.903C12.096 22.9121 12.1276 22.903 12.1951 22.8964C12.2571 22.8903 12.4522 22.8749 12.7072 22.9336C12.9995 23.0009 13.3154 23.1533 13.581 23.419L10.7526 26.2474C11.4401 26.9349 12.2739 26.9078 12.5845 26.8774C12.8704 26.8494 13.1782 26.767 13.2935 26.7382L12.3234 22.8576ZM14.9775 22.1941C14.9528 22.2188 14.9317 22.2399 14.9121 22.2593C14.8927 22.2787 14.8767 22.2945 14.8629 22.308C14.8492 22.3215 14.8391 22.3312 14.8317 22.3382C14.8281 22.3416 14.8255 22.3441 14.8236 22.3458C14.8218 22.3475 14.8209 22.3483 14.8209 22.3482C14.8209 22.3482 14.822 22.3473 14.8239 22.3456C14.8259 22.3439 14.8289 22.3413 14.8329 22.338C14.8409 22.3314 14.8529 22.3216 14.8687 22.3098C14.8845 22.2979 14.9036 22.2843 14.9256 22.2699C14.9478 22.2553 14.9713 22.2408 14.9961 22.2268L16.9668 25.7076C17.376 25.476 17.6864 25.1421 17.8059 25.0225L14.9775 22.1941ZM15.9476 26.0746C16.1117 26.0336 16.5577 25.9393 16.9669 25.7076L14.996 22.2268C15.0208 22.2128 15.0453 22.2001 15.0692 22.1886C15.0929 22.1772 15.1144 22.1678 15.1328 22.1603C15.151 22.1529 15.1655 22.1475 15.1753 22.1441C15.1802 22.1424 15.1839 22.1412 15.1864 22.1404C15.1889 22.1395 15.1902 22.1391 15.1903 22.1391C15.1903 22.1391 15.1892 22.1395 15.1868 22.1402C15.1843 22.1409 15.1808 22.1419 15.1761 22.1432C15.1663 22.1459 15.1528 22.1496 15.1341 22.1544C15.1155 22.1593 15.0937 22.1649 15.0671 22.1716C15.0403 22.1784 15.0114 22.1856 14.9775 22.1941L15.9476 26.0746ZM22.1716 15C22.3435 15.1719 22.4698 15.2984 22.5738 15.4078C22.6786 15.518 22.7263 15.5752 22.7457 15.6007C22.7644 15.6252 22.7226 15.5764 22.6774 15.4678C22.6254 15.3433 22.5858 15.181 22.5858 15H26.5858C26.5858 14.1798 26.2282 13.5707 25.9258 13.1744C25.6586 12.8242 25.2934 12.4649 25 12.1716L22.1716 15ZM25 17.8284L25 17.8284L22.1716 15L22.1716 15L25 17.8284ZM25 17.8284C25.2934 17.5351 25.6586 17.1758 25.9258 16.8256C26.2282 16.4292 26.5858 15.8202 26.5858 15H22.5858C22.5858 14.819 22.6254 14.6567 22.6774 14.5322C22.7226 14.4236 22.7644 14.3748 22.7457 14.3993C22.7263 14.4248 22.6786 14.482 22.5738 14.5922C22.4698 14.7016 22.3435 14.8281 22.1716 15L25 17.8284ZM22 14.8284C22.1719 14.6565 22.2984 14.5302 22.4078 14.4262C22.518 14.3214 22.5752 14.2737 22.6007 14.2543C22.6252 14.2356 22.5764 14.2774 22.4678 14.3226C22.3433 14.3746 22.181 14.4142 22 14.4142V10.4142C21.1798 10.4142 20.5707 10.7718 20.1744 11.0742C19.8242 11.3414 19.4649 11.7066 19.1716 12L22 14.8284ZM24.8284 12C24.5351 11.7066 24.1758 11.3414 23.8256 11.0742C23.4293 10.7718 22.8202 10.4142 22 10.4142V14.4142C21.819 14.4142 21.6567 14.3746 21.5322 14.3226C21.4236 14.2774 21.3748 14.2356 21.3993 14.2543C21.4248 14.2737 21.482 14.3214 21.5922 14.4262C21.7016 14.5302 21.8281 14.6565 22 14.8284L24.8284 12ZM11.9775 19.1941C11.8579 19.3136 11.524 19.624 11.2924 20.0332L14.7732 22.0039C14.7592 22.0287 14.7447 22.0522 14.7301 22.0744C14.7157 22.0964 14.7021 22.1155 14.6902 22.1313C14.6784 22.1471 14.6686 22.1591 14.662 22.1671C14.6587 22.1711 14.6561 22.1741 14.6544 22.1761C14.6527 22.178 14.6518 22.1791 14.6518 22.1791C14.6517 22.1791 14.6525 22.1782 14.6542 22.1764C14.6559 22.1745 14.6584 22.1719 14.6618 22.1683C14.6688 22.1609 14.6785 22.1508 14.692 22.1371C14.7055 22.1233 14.7213 22.1073 14.7407 22.0879C14.7601 22.0683 14.7812 22.0472 14.8059 22.0225L11.9775 19.1941ZM14.8059 22.0225C14.8144 21.9886 14.8216 21.9597 14.8284 21.9329C14.8351 21.9063 14.8407 21.8845 14.8456 21.8659C14.8504 21.8472 14.8541 21.8337 14.8568 21.8239C14.8581 21.8192 14.8591 21.8157 14.8598 21.8132C14.8605 21.8108 14.8609 21.8097 14.8609 21.8097C14.8609 21.8098 14.8605 21.8111 14.8596 21.8136C14.8588 21.8161 14.8576 21.8198 14.8559 21.8247C14.8525 21.8345 14.8471 21.849 14.8397 21.8672C14.8322 21.8856 14.8228 21.9071 14.8114 21.9308C14.7999 21.9547 14.7872 21.9792 14.7732 22.0039L11.2924 20.0332C11.0607 20.4423 10.9664 20.8883 10.9254 21.0524L14.8059 22.0225Z" fill="#2B3674" mask="url(#path-2-outside-1_27_1010)"/>
<path d="M19.5 13.5L22.5 11.5L25.5 14.5L23.5 17.5L19.5 13.5Z" fill="#2B3674"/>
</svg>
