<svg width="30" height="30" viewBox="0 0 30 30" fill="none" xmlns="http://www.w3.org/2000/svg">
<path d="M27.9993 15.2899C27.835 15.9023 27.3726 16.3245 26.9514 16.7702C25.2421 18.5762 23.3352 20.156 21.1023 21.3554C19.5101 22.2105 17.8221 22.7969 15.9911 22.9567C14.2259 23.1107 12.52 22.8502 10.8726 22.2372C8.53784 21.3687 6.53314 20.0133 4.73138 18.3803C3.93628 17.6602 3.19575 16.8824 2.46386 16.1026C1.86172 15.4617 1.84775 14.6053 2.41063 13.9581C4.3315 11.7476 6.54179 9.85846 9.21451 8.49932C10.826 7.68029 12.5279 7.13067 14.365 7.01973C16.4256 6.89548 18.3551 7.36586 20.1974 8.20771C22.5694 9.2911 24.5788 10.8385 26.3852 12.6401C26.642 12.8962 26.8875 13.1631 27.137 13.4262C27.499 13.8078 27.8583 14.1914 28 14.708C27.9993 14.9033 27.9993 15.0966 27.9993 15.2899ZM15.009 20.3341C18.1029 20.3322 20.6033 17.948 20.6026 14.9996C20.602 12.0512 18.1009 9.67018 15.005 9.67145C11.9098 9.67272 9.40945 12.0569 9.41211 15.004C9.41411 17.9524 11.9172 20.336 15.009 20.3341Z" fill="#0A4949"/>
<path d="M19.0098 14.9939C19.0131 17.0928 17.216 18.812 15.015 18.8159C12.8127 18.8197 11.0076 17.1068 11.0036 15.0098C10.9996 12.9108 12.7961 11.1922 14.9984 11.1878C17.2 11.1827 19.0065 12.8969 19.0098 14.9939Z" fill="#0A4949"/>
</svg>
