<svg width="30" height="30" viewBox="0 0 30 30" fill="none" xmlns="http://www.w3.org/2000/svg">
<path d="M15.9537 0C16.528 0.482943 17.0956 0.971527 17.6767 1.44657C21.7208 4.75608 25.7671 8.06108 29.8122 11.3695C29.8707 11.418 29.9246 11.4721 30.0078 11.5489C25.3152 15.4 20.6384 19.2376 15.9099 23.1181C15.9099 20.7067 15.9099 18.3609 15.9099 15.945C15.1467 16.0499 14.4172 16.1075 13.7069 16.2542C8.58269 17.3171 4.7522 20.1516 2.32892 24.8106C1.57249 26.2651 1.01163 27.8222 0.36085 29.332C0.264189 29.5554 0.167527 29.7788 0.0259073 30C0.0202874 29.9312 0.0112956 29.8612 0.0112956 29.7924C0.0101717 27.82 0.00342785 25.8487 0.0124196 23.8763C0.0483867 15.8017 5.82222 8.87238 13.7361 7.41227C14.3487 7.29943 14.9736 7.24978 15.5929 7.17193C15.6884 7.15951 15.784 7.14936 15.8952 7.13695C15.8952 4.7448 15.8952 2.37296 15.8952 0C15.9143 0 15.9346 0 15.9537 0Z" fill="white"/>
</svg>
