<svg width="15" height="14" viewBox="0 0 15 14" fill="none" xmlns="http://www.w3.org/2000/svg">
<path d="M1.02954 5.89557C0.554803 5.89557 0.169952 6.28042 0.169952 6.75516C0.169952 7.22989 0.554803 7.61474 1.02954 7.61474L1.02954 5.89557ZM14.416 7.36298C14.7517 7.02729 14.7517 6.48303 14.416 6.14734L8.94559 0.676944C8.6099 0.341253 8.06564 0.341253 7.72995 0.676944C7.39425 1.01263 7.39425 1.5569 7.72994 1.89259L12.5925 6.75516L7.72994 11.6177C7.39425 11.9534 7.39425 12.4977 7.72994 12.8334C8.06563 13.1691 8.6099 13.1691 8.94559 12.8334L14.416 7.36298ZM1.02954 7.61474L13.8082 7.61475L13.8082 5.89557L1.02954 5.89557L1.02954 7.61474Z" fill="#427272"/>
</svg>
