<svg width="136" height="136" viewBox="0 0 136 136" fill="none" xmlns="http://www.w3.org/2000/svg">
<circle cx="68" cy="68" r="68" fill="#0A4949"/>
<path d="M36.068 72.3812C35.8624 72.3812 35.6547 72.3997 35.4517 72.377C35.13 72.341 34.8056 72.3068 34.4948 72.2059C34.2086 72.113 33.9166 72.0328 33.6397 71.917C32.5763 71.4725 31.7345 70.7597 31.1113 69.7893C30.841 69.3685 30.6402 68.9186 30.4855 68.4422C30.2296 67.6538 30.1645 66.8474 30.2318 66.03C30.2722 65.5387 30.3914 65.0614 30.5563 64.5927C30.8869 63.6529 31.4348 62.8684 32.1885 62.2254C32.7995 61.704 33.4985 61.3449 34.2704 61.1216C34.6238 61.0195 34.9801 60.9495 35.3455 60.9035C35.6231 60.8686 35.8987 60.8582 36.1763 60.8582C36.5451 60.8581 36.9066 60.9157 37.2698 60.9769C37.7436 61.0567 38.1937 61.2036 38.6282 61.3986C39.7101 61.884 40.5465 62.6429 41.1455 63.6681C41.4143 64.1282 41.6078 64.617 41.7367 65.1298C41.8634 65.6341 41.9154 66.1497 41.9095 66.6718C41.9051 67.0532 41.8899 67.4342 41.8098 67.8061C41.6795 68.4115 41.4791 68.9908 41.1704 69.5355C40.8249 70.1454 40.3877 70.6701 39.8473 71.1112C39.2252 71.6191 38.5241 71.97 37.747 72.1801C37.1952 72.329 36.6384 72.4071 36.068 72.3812ZM36.1473 63.4509C35.5757 63.4576 35.1051 63.5562 34.6559 63.7759C33.7968 64.196 33.3135 64.899 33.0855 65.8033C32.9912 66.1773 32.9926 66.5577 33.0172 66.9385C33.0514 67.4686 33.196 67.9693 33.479 68.4184C33.9411 69.1518 34.6007 69.5984 35.4635 69.7458C36.1294 69.8596 36.7692 69.7997 37.3899 69.5278C37.9717 69.2731 38.4085 68.8622 38.7192 68.3142C38.8735 68.042 38.9992 67.7549 39.0497 67.444C39.095 67.1652 39.1589 66.8815 39.1465 66.603C39.1304 66.2391 39.0916 65.8727 38.9676 65.52C38.8081 65.0668 38.5834 64.6589 38.2416 64.3185C37.6413 63.7208 36.9048 63.4662 36.1473 63.4509Z" fill="white"/>
<path d="M72.1288 61.1873C72.3471 61.1316 74.8412 61.1415 74.9832 61.1944C74.9832 64.8155 74.9832 68.4403 74.9832 72.0618C74.8481 72.1105 72.3579 72.1221 72.133 72.0724C72.1224 71.6534 72.1341 71.227 72.1261 70.7591C72.0642 70.8173 72.0246 70.8476 71.9935 70.8849C71.4806 71.5002 70.839 71.9208 70.0823 72.1806C69.3859 72.4196 68.6673 72.4443 67.953 72.368C66.8949 72.2551 65.9781 71.8314 65.2999 70.9742C65.0304 70.6336 64.8345 70.2545 64.6771 69.8506C64.4035 69.1485 64.2994 68.4159 64.2956 67.6715C64.2847 65.5555 64.2908 63.4395 64.2906 61.3235C64.2906 61.1672 64.3061 61.1526 64.4917 61.1523C65.1086 61.151 65.7256 61.1517 66.3426 61.1517C66.5603 61.1517 66.7781 61.1498 66.9959 61.1526C67.139 61.1545 67.1502 61.1682 67.1551 61.3081C67.1565 61.3503 67.1553 61.3927 67.1553 61.4351C67.1553 63.273 67.157 65.1109 67.1541 66.9487C67.1533 67.3992 67.2013 67.8412 67.3436 68.2695C67.5184 68.7955 67.8287 69.2153 68.3249 69.4811C68.5376 69.595 68.7672 69.6678 69.0048 69.7027C69.4958 69.7748 69.986 69.7567 70.4502 69.5734C70.9853 69.362 71.3963 68.9967 71.6746 68.4866C71.8786 68.1128 71.9959 67.7152 72.0693 67.2961C72.1347 66.9227 72.1272 66.5502 72.1278 66.1764C72.1303 64.5743 72.1288 62.9722 72.1288 61.37C72.1288 61.3106 72.1288 61.2512 72.1288 61.1873Z" fill="white"/>
<path d="M45.3046 72.1022C45.2181 72.1022 45.1585 72.1022 45.0987 72.1022C44.2943 72.1022 43.4899 72.1022 42.6854 72.1022C42.6613 72.1022 42.637 72.1032 42.6128 72.1019C42.4834 72.0954 42.4601 72.0713 42.4543 71.9367C42.4527 71.9005 42.4542 71.8642 42.4542 71.8279C42.4542 68.3457 42.4542 64.8634 42.4541 61.3812C42.4541 61.351 42.4542 61.3207 42.4532 61.2905C42.4503 61.1989 42.502 61.1596 42.5859 61.1534C42.628 61.1503 42.6705 61.1517 42.7129 61.1517C43.4992 61.1516 44.2854 61.1516 45.0718 61.1516C45.1021 61.1516 45.1323 61.1507 45.1625 61.152C45.3004 61.1583 45.3148 61.1705 45.3154 61.3144C45.3167 61.6589 45.3151 62.0035 45.3146 62.3481C45.3145 62.3842 45.3146 62.4202 45.3146 62.4546C45.3768 62.4935 45.407 62.4515 45.4369 62.4141C45.8372 61.9137 46.34 61.5446 46.915 61.2711C47.1924 61.1391 47.4839 61.0483 47.7852 60.9815C48.1875 60.8923 48.592 60.8485 49.0033 60.8567C49.3234 60.8631 49.6363 60.9173 49.9506 60.9752C50.2131 61.0235 50.4648 61.0975 50.7096 61.1987C51.5119 61.5304 52.1156 62.0855 52.5234 62.8471C52.8387 63.4357 53.0124 64.069 53.0944 64.733C53.1421 65.119 53.1517 65.504 53.1521 65.8903C53.1544 67.8732 53.1532 69.8562 53.1532 71.8391C53.1532 71.9166 53.1532 71.994 53.1532 72.0886C53.0772 72.0939 53.0192 72.1016 52.9614 72.1016C52.1388 72.1024 51.3162 72.1025 50.4936 72.1018C50.2974 72.1016 50.2896 72.0928 50.2896 71.8967C50.2895 70.077 50.29 68.2573 50.2891 66.4376C50.289 66.2261 50.2929 66.0135 50.2746 65.8032C50.2264 65.2511 50.0892 64.7268 49.7364 64.2818C49.4238 63.8875 49.0095 63.6638 48.5193 63.5716C48.1528 63.5026 47.7864 63.4975 47.42 63.5719C46.7999 63.6977 46.3017 64.0146 45.9304 64.5268C45.6805 64.8716 45.5255 65.257 45.4338 65.6729C45.353 66.04 45.3129 66.4081 45.3139 66.7843C45.3185 68.4831 45.316 70.1818 45.3155 71.8806C45.3155 71.9456 45.3093 72.0105 45.3046 72.1022Z" fill="white"/>
<path d="M100.543 61.1622C100.639 61.1574 100.698 61.1519 100.757 61.1519C101.658 61.1514 102.559 61.154 103.46 61.1491C103.608 61.1483 103.683 61.1969 103.742 61.3387C104.001 61.9573 104.273 62.5704 104.544 63.1839C104.946 64.0912 105.353 64.9957 105.752 65.904C106.105 66.7092 106.45 67.5181 106.8 68.325C106.823 68.3793 106.853 68.4309 106.892 68.5091C106.928 68.4632 106.967 68.4291 106.985 68.3861C107.272 67.6879 107.556 66.9882 107.842 66.2896C108.242 65.3143 108.643 64.3395 109.044 63.3648C109.321 62.69 109.601 62.0162 109.878 61.3407C109.931 61.2106 110.002 61.1463 110.158 61.1477C111.041 61.1557 111.924 61.1514 112.807 61.1519C112.86 61.1519 112.914 61.1569 112.96 61.1593C112.97 61.1749 112.974 61.1798 112.976 61.1851C112.979 61.1903 112.983 61.1959 112.983 61.2014C112.983 61.219 112.987 61.2386 112.98 61.2539C110.8 66.3757 108.619 71.4972 106.438 76.6207C105.46 76.6207 104.495 76.6207 103.505 76.6207C103.538 76.5274 103.561 76.4499 103.592 76.3759C103.947 75.5312 104.305 74.6874 104.66 73.8426C104.915 73.2362 105.166 72.6281 105.421 72.0216C105.466 71.9157 105.467 71.8184 105.417 71.7133C105.169 71.1893 104.923 70.6641 104.679 70.1383C104.349 69.4274 104.02 68.7156 103.691 68.0041C103.315 67.1892 102.939 66.3735 102.561 65.5591C102.272 64.9362 101.977 64.316 101.689 63.6926C101.385 63.0347 101.086 62.3743 100.784 61.7157C100.727 61.591 100.661 61.4699 100.604 61.3454C100.582 61.2983 100.57 61.2466 100.543 61.1622Z" fill="white"/>
<path d="M53.7656 69.0568C53.8071 69.0333 53.8493 68.998 53.8978 68.9836C54.4272 68.8257 54.9577 68.6714 55.4877 68.5152C55.7338 68.4427 55.979 68.3674 56.2253 68.2958C56.2587 68.2861 56.2964 68.2912 56.3378 68.2892C56.4632 68.5709 56.6052 68.8378 56.8063 69.0727C57.1104 69.4276 57.4829 69.6766 57.9117 69.855C58.4935 70.0972 59.1024 70.1193 59.7099 70.0458C60.1108 69.9972 60.4836 69.8371 60.778 69.5293C61.1073 69.1849 61.0884 68.604 60.6761 68.2922C60.4677 68.1347 60.2353 68.0247 59.9846 67.9499C59.5017 67.806 59.0209 67.6551 58.538 67.5114C58.0955 67.3796 57.6516 67.2524 57.2077 67.1251C56.6115 66.954 56.0317 66.748 55.5174 66.3875C55.0558 66.064 54.6882 65.6636 54.4838 65.1327C54.2983 64.6509 54.2455 64.1545 54.3543 63.6439C54.5324 62.8078 55.0352 62.2056 55.7195 61.7318C56.178 61.4143 56.6814 61.2015 57.2197 61.0551C57.8313 60.8888 58.4518 60.8295 59.0803 60.8645C59.3733 60.8809 59.6631 60.9481 59.9554 60.9834C60.3115 61.0263 60.6473 61.1413 60.9795 61.2654C61.7749 61.5628 62.4529 62.0267 62.9885 62.6936C63.1967 62.9528 63.3548 63.2403 63.5104 63.5305C63.5231 63.5542 63.5161 63.5885 63.5194 63.6337C63.3155 63.6892 63.1128 63.7412 62.9121 63.7997C62.5145 63.9154 62.1178 64.0341 61.7211 64.1526C61.5367 64.2076 61.3533 64.2656 61.1691 64.321C61.0509 64.3565 61.0068 64.3455 60.94 64.243C60.6457 63.7918 60.2415 63.4717 59.7458 63.2756C59.536 63.1926 59.3086 63.1388 59.0843 63.1115C58.852 63.0833 58.6106 63.0784 58.3788 63.1074C57.9619 63.1595 57.5742 63.2895 57.2931 63.6371C56.9979 64.0019 57.0941 64.4166 57.4137 64.6664C57.5877 64.8024 57.793 64.8754 57.998 64.9384C58.4459 65.0759 58.899 65.1968 59.3504 65.3231C59.6506 65.407 59.9544 65.4791 60.2514 65.5729C60.7719 65.7373 61.3027 65.8661 61.8072 66.0852C62.1616 66.239 62.499 66.4121 62.8056 66.6449C63.2225 66.9615 63.5159 67.3632 63.6754 67.8676C63.8282 68.3507 63.8592 68.8422 63.7853 69.3355C63.699 69.9105 63.4497 70.4167 63.0635 70.8572C62.6073 71.3777 62.0478 71.7393 61.4075 71.9908C61.0577 72.1282 60.6965 72.2219 60.331 72.2978C60.1079 72.3441 59.8783 72.3701 59.6505 72.3799C59.3124 72.3944 58.9731 72.3959 58.635 72.386C58.1317 72.3713 57.6453 72.2569 57.1643 72.1132C56.346 71.8688 55.6201 71.4608 54.9861 70.891C54.488 70.4434 54.1101 69.9078 53.8469 69.2922C53.8167 69.2213 53.7963 69.1463 53.7656 69.0568Z" fill="white"/>
<path d="M27.5148 68.109C28.3935 68.3545 29.268 68.586 30.1428 68.8409C30.0524 69.2246 29.8931 69.5513 29.705 69.864C29.2789 70.5726 28.6951 71.1246 27.9931 71.5541C27.5763 71.8091 27.1324 72.0077 26.6617 72.1398C26.3779 72.2195 26.0894 72.2784 25.7976 72.3293C25.2794 72.4198 24.7612 72.3972 24.2433 72.3764C23.9013 72.3626 23.5611 72.3021 23.2327 72.1974C22.9634 72.1116 22.6947 72.023 22.4302 71.9234C22.024 71.7704 21.6535 71.5486 21.3046 71.2933C20.4672 70.6806 19.8535 69.8868 19.4534 68.9341C19.3261 68.6309 19.2499 68.3051 19.1646 67.9858C18.9733 67.2698 18.9704 66.5376 19.0466 65.8102C19.1036 65.2662 19.2564 64.7393 19.4798 64.233C19.7641 63.5888 20.148 63.0166 20.6436 62.5192C21.2467 61.9139 21.9543 61.4705 22.7645 61.1997C23.0825 61.0934 23.4071 60.9943 23.7366 60.9382C24.2369 60.8531 24.7464 60.8211 25.2534 60.866C26.1056 60.9413 26.9282 61.1439 27.6879 61.5464C28.4066 61.9271 29.0136 62.4438 29.4919 63.1076C29.7606 63.4807 29.9718 63.881 30.1089 64.3198C30.1463 64.4395 30.1422 64.446 30.0213 64.4801C29.5404 64.616 29.0589 64.7496 28.5786 64.8872C28.2278 64.9877 27.8784 65.0929 27.5159 65.1997C27.4837 65.147 27.4481 65.1053 27.4306 65.0571C27.2051 64.4381 26.7675 64.0157 26.1939 63.7194C25.7049 63.4667 25.1828 63.3584 24.6352 63.3934C23.8225 63.4453 23.1378 63.769 22.6013 64.388C22.2902 64.7469 22.0901 65.1613 21.9521 65.6166C21.8085 66.0903 21.7818 66.5717 21.8441 67.0496C21.9649 67.9777 22.3587 68.7697 23.138 69.3296C23.588 69.6528 24.0978 69.8209 24.6513 69.8466C25.2154 69.8727 25.7595 69.7746 26.2608 69.5132C26.7953 69.2344 27.2211 68.8426 27.4311 68.2555C27.4486 68.206 27.4835 68.1628 27.5148 68.109Z" fill="white"/>
<path d="M93.8239 72.0923C93.8239 72.0029 93.8239 71.9376 93.8239 71.8723C93.824 69.2122 93.824 66.5521 93.8241 63.892C93.8241 63.8557 93.8239 63.8195 93.825 63.7832C93.8271 63.7155 93.7866 63.6828 93.7273 63.6746C93.6737 63.6673 93.6188 63.6688 93.5644 63.6687C93.0261 63.6684 92.4878 63.669 91.9494 63.668C91.8784 63.6679 91.8072 63.6605 91.7305 63.6561C91.7305 62.8212 91.7305 62.0018 91.7305 61.167C92.0835 61.1357 92.4271 61.1559 92.7698 61.1523C93.113 61.1487 93.4562 61.1515 93.8131 61.1515C93.8178 61.074 93.8231 61.0218 93.8237 60.9697C93.8281 60.4922 93.8011 60.012 93.8421 59.5377C93.9212 58.6221 94.1909 57.7716 94.8426 57.0844C95.1981 56.7095 95.6211 56.4405 96.1105 56.2678C96.6417 56.0803 97.1906 55.994 97.7476 56.0003C98.3521 56.0072 98.9542 56.0727 99.5339 56.2654C99.6867 56.3161 99.8395 56.3677 99.9896 56.4256C100.12 56.4761 100.138 56.5281 100.096 56.6643C99.9624 57.1011 99.8302 57.5385 99.6974 57.9757C99.6278 58.205 99.5565 58.4336 99.4901 58.6638C99.4657 58.7483 99.4136 58.7665 99.3391 58.744C99.2592 58.7198 99.1799 58.6937 99.1019 58.6641C98.7159 58.5172 98.3146 58.4976 97.9088 58.5229C97.3011 58.5608 96.9149 58.9547 96.7604 59.4978C96.6995 59.7118 96.689 59.9244 96.6867 60.141C96.6839 60.407 96.686 60.673 96.686 60.939C96.686 60.9983 96.686 61.0576 96.686 61.1368C96.778 61.1424 96.8538 61.1509 96.9297 61.1509C97.8672 61.1519 98.8048 61.1514 99.7423 61.1519C99.813 61.152 99.8838 61.1578 99.9661 61.1615C99.9661 61.9993 99.9661 62.8188 99.9661 63.6578C99.892 63.6615 99.8217 63.6681 99.7512 63.6681C98.85 63.6688 97.9488 63.6685 97.0475 63.6685C97.0052 63.6685 96.9629 63.6683 96.9205 63.6685C96.6865 63.6696 96.6862 63.6697 96.6861 63.8959C96.6858 64.2284 96.686 64.5608 96.686 64.8933C96.686 67.221 96.6861 69.5485 96.686 71.8761C96.686 71.9184 96.6972 71.9659 96.6816 72.0016C96.6647 72.04 96.6276 72.0784 96.5896 72.096C96.5545 72.1123 96.5065 72.1019 96.4643 72.1019C95.6537 72.1021 94.8433 72.1023 94.0327 72.1018C93.9736 72.1017 93.9143 72.0965 93.8239 72.0923Z" fill="white"/>
<path d="M79.4187 63.6572C79.4152 63.5822 79.4105 63.5287 79.4105 63.4751C79.4101 62.7679 79.41 62.0607 79.4104 61.3536C79.4105 61.1579 79.4154 61.1524 79.6161 61.152C80.0817 61.1509 80.5473 61.1517 81.0129 61.1515C81.0613 61.1515 81.1099 61.1523 81.1579 61.1475C81.2194 61.1413 81.2588 61.111 81.255 61.0417C81.253 61.0056 81.2545 60.9692 81.2545 60.933C81.2544 59.8934 81.2543 58.8538 81.2542 57.8142C81.2542 57.784 81.2532 57.7538 81.2534 57.7235C81.2538 57.6406 81.2989 57.6035 81.3786 57.6027C81.4149 57.6024 81.4511 57.602 81.4874 57.602C82.2856 57.602 83.0839 57.6019 83.8821 57.6022C83.9304 57.6022 83.98 57.5985 84.0265 57.6085C84.0891 57.622 84.1374 57.6557 84.1311 57.7327C84.1281 57.7687 84.1299 57.8052 84.1299 57.8415C84.1298 58.869 84.1298 59.8965 84.1298 60.924C84.1298 60.9891 84.1298 61.0542 84.1298 61.1379C84.2174 61.1432 84.2873 61.151 84.3573 61.1511C85.2522 61.1519 86.1472 61.1517 87.0422 61.1517C87.0905 61.1517 87.1391 61.1493 87.1872 61.153C87.3114 61.1623 87.3299 61.1809 87.3301 61.3094C87.3309 62.0588 87.3304 62.8083 87.3299 63.5578C87.3299 63.5814 87.3246 63.6051 87.3196 63.6482C87.244 63.655 87.1685 63.6676 87.0929 63.6678C86.1919 63.6691 85.2908 63.6683 84.3899 63.6691C84.3129 63.6691 84.2359 63.6762 84.1461 63.6806C84.1398 63.746 84.1305 63.7982 84.1305 63.8504C84.1299 65.3796 84.1326 66.9088 84.1286 68.4379C84.128 68.7037 84.1792 68.955 84.3054 69.1834C84.491 69.5193 84.8038 69.6771 85.1722 69.7197C85.5223 69.7602 85.8741 69.7475 86.216 69.6531C86.393 69.6042 86.5631 69.5301 86.7581 69.4594C86.893 69.8288 86.994 70.2138 87.1091 70.5941C87.2237 70.9728 87.3343 71.3526 87.4533 71.7543C87.2244 71.8349 87.0215 71.9229 86.81 71.9771C86.4479 72.0698 86.0829 72.156 85.7143 72.2166C85.4715 72.2566 85.2206 72.2524 84.973 72.2586C84.4626 72.2712 83.9591 72.2243 83.471 72.0627C82.5947 71.7727 81.9726 71.2044 81.606 70.3579C81.469 70.0415 81.3926 69.709 81.3261 69.3709C81.2506 68.9871 81.2572 68.6017 81.256 68.2161C81.2519 66.7776 81.2544 65.3391 81.2544 63.9006C81.2544 63.6808 81.2436 63.6696 81.0156 63.6689C80.7314 63.668 80.4472 63.6686 80.163 63.6686C79.9815 63.6686 79.8001 63.6695 79.6187 63.6683C79.5594 63.6677 79.5 63.6618 79.4187 63.6572Z" fill="white"/>
<path d="M75.9336 72.1022C75.9336 66.8335 75.9336 61.6011 75.9336 56.3485C75.9955 56.3373 76.0577 56.3164 76.12 56.3162C76.9424 56.314 77.7648 56.3136 78.5873 56.3156C78.7679 56.3161 78.7797 56.3353 78.7794 56.5145C78.7784 57.1975 78.7785 57.8805 78.7785 58.5635C78.7784 62.9095 78.7784 67.2555 78.7785 71.6014C78.7785 71.6981 78.7789 71.7948 78.7797 71.8915C78.7814 72.0933 78.7733 72.1019 78.5633 72.1021C78.2004 72.1025 77.8377 72.1021 77.4748 72.1021C77.0333 72.1021 76.5919 72.1021 76.1504 72.1022C76.0855 72.1022 76.0206 72.1022 75.9336 72.1022Z" fill="white"/>
<path d="M90.9427 66.6146C90.9427 68.3669 90.9427 70.1191 90.9427 71.8713C90.9427 71.9015 90.9449 71.9319 90.9429 71.9619C90.9358 72.0716 90.9128 72.0937 90.7983 72.1018C90.7743 72.1036 90.75 72.1023 90.7258 72.1023C89.9037 72.1023 89.0816 72.1023 88.2594 72.1023C88.2232 72.1023 88.1869 72.1017 88.1507 72.1007C88.0841 72.0989 88.0513 72.0569 88.0456 71.9978C88.0397 71.938 88.0456 71.8771 88.0456 71.8168C88.0457 68.3606 88.0457 64.9046 88.0456 61.4484C88.0456 61.4182 88.0452 61.388 88.0446 61.3578C88.0413 61.1717 88.0583 61.1524 88.2505 61.1522C89.0787 61.1513 89.9069 61.1512 90.735 61.1524C90.9279 61.1526 90.9427 61.1701 90.9427 61.358C90.9427 63.1101 90.9427 64.8624 90.9427 66.6146Z" fill="white"/>
<path d="M114.304 72.2646C113.551 72.2519 113.04 71.9688 112.708 71.3984C112.199 70.5263 112.497 69.462 113.421 68.996C113.801 68.8045 114.215 68.7634 114.618 68.8491C115.253 68.9839 115.704 69.3713 115.912 69.9957C116.005 70.2734 116.036 70.5548 115.959 70.8629C115.824 71.4 115.54 71.7979 115.064 72.0655C114.801 72.2137 114.515 72.2783 114.304 72.2646Z" fill="white"/>
<path d="M89.5003 59.6421C88.8834 59.631 88.157 59.2629 87.9029 58.4692C87.638 57.6418 88.0005 56.8685 88.7341 56.4922C89.0055 56.353 89.2963 56.2719 89.6002 56.2949C90.295 56.3475 90.9068 56.6924 91.1536 57.4303C91.4743 58.389 90.8903 59.347 89.9623 59.5661C89.8109 59.6018 89.6545 59.6173 89.5003 59.6421Z" fill="white"/>
<path d="M86.2023 78.4605C86.2023 78.8278 86.2043 79.195 86.2017 79.5623C86.1992 79.9226 86.2139 80.2836 86.1907 80.6556C86.094 80.6556 86.0188 80.6556 85.9297 80.6556C85.9297 79.7432 85.9297 78.8405 85.9297 77.9143C86.0394 77.9124 86.1476 77.8992 86.2518 77.9138C86.2993 77.9204 86.3586 77.9732 86.3794 78.0198C86.5915 78.4949 86.7974 78.9727 87.0035 79.4504C87.1008 79.6761 87.1935 79.9039 87.2913 80.1294C87.3067 80.1646 87.3384 80.1927 87.3774 80.2434C87.7203 79.4523 88.054 78.6824 88.386 77.9164C88.5246 77.9164 88.6438 77.9164 88.779 77.9164C88.7856 77.9754 88.7963 78.027 88.7964 78.0787C88.7974 78.8824 88.7975 79.6861 88.7967 80.4898C88.7965 80.6471 88.7712 80.6737 88.6431 80.6681C88.5332 80.6633 88.5096 80.6416 88.5087 80.5246C88.5068 80.2527 88.5082 79.9807 88.5082 79.7088C88.5082 79.3402 88.5085 78.9716 88.5079 78.603C88.5078 78.5508 88.5029 78.4987 88.4704 78.4377C88.4416 78.4925 88.409 78.5457 88.3846 78.6024C88.1046 79.2493 87.8252 79.8963 87.5478 80.5443C87.5093 80.6344 87.4476 80.6677 87.3519 80.671C87.2376 80.675 87.1928 80.6046 87.1554 80.5181C86.9959 80.1499 86.8353 79.7823 86.6778 79.4134C86.5536 79.1225 86.4343 78.8296 86.3098 78.5389C86.2949 78.5039 86.2606 78.4772 86.2353 78.4466C86.2243 78.4512 86.2133 78.4559 86.2023 78.4605Z" fill="white"/>
<path d="M66.3584 80.2317C66.6674 79.5171 66.9683 78.8211 67.2694 78.125C67.3649 77.9044 67.3651 77.904 67.5973 77.9076C67.6449 77.9083 67.6924 77.9133 67.7605 77.9176C67.7659 77.9855 67.7754 78.049 67.7754 78.1124C67.7764 78.8923 67.7762 79.6721 67.7759 80.452C67.7758 80.6782 67.7538 80.6942 67.4937 80.6419C67.4769 79.9115 67.4986 79.1746 67.4823 78.4388C67.4692 78.4361 67.4561 78.4335 67.4431 78.4308C67.4129 78.4927 67.3802 78.5535 67.353 78.6167C67.0942 79.2167 66.8364 79.817 66.5784 80.4173C66.562 80.4556 66.5477 80.4948 66.5296 80.5322C66.4912 80.6109 66.4443 80.6687 66.341 80.6724C66.2298 80.6762 66.1747 80.6226 66.1354 80.5319C66.0189 80.2626 65.9008 79.9939 65.7844 79.7246C65.6368 79.3831 65.4903 79.0411 65.3429 78.6995C65.3059 78.6137 65.2669 78.5287 65.2288 78.4433C65.2142 78.4443 65.1998 78.4453 65.1853 78.4462C65.1803 78.4937 65.1712 78.5412 65.1712 78.5887C65.1713 79.2113 65.1726 79.834 65.1737 80.4567C65.1738 80.5159 65.1737 80.5751 65.1737 80.6544C65.0812 80.6591 65.0068 80.6628 64.9363 80.6663C64.8876 80.5275 64.8782 78.1169 64.9257 77.9083C65.0214 77.9083 65.1225 77.9088 65.2238 77.9081C65.3074 77.9076 65.3369 77.9739 65.3629 78.0315C65.4791 78.2889 65.5904 78.5486 65.7022 78.808C65.8754 79.2098 66.0477 79.6119 66.2196 80.0142C66.2383 80.0581 66.2448 80.1082 66.2686 80.1486C66.287 80.1798 66.3235 80.2004 66.3584 80.2317Z" fill="white"/>
<path d="M30.1421 77.9187C30.2516 77.9187 30.3272 77.9187 30.4159 77.9187C30.4159 78.8324 30.4159 79.7346 30.4159 80.6345C30.1834 80.7042 30.1247 80.6885 29.9978 80.5092C29.5726 79.9085 29.1491 79.3066 28.7255 78.7048C28.6743 78.6319 28.6259 78.557 28.5774 78.4822C28.5552 78.4479 28.5363 78.4116 28.5159 78.3762C28.501 78.3858 28.486 78.3953 28.4712 78.4048C28.4657 78.4372 28.4556 78.4696 28.4556 78.502C28.4561 79.1546 28.4584 79.8072 28.459 80.4598C28.4592 80.6757 28.4429 80.687 28.1842 80.6469C28.1617 80.4272 28.1775 80.1998 28.1747 79.9736C28.1719 79.744 28.1741 79.5144 28.1741 79.2847C28.1741 79.0611 28.1741 78.8376 28.1741 78.6139C28.1741 78.386 28.1741 78.1582 28.1741 77.9231C28.2308 77.916 28.2657 77.913 28.3001 77.9072C28.4482 77.8822 28.5454 77.947 28.6286 78.0675C29.0201 78.6343 29.4176 79.1969 29.8117 79.7619C29.8899 79.874 29.9617 79.9905 30.0396 80.1028C30.055 80.125 30.0847 80.1374 30.1372 80.176C30.1489 79.9672 30.1399 79.7847 30.1417 79.6029C30.1435 79.4155 30.1421 79.2282 30.1421 79.0408C30.1421 78.8596 30.1421 78.6783 30.1421 78.497C30.1421 78.3108 30.1421 78.1248 30.1421 77.9187Z" fill="white"/>
<path d="M24.0781 79.2908C24.096 78.5183 24.6648 77.8893 25.4831 77.8878C26.2819 77.8864 26.8718 78.5325 26.8655 79.2899C26.8584 80.1489 26.2059 80.7374 25.4319 80.7174C24.7076 80.6987 24.0902 80.1466 24.0781 79.2908ZM26.5544 79.4222C26.5489 79.0211 26.5214 78.8807 26.3429 78.6068C26.0311 78.1286 25.3447 78.0477 24.9284 78.3017C24.5097 78.5572 24.3461 78.9504 24.4009 79.4252C24.4567 79.9083 24.7107 80.237 25.1951 80.3851C25.4561 80.4649 25.6962 80.4335 25.9271 80.3243C26.3551 80.1219 26.5527 79.7677 26.5544 79.4222Z" fill="white"/>
<path d="M56.6979 78.4143C56.6979 79.1556 56.6979 79.8968 56.6979 80.6455C56.6439 80.6548 56.6038 80.6672 56.5636 80.6676C56.4461 80.6688 56.4261 80.6503 56.4201 80.5339C56.4161 80.4554 56.419 80.3767 56.419 80.2982C56.4189 79.5789 56.4186 78.8596 56.4193 78.1403C56.4194 78.0697 56.4265 77.9992 56.4302 77.9328C56.7802 77.8718 56.7624 77.9194 56.8818 78.0917C57.3423 78.7563 57.8074 79.418 58.2722 80.0797C58.2937 80.1102 58.3298 80.1306 58.3943 80.1858C58.3943 79.4063 58.3943 78.6687 58.3943 77.9226C58.4645 77.9162 58.5111 77.9102 58.5578 77.9082C58.6422 77.9047 58.6782 77.95 58.6765 78.0311C58.6757 78.0674 58.6759 78.1037 58.6759 78.1399C58.6759 78.9136 58.6769 79.6873 58.674 80.461C58.6737 80.5309 58.7212 80.6354 58.6068 80.6586C58.4963 80.6811 58.3744 80.6997 58.2923 80.5856C58.2115 80.4735 58.1354 80.3582 58.0559 80.2452C57.6669 79.6924 57.2777 79.1398 56.8883 78.5874C56.8423 78.5222 56.795 78.4579 56.7482 78.3932C56.7315 78.4002 56.7147 78.4073 56.6979 78.4143Z" fill="white"/>
<path d="M52.3242 79.3507C52.3556 78.6888 52.6138 78.2319 53.1626 78.0002C53.8201 77.7225 54.6319 77.9189 54.9841 78.6898C55.278 79.3334 55.067 80.0823 54.5037 80.465C54.2438 80.6415 53.9493 80.756 53.635 80.7223C53.1269 80.6679 52.5968 80.3735 52.4091 79.7778C52.3591 79.6189 52.3432 79.4492 52.3242 79.3507ZM54.8015 79.2926C54.7978 79.2406 54.7954 79.1984 54.7915 79.1564C54.73 78.4958 54.1597 77.9947 53.4045 78.2054C52.7141 78.398 52.5042 79.0989 52.7068 79.7054C52.8255 80.0607 53.0812 80.2859 53.4538 80.3912C53.7092 80.4634 53.9445 80.4322 54.1698 80.3268C54.6075 80.1219 54.8023 79.759 54.8015 79.2926Z" fill="white"/>
<path d="M72.75 80.6429C72.75 79.7326 72.75 78.8395 72.75 77.928C72.8052 77.9207 72.8564 77.9085 72.9077 77.9081C73.1495 77.906 73.3922 77.8944 73.6331 77.9099C74.1737 77.9446 74.6198 78.1487 74.8787 78.6575C75.0137 78.9228 75.0479 79.2006 75.01 79.4963C74.9664 79.8354 74.8188 80.113 74.5611 80.3296C74.3205 80.5318 74.038 80.6492 73.7227 80.6624C73.4391 80.6743 73.1545 80.6678 72.8704 80.6672C72.8358 80.6672 72.8013 80.6537 72.75 80.6429ZM73.0509 80.36C73.0828 80.3734 73.1098 80.3934 73.1381 80.3953C73.4459 80.4172 73.7503 80.407 74.0469 80.3058C74.4339 80.1738 74.7275 79.7755 74.7248 79.3158C74.7222 78.8382 74.498 78.4642 74.0774 78.2843C73.7493 78.144 73.406 78.1917 73.0509 78.19C73.0509 78.922 73.0509 79.6326 73.0509 80.36Z" fill="white"/>
<path d="M96.5483 78.1864C96.5483 78.5157 96.5483 78.8147 96.5483 79.1341C96.9819 79.1341 97.4023 79.1341 97.8369 79.1341C97.8369 79.2287 97.8369 79.3029 97.8369 79.3963C97.4073 79.4347 96.9801 79.3906 96.5352 79.4228C96.5352 79.5925 96.5352 79.748 96.5352 79.9035C96.5351 80.0182 96.5341 80.1331 96.5347 80.2479C96.5354 80.3744 96.5513 80.3925 96.6763 80.4041C96.7243 80.4086 96.7729 80.4068 96.8213 80.4069C97.1236 80.4071 97.4258 80.4054 97.7281 80.4081C97.8107 80.4088 97.8932 80.4222 97.9714 80.4294C97.9994 80.6555 97.9907 80.6683 97.7883 80.669C97.3349 80.6705 96.8815 80.6705 96.4281 80.6683C96.3647 80.668 96.3014 80.6517 96.2344 80.6423C96.2344 79.7313 96.2344 78.8388 96.2344 77.9327C96.2853 77.9236 96.331 77.9085 96.3768 77.9084C96.8544 77.9066 97.332 77.9077 97.8096 77.907C97.8871 77.9068 97.9555 77.9129 97.9709 78.0104C97.9899 78.1297 97.9448 78.1851 97.8129 78.1858C97.4562 78.1877 97.0995 78.1865 96.7428 78.1865C96.6838 78.1864 96.6248 78.1864 96.5483 78.1864Z" fill="white"/>
<path d="M22.9856 78.7954C22.91 78.8246 22.839 78.852 22.7721 78.8778C22.6863 78.7452 22.6154 78.6213 22.5306 78.5078C22.3653 78.2864 22.1376 78.1863 21.8625 78.1735C21.4129 78.1526 21.0594 78.3157 20.8388 78.7129C20.698 78.9663 20.6601 79.2393 20.7217 79.5325C20.7856 79.837 20.9263 80.0795 21.184 80.2524C21.7033 80.6008 22.4164 80.4293 22.678 79.8567C22.7001 79.8085 22.7286 79.7631 22.7591 79.7074C22.8322 79.7267 22.9 79.7446 22.9908 79.7686C22.9843 79.831 22.9946 79.9009 22.9689 79.953C22.7932 80.3082 22.5287 80.5619 22.1305 80.6537C22.0601 80.6699 21.9908 80.6911 21.9203 80.7076C21.5133 80.8024 20.8051 80.4741 20.57 80.0277C20.2586 79.4363 20.3674 78.591 20.9266 78.1656C21.496 77.7325 22.4425 77.7692 22.8724 78.4612C22.931 78.5551 23.0093 78.6475 22.9856 78.7954Z" fill="white"/>
<path d="M71.588 80.6439C71.3365 80.6926 71.3212 80.6842 71.2343 80.4862C71.1741 80.3492 71.105 80.216 71.0517 80.0766C71.0205 79.9953 70.9746 79.9652 70.8907 79.9656C70.4675 79.9679 70.0444 79.9674 69.6212 79.9662C69.5384 79.966 69.4915 79.9977 69.4597 80.0792C69.4035 80.2232 69.3297 80.3603 69.2675 80.5022C69.1886 80.6828 69.1404 80.7041 68.918 80.6315C69.3094 79.7268 69.7003 78.8236 70.0844 77.9357C70.1164 77.9219 70.1271 77.9134 70.1382 77.9129C70.4849 77.8965 70.4195 77.8918 70.5369 78.1555C70.8246 78.8014 71.0949 79.4552 71.3734 80.1053C71.4322 80.2425 71.4982 80.3766 71.5574 80.5136C71.5732 80.5501 71.5763 80.5922 71.588 80.6439ZM70.2609 78.2296C70.0622 78.6718 69.6523 79.5381 69.6693 79.6899C70.0673 79.6847 70.4674 79.6997 70.8877 79.679C70.6764 79.1904 70.4758 78.7265 70.2609 78.2296Z" fill="white"/>
<path d="M45.9722 79.9669C45.492 79.9669 45.0333 79.9674 44.5746 79.9664C44.496 79.9662 44.4555 80.0084 44.4266 80.0755C44.3625 80.2241 44.2951 80.3714 44.2288 80.519C44.1548 80.6836 44.0961 80.7037 43.8945 80.6252C43.9853 80.4061 44.0734 80.186 44.1673 79.9683C44.364 79.5124 44.5636 79.0578 44.7622 78.6027C44.8484 78.4051 44.9419 78.2104 45.0196 78.0095C45.0652 77.8918 45.1542 77.9112 45.2428 77.9063C45.335 77.9012 45.4056 77.9243 45.4455 78.018C45.6022 78.3864 45.7614 78.7538 45.9204 79.1213C46.1173 79.5764 46.3154 80.0311 46.5117 80.4865C46.53 80.529 46.5391 80.5754 46.5519 80.6181C46.3656 80.7087 46.2907 80.6878 46.2158 80.5237C46.1337 80.3439 46.0571 80.1616 45.9722 79.9669ZM45.8487 79.6776C45.6575 79.221 45.4791 78.7924 45.2973 78.3652C45.2808 78.3264 45.2428 78.2968 45.2015 78.2467C45.0072 78.7375 44.7875 79.1895 44.6029 79.6775C45.0339 79.6776 45.4343 79.6776 45.8487 79.6776Z" fill="white"/>
<path d="M76.3555 77.9166C76.9268 77.9166 77.4806 77.9166 78.0521 77.9166C78.0521 78.0045 78.0521 78.0836 78.0521 78.1821C77.5823 78.1821 77.1194 78.1821 76.6317 78.1821C76.6255 78.5048 76.6227 78.8083 76.6353 79.1326C77.07 79.1326 77.4904 79.1326 77.9221 79.1326C77.9221 79.2326 77.9221 79.3119 77.9221 79.4131C77.487 79.4131 77.0668 79.4131 76.6374 79.4131C76.6374 79.7411 76.6374 80.0473 76.6374 80.377C76.7095 80.3866 76.7841 80.4044 76.8589 80.4051C77.1794 80.4084 77.5 80.4056 77.8206 80.4075C77.8979 80.4079 77.9751 80.4177 78.0604 80.4237C78.0673 80.4758 78.0754 80.5157 78.0772 80.5559C78.0806 80.6314 78.039 80.6664 77.9664 80.6673C77.8696 80.6685 77.7728 80.669 77.676 80.669C77.2889 80.6692 76.9018 80.6703 76.5147 80.6684C76.3531 80.6676 76.3372 80.6523 76.3369 80.4915C76.3354 79.6814 76.3359 78.8713 76.3367 78.0612C76.3367 78.0203 76.347 77.9793 76.3555 77.9166Z" fill="white"/>
<path d="M31.7632 79.8993C31.827 79.8904 31.8925 79.8814 31.9672 79.871C31.9974 79.9235 32.0265 79.9742 32.0557 80.025C32.2123 80.2966 32.44 80.4493 32.761 80.4279C32.8854 80.4196 33.0018 80.3756 33.1099 80.3046C33.3896 80.121 33.3897 79.6503 32.9996 79.4946C32.9 79.4549 32.7908 79.438 32.685 79.4153C32.4977 79.3753 32.3063 79.3435 32.1384 79.2474C31.6582 78.9726 31.7324 78.3652 32.0452 78.0985C32.4241 77.7754 33.1909 77.8149 33.4543 78.2512C33.4665 78.2714 33.4867 78.2872 33.4977 78.3079C33.6449 78.5849 33.5369 78.6032 33.3218 78.595C33.2958 78.5551 33.2595 78.5138 33.2392 78.4658C33.0897 78.1133 32.4844 78.0961 32.2752 78.2802C32.1471 78.393 32.0486 78.5272 32.0843 78.7022C32.1233 78.8935 32.2558 79.0138 32.4492 79.0605C32.6356 79.1055 32.8228 79.1476 33.008 79.1971C33.3771 79.2958 33.5824 79.5531 33.6138 79.8703C33.6433 80.1687 33.4512 80.4652 33.1437 80.6128C32.6289 80.86 32.0104 80.6388 31.769 80.1228C31.7346 80.0491 31.7057 79.9792 31.7632 79.8993Z" fill="white"/>
<path d="M61.5649 78.6034C61.5461 78.5725 61.5317 78.5533 61.5219 78.5319C61.3488 78.1548 61.0025 78.1151 60.6809 78.1957C60.4406 78.256 60.3131 78.4807 60.3261 78.664C60.3396 78.8558 60.4903 79.0149 60.7092 79.0637C60.8962 79.1055 61.0842 79.1456 61.2673 79.2012C61.6325 79.3122 61.83 79.5398 61.8492 79.8702C61.8661 80.1611 61.7578 80.4434 61.3699 80.6213C60.9578 80.8105 60.4737 80.705 60.1692 80.3663C60.0286 80.2099 59.9692 80.0665 59.9877 79.9064C60.0637 79.8955 60.1441 79.8839 60.2276 79.8719C60.3215 80.1368 60.4868 80.3158 60.7435 80.3974C60.816 80.4204 60.899 80.439 60.9716 80.4268C61.093 80.4064 61.2203 80.3782 61.3264 80.3195C61.4988 80.224 61.5721 80.0598 61.5447 79.8615C61.5179 79.6681 61.3955 79.544 61.2182 79.4883C61.0294 79.4291 60.8325 79.3963 60.6403 79.3475C60.4196 79.2915 60.2275 79.1874 60.1142 78.9805C59.9689 78.715 60.0152 78.3571 60.2607 78.123C60.619 77.7815 61.2867 77.8199 61.5651 78.1065C61.6505 78.1945 61.7196 78.3016 61.7815 78.4085C61.847 78.5216 61.8196 78.5647 61.6872 78.5901C61.6521 78.5969 61.6158 78.5981 61.5649 78.6034Z" fill="white"/>
<path d="M82.524 78.5933C82.5022 78.5561 82.4829 78.5262 82.4663 78.4946C82.3237 78.2248 82.0888 78.148 81.8014 78.166C81.6201 78.1773 81.4724 78.2489 81.37 78.3935C81.153 78.7005 81.3711 78.9737 81.614 79.0498C81.7396 79.0892 81.8723 79.1054 82.0014 79.1341C82.1823 79.1742 82.3569 79.2254 82.5107 79.3389C82.9172 79.6389 82.9193 80.171 82.5459 80.4868C81.9602 80.9824 81.1553 80.6122 80.968 80.1079C80.9465 80.0499 80.9418 79.9855 80.9258 79.907C81.0239 79.8928 81.099 79.882 81.1776 79.8707C81.2651 80.0536 81.361 80.2135 81.5339 80.3203C81.7787 80.4716 82.026 80.4699 82.2664 80.3389C82.4476 80.2401 82.536 80.0713 82.5054 79.8559C82.4776 79.6604 82.3499 79.5432 82.1765 79.4873C81.9882 79.4267 81.79 79.3977 81.5981 79.3473C81.1812 79.2378 80.9532 78.9565 80.9976 78.5569C81.0265 78.2969 81.1846 78.1261 81.4002 77.9977C81.8405 77.7354 82.4964 77.9129 82.7149 78.3542C82.809 78.5442 82.7895 78.5778 82.5726 78.5986C82.561 78.5996 82.5489 78.5961 82.524 78.5933Z" fill="white"/>
<path d="M90.6252 79.6029C90.6191 79.6888 90.611 79.7532 90.6106 79.8178C90.6091 80.0473 90.6117 80.277 90.6095 80.5065C90.6081 80.6509 90.4707 80.7258 90.3496 80.647C90.3241 80.6303 90.3036 80.5906 90.2998 80.5593C90.2928 80.4999 90.3005 80.4388 90.3004 80.3784C90.3001 79.6171 90.2996 78.8559 90.2988 78.0946C90.2986 77.9246 90.312 77.908 90.4836 77.9077C90.7737 77.9072 91.0643 77.901 91.3537 77.9158C91.4827 77.9224 91.6181 77.9552 91.7354 78.0091C92.0962 78.1747 92.2576 78.4917 92.193 78.8961C92.1431 79.2089 91.9163 79.474 91.5554 79.5491C91.3913 79.5833 91.2208 79.5912 91.0527 79.6013C90.9157 79.6094 90.7777 79.6029 90.6252 79.6029ZM90.6385 78.1951C90.629 78.2239 90.6153 78.2463 90.6151 78.2689C90.6125 78.5822 90.6107 78.8954 90.6113 79.2087C90.6115 79.2958 90.6569 79.3385 90.7485 79.3354C90.9879 79.3273 91.2264 79.3467 91.4652 79.2847C91.7154 79.2198 91.9113 79.0088 91.9085 78.7506C91.9054 78.4613 91.7373 78.2435 91.3958 78.2011C91.1475 78.1704 90.8924 78.1951 90.6385 78.1951Z" fill="white"/>
<path d="M36.6939 77.9261C36.7344 77.9176 36.7575 77.9093 36.7809 77.9084C36.9496 77.9015 36.9702 77.9197 36.971 78.087C36.9724 78.3469 36.9714 78.6067 36.9711 78.8666C36.9708 79.1266 36.9764 79.3866 36.9679 79.6462C36.9606 79.8704 36.917 80.0866 36.7894 80.2806C36.6947 80.4245 36.5758 80.5339 36.4188 80.6051C35.9585 80.8135 35.4356 80.7157 35.1292 80.3672C34.9433 80.1557 34.8876 79.8973 34.8804 79.6328C34.8663 79.1133 34.8723 78.5934 34.8726 78.0735C34.8726 77.9286 34.9849 77.8565 35.1152 77.917C35.1426 77.9298 35.168 77.9676 35.1752 77.9983C35.1859 78.0443 35.1807 78.0942 35.1807 78.1425C35.1809 78.6019 35.1774 79.0612 35.1828 79.5206C35.1845 79.6648 35.1908 79.8137 35.2279 79.9517C35.3058 80.2417 35.5364 80.3733 35.8099 80.4208C36.1379 80.4779 36.466 80.3684 36.6001 80.0105C36.6556 79.8622 36.6691 79.6921 36.6722 79.5314C36.6812 79.0662 36.6744 78.6006 36.6759 78.1353C36.6762 78.0653 36.6878 77.9953 36.6939 77.9261Z" fill="white"/>
<path d="M49.536 77.9189C49.536 78.0079 49.536 78.0831 49.536 78.179C49.2429 78.179 48.9563 78.179 48.6495 78.179C48.6432 78.2669 48.634 78.336 48.6339 78.4052C48.6329 79.0992 48.6337 79.7934 48.6331 80.4875C48.6329 80.6243 48.6099 80.6557 48.5118 80.6681C48.3761 80.6852 48.3263 80.6429 48.3262 80.5023C48.3255 79.8083 48.3262 79.1141 48.3256 78.42C48.3255 78.3494 48.3196 78.2788 48.3155 78.1892C48.0144 78.1892 47.7275 78.1892 47.4258 78.1892C47.4258 78.0901 47.4258 78.0105 47.4258 77.9189C48.1265 77.9189 48.8184 77.9189 49.536 77.9189Z" fill="white"/>
<path d="M42.136 78.1798C42.1311 78.2786 42.1252 78.3434 42.1251 78.4084C42.1245 79.0785 42.1248 79.7487 42.1248 80.4189C42.1248 80.4431 42.1253 80.4672 42.1248 80.4914C42.1214 80.6518 42.0876 80.6831 41.9311 80.6653C41.9027 80.6621 41.8755 80.6476 41.8317 80.633C41.8317 79.8247 41.8317 79.0184 41.8317 78.1919C41.5271 78.1919 41.2402 78.1919 40.9385 78.1919C40.9281 78.1227 40.9144 78.0714 40.9141 78.02C40.9136 77.9505 40.9484 77.9071 41.025 77.9075C41.6832 77.9104 42.3413 77.9129 42.9996 77.9163C43.0102 77.9164 43.0208 77.9264 43.0442 77.9383C43.0442 78.0071 43.0442 78.0822 43.0442 78.1798C42.7476 78.1798 42.4545 78.1798 42.136 78.1798Z" fill="white"/>
<path d="M95.0487 80.4292C95.0487 80.5037 95.0487 80.5625 95.0487 80.6436C94.9863 80.6522 94.9238 80.6679 94.8611 80.6683C94.4505 80.6705 94.0397 80.6706 93.6291 80.669C93.447 80.6683 93.4366 80.6557 93.4364 80.4724C93.4361 79.6755 93.439 78.8787 93.4336 78.0818C93.4325 77.9224 93.4759 77.8983 93.6306 77.9089C93.7334 77.9159 93.7472 77.94 93.7473 78.0894C93.7477 78.7776 93.7474 79.4657 93.7473 80.1539C93.7473 80.4043 93.7473 80.4053 93.9975 80.4066C94.2632 80.4079 94.529 80.4053 94.7948 80.408C94.8777 80.4089 94.9604 80.4215 95.0487 80.4292Z" fill="white"/>
<path d="M38.7173 80.3696C38.796 80.3825 38.8699 80.404 38.9442 80.4051C39.2223 80.4093 39.5004 80.4053 39.7785 80.408C39.8612 80.4088 39.9439 80.4218 40.0325 80.4297C40.0325 80.505 40.0325 80.5637 40.0325 80.6364C39.9863 80.6475 39.9412 80.6674 39.8961 80.6677C39.4487 80.6698 39.0013 80.6695 38.554 80.6673C38.5142 80.6671 38.4745 80.6491 38.4286 80.6378C38.4245 80.6017 38.4184 80.5729 38.4184 80.544C38.4179 79.7222 38.4178 78.9004 38.4184 78.0785C38.4186 77.9269 38.4337 77.9108 38.5599 77.9073C38.6957 77.9036 38.7198 77.9267 38.7198 78.0805C38.7198 78.7875 38.7183 79.4945 38.7173 80.2015C38.7172 80.2493 38.7173 80.297 38.7173 80.3696Z" fill="white"/>
<path d="M51.0218 77.9448C51.0218 78.837 51.0218 79.7324 51.0218 80.6374C50.9787 80.6484 50.9398 80.6654 50.9001 80.6673C50.7586 80.6742 50.7348 80.6506 50.7348 80.5028C50.7341 79.7071 50.7344 78.9114 50.7348 78.1156C50.7348 77.8944 50.7828 77.8647 51.0218 77.9448Z" fill="white"/>
<path d="M84.1342 77.9139C84.2414 77.9139 84.3127 77.9139 84.4086 77.9139C84.4393 78.1437 84.4189 78.3711 84.4224 78.597C84.4261 78.8265 84.4232 79.0561 84.4232 79.2857C84.4232 79.5092 84.4232 79.7328 84.4232 79.9562C84.4232 80.1841 84.4232 80.412 84.4232 80.6539C84.321 80.6539 84.2458 80.6539 84.1443 80.6539C84.1241 80.3545 84.1372 80.055 84.1349 79.7564C84.1325 79.4483 84.1342 79.1402 84.1342 78.8321C84.1342 78.5316 84.1342 78.2311 84.1342 77.9139Z" fill="white"/>
</svg>
