<svg width="13" height="13" viewBox="0 0 13 13" fill="none" xmlns="http://www.w3.org/2000/svg">
<path d="M8.14151 6.3491L12.6868 1.81259C12.8858 1.61346 12.9976 1.34339 12.9976 1.06179C12.9976 0.780185 12.8858 0.510115 12.6868 0.310991C12.4877 0.111867 12.2178 0 11.9363 0C11.6548 0 11.3848 0.111867 11.1858 0.310991L6.65109 4.85808L2.1164 0.310991C1.91735 0.111867 1.64739 -2.09811e-09 1.3659 0C1.08441 2.09811e-09 0.814448 0.111867 0.615404 0.310991C0.41636 0.510115 0.304538 0.780185 0.304538 1.06179C0.304538 1.34339 0.41636 1.61346 0.615404 1.81259L5.16066 6.3491L0.615404 10.8856C0.51633 10.9839 0.437692 11.1009 0.384028 11.2297C0.330364 11.3586 0.302734 11.4968 0.302734 11.6364C0.302734 11.776 0.330364 11.9142 0.384028 12.0431C0.437692 12.1719 0.51633 12.2889 0.615404 12.3872C0.713669 12.4863 0.830579 12.565 0.959389 12.6187C1.0882 12.6724 1.22636 12.7 1.3659 12.7C1.50544 12.7 1.6436 12.6724 1.77241 12.6187C1.90122 12.565 2.01813 12.4863 2.1164 12.3872L6.65109 7.84012L11.1858 12.3872C11.284 12.4863 11.4009 12.565 11.5298 12.6187C11.6586 12.6724 11.7967 12.7 11.9363 12.7C12.0758 12.7 12.214 12.6724 12.3428 12.6187C12.4716 12.565 12.5885 12.4863 12.6868 12.3872C12.7858 12.2889 12.8645 12.1719 12.9181 12.0431C12.9718 11.9142 12.9994 11.776 12.9994 11.6364C12.9994 11.4968 12.9718 11.3586 12.9181 11.2297C12.8645 11.1009 12.7858 10.9839 12.6868 10.8856L8.14151 6.3491Z" fill="#9E97C9"/>
</svg>
