<svg width="24" height="24" viewBox="0 0 24 24" fill="none" xmlns="http://www.w3.org/2000/svg">
<rect width="24" height="24" rx="5" fill="#D4EFEF"/>
<path d="M16.3333 8.66667H15.6667V7.33333C15.6667 5.49333 14.1733 4 12.3333 4C10.4933 4 9 5.49333 9 7.33333V8.66667H8.33333C7.6 8.66667 7 9.26667 7 10V16.6667C7 17.4 7.6 18 8.33333 18H16.3333C17.0667 18 17.6667 17.4 17.6667 16.6667V10C17.6667 9.26667 17.0667 8.66667 16.3333 8.66667ZM12.3333 14.6667C11.6 14.6667 11 14.0667 11 13.3333C11 12.6 11.6 12 12.3333 12C13.0667 12 13.6667 12.6 13.6667 13.3333C13.6667 14.0667 13.0667 14.6667 12.3333 14.6667ZM10.3333 8.66667V7.33333C10.3333 6.22667 11.2267 5.33333 12.3333 5.33333C13.44 5.33333 14.3333 6.22667 14.3333 7.33333V8.66667H10.3333Z" fill="#427272"/>
</svg>
