<svg width="30" height="30" viewBox="0 0 30 30" fill="none" xmlns="http://www.w3.org/2000/svg">
<path d="M5.88648 24.1135L6.36539 23.6346L5.88649 24.1135C6.17558 24.4026 6.53209 24.401 6.7128 24.3834C6.87275 24.3677 7.0576 24.3213 7.2084 24.2835C7.21923 24.2808 7.22989 24.2781 7.24035 24.2755L10.8945 23.362C10.9117 23.3577 10.9291 23.3534 10.9465 23.349C11.1606 23.296 11.3908 23.2389 11.601 23.1199C11.8112 23.0009 11.9785 22.8329 12.1342 22.6766C12.1469 22.6639 12.1595 22.6512 12.172 22.6386L21.6161 13.1945L21.6161 13.1945L21.6455 13.1652L21.6478 13.1629C21.9538 12.8569 22.2345 12.5763 22.4321 12.3174C22.6496 12.0322 22.8358 11.687 22.8358 11.25C22.8358 10.813 22.6496 10.4678 22.4321 10.1826C22.2345 9.92368 21.9538 9.64311 21.6478 9.3371L21.6161 9.30546L20.6945 8.38388L20.6629 8.35223C20.3569 8.04615 20.0763 7.76552 19.8174 7.56795C19.5322 7.35038 19.187 7.16421 18.75 7.16421C18.313 7.16421 17.9678 7.35038 17.6826 7.56795C17.4237 7.76552 17.1431 8.04615 16.8371 8.35223L16.8055 8.38388L7.36138 17.828C7.34882 17.8405 7.33615 17.8531 7.3234 17.8658C7.16714 18.0215 6.99913 18.1888 6.88011 18.399L7.51314 18.7574L6.88011 18.399C6.7611 18.6092 6.70404 18.8394 6.65098 19.0535C6.64665 19.0709 6.64234 19.0883 6.63804 19.1055L5.72451 22.7596C5.72189 22.7701 5.71921 22.7808 5.71649 22.7916C5.67866 22.9424 5.63229 23.1273 5.61665 23.2872C5.59897 23.4679 5.59739 23.8244 5.88648 24.1135Z" stroke="#0A4949" stroke-width="1.5"/>
<path d="M15.625 9.375L19.375 6.875L23.125 10.625L20.625 14.375L15.625 9.375Z" fill="#0A4949"/>
</svg>
