<svg width="37" height="37" viewBox="0 0 37 37" fill="none" xmlns="http://www.w3.org/2000/svg">
<path fill-rule="evenodd" clip-rule="evenodd" d="M32.375 9.25H4.625V13.875C5.63519 13.875 6.14029 13.875 6.53375 14.0533C6.97571 14.2535 7.32981 14.6076 7.53006 15.0496C7.70833 15.443 7.70833 15.9481 7.70833 16.9583V26.375C7.70833 29.2034 7.70833 30.6176 8.58701 31.4963C9.46569 32.375 10.8799 32.375 13.7083 32.375H23.2917C26.1201 32.375 27.5343 32.375 28.413 31.4963C29.2917 30.6176 29.2917 29.2034 29.2917 26.375V16.9583C29.2917 15.9481 29.2917 15.443 29.4699 15.0496C29.6702 14.6076 30.0243 14.2535 30.4663 14.0533C30.8597 13.875 31.3648 13.875 32.375 13.875V9.25ZM15.6458 16.9583C15.6458 16.406 15.1981 15.9583 14.6458 15.9583C14.0935 15.9583 13.6458 16.406 13.6458 16.9583V24.6667C13.6458 25.219 14.0935 25.6667 14.6458 25.6667C15.1981 25.6667 15.6458 25.219 15.6458 24.6667V16.9583ZM23.3542 16.9583C23.3542 16.406 22.9065 15.9583 22.3542 15.9583C21.8019 15.9583 21.3542 16.406 21.3542 16.9583V24.6667C21.3542 25.219 21.8019 25.6667 22.3542 25.6667C22.9065 25.6667 23.3542 25.219 23.3542 24.6667V16.9583Z" fill="#979797"/>
<path d="M15.5219 5.19633C15.6976 5.03242 16.0847 4.88759 16.6231 4.78429C17.1616 4.68099 17.8214 4.625 18.5002 4.625C19.1789 4.625 19.8387 4.68099 20.3772 4.78429C20.9157 4.88759 21.3028 5.03242 21.4784 5.19633" stroke="#979797" stroke-width="2" stroke-linecap="round"/>
</svg>
