<svg width="24" height="24" viewBox="0 0 24 24" fill="none" xmlns="http://www.w3.org/2000/svg">
<rect width="24" height="24" rx="5" fill="#D4EFEF"/>
<path fill-rule="evenodd" clip-rule="evenodd" d="M15.9375 8.66663H16.625C17.3812 8.66663 18 9.26672 18 10V16.6666C18 17.4 17.3812 18 16.625 18H8.375C7.61877 18 7 17.4 7 16.6666V10C7 9.36829 7.45917 8.83545 8.06982 8.69995H11V8.66663H14.5625V7.33337C14.5625 6.22668 13.6412 5.33337 12.5 5.33337C11.476 5.33337 10.629 6.05273 10.4659 7H9.07953C9.2522 5.31628 10.7185 4 12.5 4C14.3975 4 15.9375 5.49329 15.9375 7.33337V8.66663ZM11.125 13.3334C11.125 14.0667 11.7438 14.6666 12.5 14.6666C13.2562 14.6666 13.875 14.0667 13.875 13.3334C13.875 12.6 13.2562 12 12.5 12C11.7438 12 11.125 12.6 11.125 13.3334Z" fill="#427272"/>
</svg>
