<svg width="215" height="151" viewBox="0 0 215 151" fill="none" xmlns="http://www.w3.org/2000/svg">
<g clip-path="url(#clip0_3241_8778)">
<path d="M101.333 53.3333H114.667C116.5 53.3333 118 51.8333 118 50V33.3333H123.3C126.267 33.3333 127.767 29.7333 125.667 27.6333L110.367 12.3333C109.067 11.0333 106.967 11.0333 105.667 12.3333L90.3666 27.6333C88.2666 29.7333 89.7333 33.3333 92.7 33.3333H98V50C98 51.8333 99.5 53.3333 101.333 53.3333ZM88 60H128C129.833 60 131.333 61.5 131.333 63.3333C131.333 65.1667 129.833 66.6667 128 66.6667H88C86.1666 66.6667 84.6666 65.1667 84.6666 63.3333C84.6666 61.5 86.1666 60 88 60Z" fill="#0A4949"/>
</g>
<path d="M29.0112 115.24C27.9845 115.24 27.0578 115.04 26.2312 114.64C25.4045 114.227 24.7445 113.607 24.2512 112.78C23.7712 111.953 23.5312 110.907 23.5312 109.64V101H26.0912V109.66C26.0912 110.753 26.3512 111.567 26.8712 112.1C27.4045 112.633 28.1378 112.9 29.0712 112.9C29.9912 112.9 30.7178 112.633 31.2512 112.1C31.7845 111.567 32.0512 110.753 32.0512 109.66V101H34.6112V109.64C34.6112 110.907 34.3578 111.953 33.8512 112.78C33.3445 113.607 32.6645 114.227 31.8112 114.64C30.9712 115.04 30.0378 115.24 29.0112 115.24ZM36.7645 119.4V105.08H39.0445L39.3245 106.5C39.6445 106.06 40.0645 105.673 40.5845 105.34C41.1178 105.007 41.8045 104.84 42.6445 104.84C43.5778 104.84 44.4111 105.067 45.1445 105.52C45.8778 105.973 46.4578 106.593 46.8845 107.38C47.3111 108.167 47.5245 109.06 47.5245 110.06C47.5245 111.06 47.3111 111.953 46.8845 112.74C46.4578 113.513 45.8778 114.127 45.1445 114.58C44.4111 115.02 43.5778 115.24 42.6445 115.24C41.8978 115.24 41.2445 115.1 40.6845 114.82C40.1245 114.54 39.6711 114.147 39.3245 113.64V119.4H36.7645ZM42.1045 113C42.9178 113 43.5911 112.727 44.1245 112.18C44.6578 111.633 44.9245 110.927 44.9245 110.06C44.9245 109.193 44.6578 108.48 44.1245 107.92C43.5911 107.36 42.9178 107.08 42.1045 107.08C41.2778 107.08 40.5978 107.36 40.0645 107.92C39.5445 108.467 39.2845 109.173 39.2845 110.04C39.2845 110.907 39.5445 111.62 40.0645 112.18C40.5978 112.727 41.2778 113 42.1045 113ZM49.4113 115V100.6H51.9713V115H49.4113ZM58.9471 115.24C57.9871 115.24 57.1204 115.02 56.3471 114.58C55.5871 114.14 54.9804 113.533 54.5271 112.76C54.0871 111.973 53.8671 111.067 53.8671 110.04C53.8671 109.013 54.0938 108.113 54.5471 107.34C55.0004 106.553 55.6071 105.94 56.3671 105.5C57.1404 105.06 58.0071 104.84 58.9671 104.84C59.9138 104.84 60.7671 105.06 61.5271 105.5C62.3004 105.94 62.9071 106.553 63.3471 107.34C63.8004 108.113 64.0271 109.013 64.0271 110.04C64.0271 111.067 63.8004 111.973 63.3471 112.76C62.9071 113.533 62.3004 114.14 61.5271 114.58C60.7538 115.02 59.8938 115.24 58.9471 115.24ZM58.9471 113.02C59.6138 113.02 60.1938 112.773 60.6871 112.28C61.1804 111.773 61.4271 111.027 61.4271 110.04C61.4271 109.053 61.1804 108.313 60.6871 107.82C60.1938 107.313 59.6204 107.06 58.9671 107.06C58.2871 107.06 57.7004 107.313 57.2071 107.82C56.7271 108.313 56.4871 109.053 56.4871 110.04C56.4871 111.027 56.7271 111.773 57.2071 112.28C57.7004 112.773 58.2804 113.02 58.9471 113.02ZM69.336 115.24C68.4827 115.24 67.7827 115.107 67.236 114.84C66.6894 114.56 66.2827 114.193 66.016 113.74C65.7494 113.287 65.616 112.787 65.616 112.24C65.616 111.32 65.976 110.573 66.696 110C67.416 109.427 68.496 109.14 69.936 109.14H72.456V108.9C72.456 108.22 72.2627 107.72 71.876 107.4C71.4894 107.08 71.0094 106.92 70.436 106.92C69.916 106.92 69.4627 107.047 69.076 107.3C68.6894 107.54 68.4494 107.9 68.356 108.38H65.856C65.9227 107.66 66.1627 107.033 66.576 106.5C67.0027 105.967 67.5494 105.56 68.216 105.28C68.8827 104.987 69.6294 104.84 70.456 104.84C71.8694 104.84 72.9827 105.193 73.796 105.9C74.6094 106.607 75.016 107.607 75.016 108.9V115H72.836L72.596 113.4C72.3027 113.933 71.8894 114.373 71.356 114.72C70.836 115.067 70.1627 115.24 69.336 115.24ZM69.916 113.24C70.6494 113.24 71.216 113 71.616 112.52C72.0294 112.04 72.2894 111.447 72.396 110.74H70.216C69.536 110.74 69.0494 110.867 68.756 111.12C68.4627 111.36 68.316 111.66 68.316 112.02C68.316 112.407 68.4627 112.707 68.756 112.92C69.0494 113.133 69.436 113.24 69.916 113.24ZM81.619 115.24C80.6857 115.24 79.8523 115.013 79.119 114.56C78.3857 114.107 77.8057 113.487 77.379 112.7C76.9523 111.913 76.739 111.02 76.739 110.02C76.739 109.02 76.9523 108.133 77.379 107.36C77.8057 106.573 78.3857 105.96 79.119 105.52C79.8523 105.067 80.6857 104.84 81.619 104.84C82.3657 104.84 83.019 104.98 83.579 105.26C84.139 105.54 84.5923 105.933 84.939 106.44V100.6H87.499V115H85.219L84.939 113.58C84.619 114.02 84.1923 114.407 83.659 114.74C83.139 115.073 82.459 115.24 81.619 115.24ZM82.159 113C82.9857 113 83.659 112.727 84.179 112.18C84.7123 111.62 84.979 110.907 84.979 110.04C84.979 109.173 84.7123 108.467 84.179 107.92C83.659 107.36 82.9857 107.08 82.159 107.08C81.3457 107.08 80.6723 107.353 80.139 107.9C79.6057 108.447 79.339 109.153 79.339 110.02C79.339 110.887 79.6057 111.6 80.139 112.16C80.6723 112.72 81.3457 113 82.159 113ZM94.1315 115V101H98.9115C100.551 101 101.898 101.293 102.951 101.88C104.018 102.453 104.805 103.267 105.311 104.32C105.831 105.36 106.091 106.587 106.091 108C106.091 109.413 105.831 110.647 105.311 111.7C104.805 112.74 104.018 113.553 102.951 114.14C101.898 114.713 100.551 115 98.9115 115H94.1315ZM96.6915 112.8H98.7915C99.9648 112.8 100.891 112.613 101.571 112.24C102.251 111.853 102.738 111.307 103.031 110.6C103.325 109.88 103.471 109.013 103.471 108C103.471 107 103.325 106.14 103.031 105.42C102.738 104.7 102.251 104.147 101.571 103.76C100.891 103.373 99.9648 103.18 98.7915 103.18H96.6915V112.8ZM112.65 115.24C111.69 115.24 110.824 115.02 110.05 114.58C109.29 114.14 108.684 113.533 108.23 112.76C107.79 111.973 107.57 111.067 107.57 110.04C107.57 109.013 107.797 108.113 108.25 107.34C108.704 106.553 109.31 105.94 110.07 105.5C110.844 105.06 111.71 104.84 112.67 104.84C113.617 104.84 114.47 105.06 115.23 105.5C116.004 105.94 116.61 106.553 117.05 107.34C117.504 108.113 117.73 109.013 117.73 110.04C117.73 111.067 117.504 111.973 117.05 112.76C116.61 113.533 116.004 114.14 115.23 114.58C114.457 115.02 113.597 115.24 112.65 115.24ZM112.65 113.02C113.317 113.02 113.897 112.773 114.39 112.28C114.884 111.773 115.13 111.027 115.13 110.04C115.13 109.053 114.884 108.313 114.39 107.82C113.897 107.313 113.324 107.06 112.67 107.06C111.99 107.06 111.404 107.313 110.91 107.82C110.43 108.313 110.19 109.053 110.19 110.04C110.19 111.027 110.43 111.773 110.91 112.28C111.404 112.773 111.984 113.02 112.65 113.02ZM124.479 115.24C123.466 115.24 122.572 115.02 121.799 114.58C121.026 114.14 120.412 113.527 119.959 112.74C119.519 111.953 119.299 111.053 119.299 110.04C119.299 109.027 119.519 108.127 119.959 107.34C120.412 106.553 121.026 105.94 121.799 105.5C122.572 105.06 123.466 104.84 124.479 104.84C125.746 104.84 126.812 105.173 127.679 105.84C128.546 106.493 129.099 107.4 129.339 108.56H126.639C126.506 108.08 126.239 107.707 125.839 107.44C125.452 107.16 124.992 107.02 124.459 107.02C123.752 107.02 123.152 107.287 122.659 107.82C122.166 108.353 121.919 109.093 121.919 110.04C121.919 110.987 122.166 111.727 122.659 112.26C123.152 112.793 123.752 113.06 124.459 113.06C124.992 113.06 125.452 112.927 125.839 112.66C126.239 112.393 126.506 112.013 126.639 111.52H129.339C129.099 112.64 128.546 113.54 127.679 114.22C126.812 114.9 125.746 115.24 124.479 115.24ZM134.931 115.24C133.691 115.24 132.731 114.853 132.051 114.08C131.385 113.307 131.051 112.173 131.051 110.68V105.08H133.591V110.44C133.591 111.293 133.765 111.947 134.111 112.4C134.458 112.853 135.005 113.08 135.751 113.08C136.458 113.08 137.038 112.827 137.491 112.32C137.958 111.813 138.191 111.107 138.191 110.2V105.08H140.751V115H138.491L138.291 113.32C137.985 113.907 137.538 114.373 136.951 114.72C136.378 115.067 135.705 115.24 134.931 115.24ZM142.979 115V105.08H145.239L145.459 106.42C145.779 105.94 146.199 105.56 146.719 105.28C147.253 104.987 147.866 104.84 148.559 104.84C150.093 104.84 151.179 105.433 151.819 106.62C152.179 106.073 152.659 105.64 153.259 105.32C153.873 105 154.539 104.84 155.259 104.84C156.553 104.84 157.546 105.227 158.239 106C158.933 106.773 159.279 107.907 159.279 109.4V115H156.719V109.64C156.719 108.787 156.553 108.133 156.219 107.68C155.899 107.227 155.399 107 154.719 107C154.026 107 153.466 107.253 153.039 107.76C152.626 108.267 152.419 108.973 152.419 109.88V115H149.859V109.64C149.859 108.787 149.693 108.133 149.359 107.68C149.026 107.227 148.513 107 147.819 107C147.139 107 146.586 107.253 146.159 107.76C145.746 108.267 145.539 108.973 145.539 109.88V115H142.979ZM166.13 115.24C165.13 115.24 164.243 115.027 163.47 114.6C162.696 114.173 162.09 113.573 161.65 112.8C161.21 112.027 160.99 111.133 160.99 110.12C160.99 109.093 161.203 108.18 161.63 107.38C162.07 106.58 162.67 105.96 163.43 105.52C164.203 105.067 165.11 104.84 166.15 104.84C167.123 104.84 167.983 105.053 168.73 105.48C169.476 105.907 170.056 106.493 170.47 107.24C170.896 107.973 171.11 108.793 171.11 109.7C171.11 109.847 171.103 110 171.09 110.16C171.09 110.32 171.083 110.487 171.07 110.66H163.53C163.583 111.433 163.85 112.04 164.33 112.48C164.823 112.92 165.416 113.14 166.11 113.14C166.63 113.14 167.063 113.027 167.41 112.8C167.77 112.56 168.036 112.253 168.21 111.88H170.81C170.623 112.507 170.31 113.08 169.87 113.6C169.443 114.107 168.91 114.507 168.27 114.8C167.643 115.093 166.93 115.24 166.13 115.24ZM166.15 106.92C165.523 106.92 164.97 107.1 164.49 107.46C164.01 107.807 163.703 108.34 163.57 109.06H168.51C168.47 108.407 168.23 107.887 167.79 107.5C167.35 107.113 166.803 106.92 166.15 106.92ZM172.863 115V105.08H175.123L175.323 106.76C175.63 106.173 176.07 105.707 176.643 105.36C177.23 105.013 177.916 104.84 178.703 104.84C179.93 104.84 180.883 105.227 181.563 106C182.243 106.773 182.583 107.907 182.583 109.4V115H180.023V109.64C180.023 108.787 179.85 108.133 179.503 107.68C179.156 107.227 178.616 107 177.883 107C177.163 107 176.57 107.253 176.103 107.76C175.65 108.267 175.423 108.973 175.423 109.88V115H172.863ZM189.051 115C188.011 115 187.178 114.747 186.551 114.24C185.924 113.733 185.611 112.833 185.611 111.54V107.22H183.911V105.08H185.611L185.911 102.42H188.171V105.08H190.851V107.22H188.171V111.56C188.171 112.04 188.271 112.373 188.471 112.56C188.684 112.733 189.044 112.82 189.551 112.82H190.791V115H189.051Z" fill="#0A4949"/>
<path d="M27.6975 145V136.6H30.6375C31.2935 136.6 31.8375 136.712 32.2695 136.936C32.7015 137.152 33.0215 137.452 33.2295 137.836C33.4455 138.212 33.5535 138.64 33.5535 139.12C33.5535 139.576 33.4495 139.996 33.2415 140.38C33.0415 140.756 32.7255 141.056 32.2935 141.28C31.8615 141.504 31.3095 141.616 30.6375 141.616H28.9695V145H27.6975ZM28.9695 140.572H30.5775C31.1775 140.572 31.6055 140.444 31.8615 140.188C32.1255 139.924 32.2575 139.568 32.2575 139.12C32.2575 138.656 32.1255 138.296 31.8615 138.04C31.6055 137.776 31.1775 137.644 30.5775 137.644H28.9695V140.572ZM34.5708 145V136.6H35.8428L40.0547 142.924V136.6H41.3268V145H40.0547L35.8428 138.676V145H34.5708ZM46.4397 145.144C45.6477 145.144 44.9557 144.964 44.3637 144.604C43.7717 144.244 43.3117 143.74 42.9837 143.092C42.6557 142.444 42.4917 141.688 42.4917 140.824C42.4917 139.968 42.6597 139.212 42.9957 138.556C43.3317 137.9 43.8077 137.388 44.4237 137.02C45.0477 136.644 45.7837 136.456 46.6317 136.456C47.5917 136.456 48.3917 136.688 49.0317 137.152C49.6717 137.616 50.0877 138.256 50.2797 139.072H48.8397C48.7117 138.624 48.4597 138.272 48.0837 138.016C47.7077 137.76 47.2237 137.632 46.6317 137.632C45.7517 137.632 45.0597 137.916 44.5557 138.484C44.0517 139.052 43.7997 139.836 43.7997 140.836C43.7997 141.836 44.0477 142.616 44.5437 143.176C45.0397 143.736 45.6997 144.016 46.5237 144.016C47.3557 144.016 47.9797 143.78 48.3957 143.308C48.8197 142.836 49.0677 142.208 49.1397 141.424H46.8597V140.44H50.4237V145H49.2597L49.1517 143.764C48.8717 144.204 48.5197 144.544 48.0957 144.784C47.6717 145.024 47.1197 145.144 46.4397 145.144ZM56.4789 145.144C55.9749 145.144 55.5589 145.06 55.2309 144.892C54.9029 144.724 54.6589 144.504 54.4989 144.232C54.3389 143.952 54.2589 143.648 54.2589 143.32C54.2589 142.744 54.4829 142.288 54.9309 141.952C55.3789 141.616 56.0189 141.448 56.8509 141.448H58.4109V141.34C58.4109 140.876 58.2829 140.528 58.0269 140.296C57.7789 140.064 57.4549 139.948 57.0549 139.948C56.7029 139.948 56.3949 140.036 56.1309 140.212C55.8749 140.38 55.7189 140.632 55.6629 140.968H54.3909C54.4309 140.536 54.5749 140.168 54.8229 139.864C55.0789 139.552 55.3989 139.316 55.7829 139.156C56.1749 138.988 56.6029 138.904 57.0669 138.904C57.8989 138.904 58.5429 139.124 58.9989 139.564C59.4549 139.996 59.6829 140.588 59.6829 141.34V145H58.5789L58.4709 143.98C58.3029 144.308 58.0589 144.584 57.7389 144.808C57.4189 145.032 56.9989 145.144 56.4789 145.144ZM56.7309 144.112C57.0749 144.112 57.3629 144.032 57.5949 143.872C57.8349 143.704 58.0189 143.484 58.1469 143.212C58.2829 142.94 58.3669 142.64 58.3989 142.312H56.9829C56.4789 142.312 56.1189 142.4 55.9029 142.576C55.6949 142.752 55.5909 142.972 55.5909 143.236C55.5909 143.508 55.6909 143.724 55.8909 143.884C56.0989 144.036 56.3789 144.112 56.7309 144.112ZM60.926 145V139.048H62.054L62.15 140.092C62.334 139.724 62.602 139.436 62.954 139.228C63.314 139.012 63.726 138.904 64.19 138.904C64.91 138.904 65.474 139.128 65.882 139.576C66.298 140.024 66.506 140.692 66.506 141.58V145H65.246V141.712C65.246 140.56 64.774 139.984 63.83 139.984C63.358 139.984 62.966 140.152 62.654 140.488C62.35 140.824 62.198 141.304 62.198 141.928V145H60.926ZM70.4762 145.144C69.9002 145.144 69.3922 145.008 68.9522 144.736C68.5122 144.464 68.1682 144.092 67.9202 143.62C67.6722 143.148 67.5482 142.612 67.5482 142.012C67.5482 141.412 67.6722 140.88 67.9202 140.416C68.1682 139.944 68.5122 139.576 68.9522 139.312C69.4002 139.04 69.9122 138.904 70.4882 138.904C70.9602 138.904 71.3722 138.996 71.7242 139.18C72.0842 139.364 72.3642 139.624 72.5642 139.96V136.36H73.8362V145H72.6962L72.5642 144.076C72.3722 144.356 72.1082 144.604 71.7722 144.82C71.4362 145.036 71.0042 145.144 70.4762 145.144ZM70.7042 144.04C71.2482 144.04 71.6922 143.852 72.0362 143.476C72.3882 143.1 72.5642 142.616 72.5642 142.024C72.5642 141.424 72.3882 140.94 72.0362 140.572C71.6922 140.196 71.2482 140.008 70.7042 140.008C70.1602 140.008 69.7122 140.196 69.3602 140.572C69.0082 140.94 68.8322 141.424 68.8322 142.024C68.8322 142.416 68.9122 142.764 69.0722 143.068C69.2322 143.372 69.4522 143.612 69.7322 143.788C70.0202 143.956 70.3442 144.04 70.7042 144.04ZM78.0314 145V136.6H80.9714C81.6274 136.6 82.1714 136.712 82.6034 136.936C83.0354 137.152 83.3554 137.452 83.5634 137.836C83.7794 138.212 83.8874 138.64 83.8874 139.12C83.8874 139.576 83.7834 139.996 83.5754 140.38C83.3754 140.756 83.0594 141.056 82.6274 141.28C82.1954 141.504 81.6434 141.616 80.9714 141.616H79.3034V145H78.0314ZM79.3034 140.572H80.9114C81.5114 140.572 81.9394 140.444 82.1954 140.188C82.4594 139.924 82.5914 139.568 82.5914 139.12C82.5914 138.656 82.4594 138.296 82.1954 138.04C81.9394 137.776 81.5114 137.644 80.9114 137.644H79.3034V140.572ZM84.9047 145V136.6H87.6287C88.6127 136.6 89.4207 136.772 90.0527 137.116C90.6927 137.46 91.1647 137.948 91.4687 138.58C91.7807 139.204 91.9367 139.948 91.9367 140.812C91.9367 141.668 91.7807 142.412 91.4687 143.044C91.1647 143.668 90.6927 144.152 90.0527 144.496C89.4207 144.832 88.6127 145 87.6287 145H84.9047ZM86.1767 143.92H87.5807C88.3407 143.92 88.9407 143.796 89.3807 143.548C89.8287 143.3 90.1487 142.944 90.3407 142.48C90.5407 142.016 90.6407 141.46 90.6407 140.812C90.6407 140.164 90.5407 139.604 90.3407 139.132C90.1487 138.66 89.8287 138.3 89.3807 138.052C88.9407 137.796 88.3407 137.668 87.5807 137.668H86.1767V143.92ZM93.1022 145V136.6H98.3702V137.632H94.3742V140.284H97.6862V141.304H94.3742V145H93.1022ZM102.413 145V140.116H101.561V139.048H102.413V138.184C102.413 137.536 102.573 137.072 102.893 136.792C103.221 136.504 103.681 136.36 104.273 136.36H104.897V137.44H104.465C104.185 137.44 103.985 137.5 103.865 137.62C103.745 137.732 103.685 137.924 103.685 138.196V139.048H107.453V145H106.181V140.116H103.685V145H102.413ZM106.829 138.052C106.589 138.052 106.389 137.98 106.229 137.836C106.077 137.684 106.001 137.492 106.001 137.26C106.001 137.036 106.077 136.852 106.229 136.708C106.389 136.564 106.589 136.492 106.829 136.492C107.069 136.492 107.265 136.564 107.417 136.708C107.577 136.852 107.657 137.036 107.657 137.26C107.657 137.492 107.577 137.684 107.417 137.836C107.265 137.98 107.069 138.052 106.829 138.052ZM108.904 145V136.36H110.176V145H108.904ZM114.331 145.144C113.747 145.144 113.227 145.016 112.771 144.76C112.323 144.496 111.971 144.132 111.715 143.668C111.459 143.204 111.331 142.664 111.331 142.048C111.331 141.424 111.455 140.876 111.703 140.404C111.959 139.932 112.311 139.564 112.759 139.3C113.215 139.036 113.743 138.904 114.343 138.904C114.927 138.904 115.435 139.036 115.867 139.3C116.299 139.556 116.635 139.9 116.875 140.332C117.115 140.764 117.235 141.24 117.235 141.76C117.235 141.84 117.231 141.928 117.223 142.024C117.223 142.112 117.219 142.212 117.211 142.324H112.579C112.619 142.9 112.807 143.34 113.143 143.644C113.487 143.94 113.883 144.088 114.331 144.088C114.691 144.088 114.991 144.008 115.231 143.848C115.479 143.68 115.663 143.456 115.783 143.176H117.055C116.895 143.736 116.575 144.204 116.095 144.58C115.623 144.956 115.035 145.144 114.331 145.144ZM114.331 139.948C113.907 139.948 113.531 140.076 113.203 140.332C112.875 140.58 112.675 140.956 112.603 141.46H115.963C115.939 140.996 115.775 140.628 115.471 140.356C115.167 140.084 114.787 139.948 114.331 139.948ZM120.691 145.144C119.939 145.144 119.319 144.96 118.831 144.592C118.343 144.224 118.063 143.736 117.991 143.128H119.275C119.339 143.4 119.491 143.636 119.731 143.836C119.971 144.028 120.287 144.124 120.679 144.124C121.063 144.124 121.343 144.044 121.519 143.884C121.695 143.724 121.783 143.54 121.783 143.332C121.783 143.028 121.659 142.824 121.411 142.72C121.171 142.608 120.835 142.508 120.403 142.42C120.067 142.348 119.731 142.252 119.395 142.132C119.067 142.012 118.791 141.844 118.567 141.628C118.351 141.404 118.243 141.104 118.243 140.728C118.243 140.208 118.443 139.776 118.843 139.432C119.243 139.08 119.803 138.904 120.523 138.904C121.187 138.904 121.723 139.064 122.131 139.384C122.547 139.704 122.791 140.156 122.863 140.74H121.639C121.599 140.484 121.479 140.284 121.279 140.14C121.087 139.996 120.827 139.924 120.499 139.924C120.179 139.924 119.931 139.992 119.755 140.128C119.579 140.256 119.491 140.424 119.491 140.632C119.491 140.84 119.611 141.004 119.851 141.124C120.099 141.244 120.423 141.352 120.823 141.448C121.223 141.536 121.591 141.64 121.927 141.76C122.271 141.872 122.547 142.04 122.755 142.264C122.963 142.488 123.067 142.816 123.067 143.248C123.075 143.792 122.863 144.244 122.431 144.604C122.007 144.964 121.427 145.144 120.691 145.144ZM129.015 145.144C128.511 145.144 128.095 145.06 127.767 144.892C127.439 144.724 127.195 144.504 127.035 144.232C126.875 143.952 126.795 143.648 126.795 143.32C126.795 142.744 127.019 142.288 127.467 141.952C127.915 141.616 128.555 141.448 129.387 141.448H130.947V141.34C130.947 140.876 130.819 140.528 130.563 140.296C130.315 140.064 129.991 139.948 129.591 139.948C129.239 139.948 128.931 140.036 128.667 140.212C128.411 140.38 128.255 140.632 128.199 140.968H126.927C126.967 140.536 127.111 140.168 127.359 139.864C127.615 139.552 127.935 139.316 128.319 139.156C128.711 138.988 129.139 138.904 129.603 138.904C130.435 138.904 131.079 139.124 131.535 139.564C131.991 139.996 132.219 140.588 132.219 141.34V145H131.115L131.007 143.98C130.839 144.308 130.595 144.584 130.275 144.808C129.955 145.032 129.535 145.144 129.015 145.144ZM129.267 144.112C129.611 144.112 129.899 144.032 130.131 143.872C130.371 143.704 130.555 143.484 130.683 143.212C130.819 142.94 130.903 142.64 130.935 142.312H129.519C129.015 142.312 128.655 142.4 128.439 142.576C128.231 142.752 128.127 142.972 128.127 143.236C128.127 143.508 128.227 143.724 128.427 143.884C128.635 144.036 128.915 144.112 129.267 144.112ZM133.462 145V139.048H134.602L134.71 140.176C134.918 139.784 135.206 139.476 135.574 139.252C135.95 139.02 136.402 138.904 136.93 138.904V140.236H136.582C136.23 140.236 135.914 140.296 135.634 140.416C135.362 140.528 135.142 140.724 134.974 141.004C134.814 141.276 134.734 141.656 134.734 142.144V145H133.462ZM140.401 145.144C139.817 145.144 139.297 145.016 138.841 144.76C138.393 144.496 138.041 144.132 137.785 143.668C137.529 143.204 137.401 142.664 137.401 142.048C137.401 141.424 137.525 140.876 137.773 140.404C138.029 139.932 138.381 139.564 138.829 139.3C139.285 139.036 139.813 138.904 140.413 138.904C140.997 138.904 141.505 139.036 141.937 139.3C142.369 139.556 142.705 139.9 142.945 140.332C143.185 140.764 143.305 141.24 143.305 141.76C143.305 141.84 143.301 141.928 143.293 142.024C143.293 142.112 143.289 142.212 143.281 142.324H138.649C138.689 142.9 138.877 143.34 139.213 143.644C139.557 143.94 139.953 144.088 140.401 144.088C140.761 144.088 141.061 144.008 141.301 143.848C141.549 143.68 141.733 143.456 141.853 143.176H143.125C142.965 143.736 142.645 144.204 142.165 144.58C141.693 144.956 141.105 145.144 140.401 145.144ZM140.401 139.948C139.977 139.948 139.601 140.076 139.273 140.332C138.945 140.58 138.745 140.956 138.673 141.46H142.033C142.009 140.996 141.845 140.628 141.541 140.356C141.237 140.084 140.857 139.948 140.401 139.948ZM149.184 145.144C148.68 145.144 148.264 145.06 147.936 144.892C147.608 144.724 147.364 144.504 147.204 144.232C147.044 143.952 146.964 143.648 146.964 143.32C146.964 142.744 147.188 142.288 147.636 141.952C148.084 141.616 148.724 141.448 149.556 141.448H151.116V141.34C151.116 140.876 150.988 140.528 150.732 140.296C150.484 140.064 150.16 139.948 149.76 139.948C149.408 139.948 149.1 140.036 148.836 140.212C148.58 140.38 148.424 140.632 148.368 140.968H147.096C147.136 140.536 147.28 140.168 147.528 139.864C147.784 139.552 148.104 139.316 148.488 139.156C148.88 138.988 149.308 138.904 149.772 138.904C150.604 138.904 151.248 139.124 151.704 139.564C152.16 139.996 152.388 140.588 152.388 141.34V145H151.284L151.176 143.98C151.008 144.308 150.764 144.584 150.444 144.808C150.124 145.032 149.704 145.144 149.184 145.144ZM149.436 144.112C149.78 144.112 150.068 144.032 150.3 143.872C150.54 143.704 150.724 143.484 150.852 143.212C150.988 142.94 151.072 142.64 151.104 142.312H149.688C149.184 142.312 148.824 142.4 148.608 142.576C148.4 142.752 148.296 142.972 148.296 143.236C148.296 143.508 148.396 143.724 148.596 143.884C148.804 144.036 149.084 144.112 149.436 144.112ZM153.631 145V136.36H154.903V145H153.631ZM156.274 145V136.36H157.546V145H156.274ZM161.701 145.144C161.133 145.144 160.621 145.016 160.165 144.76C159.717 144.496 159.361 144.132 159.097 143.668C158.833 143.196 158.701 142.648 158.701 142.024C158.701 141.4 158.833 140.856 159.097 140.392C159.369 139.92 159.733 139.556 160.189 139.3C160.645 139.036 161.153 138.904 161.713 138.904C162.281 138.904 162.789 139.036 163.237 139.3C163.693 139.556 164.053 139.92 164.317 140.392C164.589 140.856 164.725 141.4 164.725 142.024C164.725 142.648 164.589 143.196 164.317 143.668C164.053 144.132 163.693 144.496 163.237 144.76C162.781 145.016 162.269 145.144 161.701 145.144ZM161.701 144.052C162.005 144.052 162.285 143.976 162.541 143.824C162.805 143.672 163.017 143.448 163.177 143.152C163.337 142.848 163.417 142.472 163.417 142.024C163.417 141.576 163.337 141.204 163.177 140.908C163.025 140.604 162.817 140.376 162.553 140.224C162.297 140.072 162.017 139.996 161.713 139.996C161.409 139.996 161.125 140.072 160.861 140.224C160.605 140.376 160.397 140.604 160.237 140.908C160.077 141.204 159.997 141.576 159.997 142.024C159.997 142.472 160.077 142.848 160.237 143.152C160.397 143.448 160.605 143.672 160.861 143.824C161.117 143.976 161.397 144.052 161.701 144.052ZM166.826 145L165.074 139.048H166.346L167.498 143.536L168.794 139.048H170.21L171.506 143.536L172.658 139.048H173.93L172.178 145H170.87L169.502 140.32L168.134 145H166.826ZM177.299 145.144C176.715 145.144 176.195 145.016 175.739 144.76C175.291 144.496 174.939 144.132 174.683 143.668C174.427 143.204 174.299 142.664 174.299 142.048C174.299 141.424 174.423 140.876 174.671 140.404C174.927 139.932 175.279 139.564 175.727 139.3C176.183 139.036 176.711 138.904 177.311 138.904C177.895 138.904 178.403 139.036 178.835 139.3C179.267 139.556 179.603 139.9 179.843 140.332C180.083 140.764 180.203 141.24 180.203 141.76C180.203 141.84 180.199 141.928 180.191 142.024C180.191 142.112 180.187 142.212 180.179 142.324H175.547C175.587 142.9 175.775 143.34 176.111 143.644C176.455 143.94 176.851 144.088 177.299 144.088C177.659 144.088 177.959 144.008 178.199 143.848C178.447 143.68 178.631 143.456 178.751 143.176H180.023C179.863 143.736 179.543 144.204 179.063 144.58C178.591 144.956 178.003 145.144 177.299 145.144ZM177.299 139.948C176.875 139.948 176.499 140.076 176.171 140.332C175.843 140.58 175.643 140.956 175.571 141.46H178.931C178.907 140.996 178.743 140.628 178.439 140.356C178.135 140.084 177.755 139.948 177.299 139.948ZM183.995 145.144C183.419 145.144 182.911 145.008 182.471 144.736C182.031 144.464 181.687 144.092 181.439 143.62C181.191 143.148 181.067 142.612 181.067 142.012C181.067 141.412 181.191 140.88 181.439 140.416C181.687 139.944 182.031 139.576 182.471 139.312C182.919 139.04 183.431 138.904 184.007 138.904C184.479 138.904 184.891 138.996 185.243 139.18C185.603 139.364 185.883 139.624 186.083 139.96V136.36H187.355V145H186.215L186.083 144.076C185.891 144.356 185.627 144.604 185.291 144.82C184.955 145.036 184.523 145.144 183.995 145.144ZM184.223 144.04C184.767 144.04 185.211 143.852 185.555 143.476C185.907 143.1 186.083 142.616 186.083 142.024C186.083 141.424 185.907 140.94 185.555 140.572C185.211 140.196 184.767 140.008 184.223 140.008C183.679 140.008 183.231 140.196 182.879 140.572C182.527 140.94 182.351 141.424 182.351 142.024C182.351 142.416 182.431 142.764 182.591 143.068C182.751 143.372 182.971 143.612 183.251 143.788C183.539 143.956 183.863 144.04 184.223 144.04Z" fill="#8F9BBA"/>
<defs>
<clipPath id="clip0_3241_8778">
<rect width="80" height="80" fill="white" transform="translate(68)"/>
</clipPath>
</defs>
</svg>
